<?xml version="1.0" encoding="iso-8859-1"?>
<!-- Generator: Adobe Illustrator 19.0.0, SVG Export Plug-In . SVG Version: 6.00 Build 0)  -->
<svg version="1.1" id="Layer_1" xmlns="http://www.w3.org/2000/svg" xmlns:xlink="http://www.w3.org/1999/xlink" x="0px" y="0px"
	 viewBox="0 0 128.525 128.525" style="enable-background:new 0 0 128.525 128.525;" xml:space="preserve">
<g>
	<g>
		<path style="fill:#A2F255;" d="M115.337,76.894c0,21.461-22.866,38.861-51.073,38.861c-28.209,0-51.074-17.4-51.074-38.861
			c0-21.463,22.865-47.182,51.074-47.182C92.471,29.712,115.337,55.431,115.337,76.894z"/>
	</g>
	<g>
		<path style="fill:#83D839;" d="M115.337,76.894c0,21.461-22.866,38.861-51.073,38.861c-28.209,0-51.074-17.4-51.074-38.861
			c0-21.463,22.865-36.25,51.074-36.25C92.471,40.644,115.337,55.431,115.337,76.894z"/>
	</g>
	<g>
		<path style="fill:#A2F255;" d="M75.139,81.915c0,1.445-4.869,1.705-10.875,1.705c-6.006,0-10.875-0.26-10.875-1.705
			c0-1.447,4.869-5.229,10.875-5.229C70.269,76.687,75.139,80.468,75.139,81.915z"/>
	</g>
	<g>
		<path style="fill:#20B518;" d="M115.337,76.894c0,21.461-22.866,38.861-51.073,38.861c-28.209,0-51.074-17.4-51.074-38.861
			c0-21.465,6.498,19.035,51.074,19.035C108.838,95.929,115.337,55.429,115.337,76.894z"/>
	</g>
	<g>
		<path style="fill:#FFF800;" d="M50.703,75.816c0,9.934-8.049,17.975-17.977,17.975c-9.926,0-17.973-8.041-17.973-17.975
			c0-9.928,8.047-17.975,17.973-17.975C42.654,57.841,50.703,65.888,50.703,75.816z"/>
	</g>
	<g>
		<path style="fill:#FFB000;" d="M50.703,75.816c0,9.934-8.049,3.713-17.977,3.713c-9.926,0-17.973,6.221-17.973-3.713
			c0-9.928,8.047-17.975,17.973-17.975C42.654,57.841,50.703,65.888,50.703,75.816z"/>
	</g>
	<g>
		<path style="fill:#FFF800;" d="M113.771,75.816c0,9.934-8.049,17.975-17.977,17.975c-9.926,0-17.973-8.041-17.973-17.975
			c0-9.928,8.047-17.975,17.973-17.975C105.723,57.841,113.771,65.888,113.771,75.816z"/>
	</g>
	<g>
		<path style="fill:#FFB000;" d="M113.771,75.816c0,9.934-8.049,3.713-17.977,3.713c-9.926,0-17.973,6.221-17.973-3.713
			c0-9.928,8.047-17.975,17.973-17.975C105.723,57.841,113.771,65.888,113.771,75.816z"/>
	</g>
	<path style="fill:#33363A;" d="M64.264,28.212c-29.123,0-52.574,26.632-52.574,48.682c0,22.255,23.584,40.361,52.574,40.361
		c28.989,0,52.573-18.106,52.573-40.361C116.837,54.844,93.386,28.212,64.264,28.212z M64.264,114.255
		c-23.129,0-42.606-12-48.053-28.173c3.442,5.517,9.549,9.208,16.516,9.208c10.739,0,19.477-8.736,19.477-19.475
		s-8.737-19.475-19.477-19.475c-6.272,0-11.846,2.994-15.409,7.614c6.623-16.9,25.083-32.743,46.946-32.743
		c21.866,0,40.327,15.846,46.948,32.748c-3.564-4.623-9.141-7.619-15.416-7.619c-10.737,0-19.473,8.736-19.473,19.475
		S85.058,95.29,95.795,95.29c6.971,0,13.081-3.693,16.523-9.213C106.873,102.252,87.395,114.255,64.264,114.255z M16.254,75.816
		c0-9.084,7.39-16.475,16.473-16.475c9.085,0,16.477,7.391,16.477,16.475S41.812,92.29,32.727,92.29
		C23.644,92.29,16.254,84.9,16.254,75.816z M112.271,75.816c0,9.084-7.392,16.475-16.477,16.475
		c-9.083,0-16.473-7.391-16.473-16.475s7.39-16.475,16.473-16.475C104.88,59.341,112.271,66.732,112.271,75.816z"/>
	<path style="fill:#6D5C4D;" d="M43.215,75.816c0,5.795-4.695,10.486-10.488,10.486c-5.789,0-10.484-4.691-10.484-10.486
		c0-5.793,4.695-10.484,10.484-10.484C38.519,65.331,43.215,70.023,43.215,75.816z"/>
	<g>
		<circle style="fill:#FFFFFF;" cx="27.513" cy="72.408" r="4.273"/>
	</g>
	<path style="fill:#33363A;" d="M32.727,63.831c-3.912,0-7.382,1.893-9.57,4.801c-0.323,0.372-0.598,0.786-0.818,1.233
		c-1.01,1.756-1.596,3.784-1.596,5.95c0,6.609,5.376,11.986,11.984,11.986c6.61,0,11.988-5.377,11.988-11.986
		C44.715,69.207,39.337,63.831,32.727,63.831z M32.727,84.802c-3.803,0-7.053-2.379-8.362-5.724
		c1.914,0.158,4.943-1.096,8.362-1.096c3.422,0,6.452,1.254,8.366,1.096C39.783,82.423,36.531,84.802,32.727,84.802z"/>
	<circle style="fill:#FFFFFF;" cx="27.513" cy="72.408" r="2.771"/>
	<g>
		<path style="fill:#6D5C4D;" d="M106.283,75.816c0,5.795-4.695,10.486-10.484,10.486c-5.793,0-10.487-4.691-10.487-10.486
			c0-5.793,4.694-10.484,10.487-10.484C101.588,65.331,106.283,70.023,106.283,75.816z"/>
	</g>
	<g>
		<circle style="fill:#FFFFFF;" cx="90.583" cy="72.408" r="4.272"/>
	</g>
	<path style="fill:#33363A;" d="M95.799,63.831c-3.913,0-7.384,1.893-9.573,4.801c-0.322,0.371-0.596,0.784-0.816,1.229
		c-1.011,1.756-1.599,3.786-1.599,5.954c0,6.609,5.377,11.986,11.987,11.986c6.608,0,11.984-5.377,11.984-11.986
		C107.783,69.207,102.407,63.831,95.799,63.831z M95.799,84.802c-3.804,0-7.055-2.379-8.365-5.724
		c1.914,0.158,4.943-1.096,8.365-1.096c3.42,0,6.448,1.254,8.362,1.096C102.852,82.423,99.602,84.802,95.799,84.802z"/>
	<circle style="fill:#FFFFFF;" cx="90.582" cy="72.408" r="2.771"/>
	<g>
		<path style="fill:#EA81BD;" d="M127.025,15.552c0-17.328-28.098,12.561-62.761,12.561C29.601,28.113,1.5-1.776,1.5,15.552
			c0,15.561,22.658,28.471,52.375,30.947c0.916,5.75,5.217,19.908,10.389,19.908c5.17,0,9.471-14.158,10.389-19.908
			C104.369,44.025,127.025,31.115,127.025,15.552z"/>
	</g>
	<g>
		<path style="fill:#CC549E;" d="M64.265,37.238c-31.099,0-56.911-24.049-61.892-16.486c4.394,13.164,25.17,23.555,51.502,25.748
			c0.916,5.75,5.217,19.908,10.389,19.908c5.17,0,9.471-14.158,10.389-19.908c26.332-2.193,47.108-12.584,51.501-25.748
			C121.173,13.189,95.363,37.238,64.265,37.238z"/>
	</g>
	<path style="fill:#33363A;" d="M126.043,9.439c-3.528-2.245-9.528,0.561-18.611,4.806c-11.167,5.22-26.461,12.368-43.168,12.368
		c-16.708,0-32.002-7.148-43.17-12.368C12.01,9.999,6.008,7.196,2.482,9.439C0.812,10.502,0,12.501,0,15.552
		c0,16.004,22.052,29.511,52.606,32.342c1.11,5.51,5.2,20.014,11.658,20.014c6.452,0,10.546-14.504,11.658-20.014
		c30.553-2.828,52.604-16.336,52.604-32.342C128.525,12.501,127.713,10.501,126.043,9.439z M75.701,44.893
		c-0.091-0.017-0.185-0.028-0.281-0.028c-4.561,0-8.271,3.712-8.271,8.273c0,0.828,0.671,1.5,1.5,1.5s1.5-0.672,1.5-1.5
		c0-1.914,1.034-3.576,2.563-4.5c-1.598,7.168-5.412,16.27-8.448,16.27c-3.039,0-6.852-9.102-8.448-16.27
		c1.529,0.924,2.564,2.587,2.564,4.5c0,0.828,0.671,1.5,1.5,1.5s1.5-0.672,1.5-1.5c0-4.562-3.711-8.273-8.273-8.273
		c-0.096,0-0.189,0.011-0.28,0.028C24.34,42.23,3,29.725,3,15.552c0-1.916,0.368-3.121,1.093-3.582
		c0.355-0.227,0.834-0.33,1.418-0.33c2.926,0,8.485,2.599,14.314,5.322c11.422,5.339,27.066,12.65,44.44,12.65
		c17.374,0,33.016-7.312,44.438-12.65c6.992-3.267,13.593-6.354,15.73-4.992c0.725,0.461,1.093,1.666,1.093,3.582
		C125.525,29.726,104.186,42.233,75.701,44.893z"/>
	<g>
		<g>
			<path style="fill:#A2F255;" d="M81.111,103.386c0,8.281-7.543,14.994-16.848,14.994c-9.307,0-16.85-6.713-16.85-14.994
				c0-8.281,7.543-18.201,16.85-18.201C73.568,85.185,81.111,95.105,81.111,103.386z"/>
		</g>
		<g>
			<path style="fill:#83D839;" d="M81.111,103.386c0,8.281-7.543,14.994-16.848,14.994c-9.307,0-16.85-6.713-16.85-14.994
				c0-8.281,7.543-13.986,16.85-13.986C73.568,89.4,81.111,95.105,81.111,103.386z"/>
		</g>
		<g>
			<path style="fill:#FFF800;" d="M67.851,99.462c0,0.559-1.606,0.66-3.587,0.66c-1.982,0-3.588-0.102-3.588-0.66
				c0-0.557,1.606-2.016,3.588-2.016C66.244,97.447,67.851,98.906,67.851,99.462z"/>
		</g>
		<g>
			<path style="fill:#25931C;" d="M81.111,103.386c0,8.281-7.543,14.994-16.848,14.994c-9.307,0-16.85-6.713-16.85-14.994
				c0-8.281,2.145,7.346,16.85,7.346C78.967,110.732,81.111,95.105,81.111,103.386z"/>
		</g>
		<g>
			<path style="fill:#33363A;" d="M64.264,119.88c-10.118,0-18.35-7.399-18.35-16.494c0-8.924,8.185-19.701,18.35-19.701
				c10.164,0,18.348,10.777,18.348,19.701C82.611,112.481,74.38,119.88,64.264,119.88z M64.264,86.685
				c-8.503,0-15.35,9.137-15.35,16.701c0,7.44,6.886,13.494,15.35,13.494c8.463,0,15.348-6.054,15.348-13.494
				C79.611,95.822,72.765,86.685,64.264,86.685z"/>
		</g>
	</g>
	<g>
		<g>
			<path style="fill:#A2F255;" d="M75.129,108.712c0,5.338-4.865,9.668-10.865,9.668c-6.002,0-10.866-4.33-10.866-9.668
				c0-5.344,4.864-11.742,10.866-11.742C70.264,96.97,75.129,103.369,75.129,108.712z"/>
		</g>
		<g>
			<path style="fill:#83D839;" d="M75.129,108.712c0,5.338-4.865,9.668-10.865,9.668c-6.002,0-10.866-4.33-10.866-9.668
				c0-5.344,4.864-9.021,10.866-9.021C70.264,99.691,75.129,103.369,75.129,108.712z"/>
		</g>
		<g>
			<path style="fill:#A2F255;" d="M66.576,106.179c0,0.361-1.035,0.426-2.312,0.426c-1.278,0-2.314-0.064-2.314-0.426
				c0-0.359,1.035-1.299,2.314-1.299C65.541,104.88,66.576,105.82,66.576,106.179z"/>
		</g>
		<g>
			<path style="fill:#20B518;" d="M75.129,108.712c0,5.338-4.865,9.668-10.865,9.668c-6.002,0-10.866-4.33-10.866-9.668
				c0-5.344,1.383,4.734,10.866,4.734C73.746,113.447,75.129,103.369,75.129,108.712z"/>
		</g>
		<g>
			<path style="fill:#33363A;" d="M64.264,119.88c-6.819,0-12.366-5.01-12.366-11.168c0-6.124,5.402-13.242,12.366-13.242
				c6.964,0,12.365,7.118,12.365,13.242C76.629,114.871,71.082,119.88,64.264,119.88z M64.264,98.47
				c-5.044,0-9.366,5.632-9.366,10.242c0,4.504,4.202,8.168,9.366,8.168c5.164,0,9.365-3.664,9.365-8.168
				C73.629,104.102,69.308,98.47,64.264,98.47z"/>
		</g>
	</g>
</g>
<g>
</g>
<g>
</g>
<g>
</g>
<g>
</g>
<g>
</g>
<g>
</g>
<g>
</g>
<g>
</g>
<g>
</g>
<g>
</g>
<g>
</g>
<g>
</g>
<g>
</g>
<g>
</g>
<g>
</g>
</svg>
