<?xml version="1.0" encoding="iso-8859-1"?>
<!-- Generator: Adobe Illustrator 19.0.0, SVG Export Plug-In . SVG Version: 6.00 Build 0)  -->
<svg version="1.1" id="Layer_1" xmlns="http://www.w3.org/2000/svg" xmlns:xlink="http://www.w3.org/1999/xlink" x="0px" y="0px"
	 viewBox="0 0 127.584 127.584" style="enable-background:new 0 0 127.584 127.584;" xml:space="preserve">
<g>
	<g>
		<g>
			<g>
				<path style="fill:#FFD400;" d="M39.136,13.377c-2.965,5.133-3.018,11.144-0.68,16.135c5.49-0.471,10.67-3.521,13.635-8.656
					c2.963-5.133,3.018-11.145,0.68-16.135C47.281,5.189,42.099,8.244,39.136,13.377z"/>
			</g>
			<g>
				<path style="fill:#FFC200;" d="M38.457,29.512c5.49-0.471,10.67-3.521,13.635-8.656c2.963-5.133,3.018-11.145,0.68-16.135"/>
			</g>
			<g>
				<path style="fill:#FF5B00;" d="M39.343,17.873c-2.004,3.469-2.039,7.529-0.459,10.9c3.707-0.318,7.205-2.379,9.209-5.848
					c2-3.467,2.037-7.527,0.457-10.897C44.843,12.346,41.343,14.406,39.343,17.873z"/>
			</g>
			<g>
				<path style="fill:#FF7900;" d="M38.884,28.773c3.707-0.318,7.205-2.379,9.209-5.848c2-3.467,2.037-7.527,0.457-10.897"/>
			</g>
			<g>
				<path style="fill:#33363A;" d="M38.456,31.012c-0.578,0-1.109-0.333-1.358-0.863c-2.631-5.616-2.354-12.166,0.739-17.521h0
					c3.094-5.359,8.629-8.873,14.807-9.4c0.621-0.057,1.219,0.289,1.486,0.857c2.63,5.614,2.354,12.164-0.739,17.521
					c-3.093,5.356-8.628,8.871-14.806,9.4C38.542,31.01,38.499,31.012,38.456,31.012z M51.834,6.342
					c-4.767,0.731-8.975,3.585-11.399,7.785c0,0,0,0,0,0c-2.424,4.197-2.792,9.268-1.042,13.763c4.768-0.732,8.976-3.586,11.4-7.784
					C53.216,15.906,53.584,10.836,51.834,6.342z"/>
			</g>
		</g>
		<g>
			<g>
				<path style="fill:#FFD400;" d="M47.541,16.115c-5.135,2.963-8.186,8.143-8.656,13.633c4.99,2.338,11.002,2.285,16.137-0.678
					c5.133-2.965,8.186-8.144,8.656-13.635C58.687,13.098,52.673,13.15,47.541,16.115z"/>
			</g>
			<g>
				<path style="fill:#FFC200;" d="M38.884,29.748c4.99,2.338,11.002,2.285,16.137-0.678c5.133-2.965,8.186-8.144,8.656-13.635"/>
			</g>
			<g>
				<path style="fill:#FF5B00;" d="M45.47,20.113c-3.469,2.002-5.529,5.5-5.846,9.209c3.369,1.578,7.43,1.543,10.898-0.459
					c3.465-2.002,5.527-5.5,5.844-9.209C53,18.076,48.937,18.109,45.47,20.113z"/>
			</g>
			<g>
				<path style="fill:#FF7900;" d="M39.625,29.322c3.369,1.578,7.43,1.543,10.898-0.459c3.465-2.002,5.527-5.5,5.844-9.209"/>
			</g>
			<g>
				<path style="fill:#33363A;" d="M46.307,32.9c-2.747,0-5.5-0.595-8.059-1.794c-0.569-0.267-0.912-0.86-0.858-1.486
					c0.53-6.179,4.044-11.713,9.4-14.804l0,0c5.357-3.094,11.907-3.371,17.523-0.739c0.569,0.267,0.912,0.86,0.858,1.486
					c-0.53,6.177-4.044,11.712-9.4,14.806C52.855,32.052,49.586,32.9,46.307,32.9z M40.506,28.812
					c4.494,1.749,9.565,1.382,13.766-1.04c4.198-2.425,7.051-6.633,7.784-11.399c-4.497-1.751-9.567-1.383-13.765,1.042
					c0,0,0,0-0.001,0C44.092,19.837,41.239,24.044,40.506,28.812z"/>
			</g>
		</g>
	</g>
	<g>
		<g>
			<path style="fill:#E86207;" d="M63.242,80.84C45.271,79.436,31.843,63.728,33.25,45.758c0.463-5.939,2.516-11.365,5.671-15.941
				C26.62,33.713,17.287,44.725,16.218,58.381C14.814,76.35,28.242,92.057,46.212,93.463c12.029,0.939,23.019-4.787,29.41-14.053
				C71.736,80.641,67.558,81.178,63.242,80.84z"/>
		</g>
		<g>
			<path style="fill:#F77819;" d="M30.915,33.637c-3.027,4.502-4.982,9.814-5.436,15.613c-1.405,17.969,12.023,33.676,29.993,35.08
				c7.164,0.561,13.95-1.258,19.625-4.768c-3.738,1.115-7.732,1.6-11.856,1.277C45.271,79.436,31.843,63.728,33.25,45.758
				c0.463-5.939,2.516-11.365,5.671-15.941C36.068,30.723,33.382,32.021,30.915,33.637z"/>
		</g>
		<g>
			<path style="fill:#33363A;" d="M48.718,95.061c-0.872,0-1.746-0.034-2.623-0.103C27.33,93.49,13.256,77.029,14.723,58.264
				c1.09-13.926,10.41-25.653,23.745-29.877c0.612-0.196,1.278,0.022,1.659,0.537c0.381,0.516,0.393,1.217,0.029,1.744
				c-3.116,4.52-4.987,9.778-5.41,15.206c-0.649,8.293,1.97,16.341,7.375,22.662c5.404,6.322,12.947,10.16,21.239,10.809h0
				c3.988,0.313,7.964-0.146,11.811-1.364c0.61-0.196,1.277,0.022,1.659,0.538c0.381,0.515,0.393,1.216,0.029,1.743
				C70.456,89.543,59.852,95.06,48.718,95.061z M35.389,32.811C25.38,37.547,18.595,47.233,17.714,58.498
				c-1.338,17.115,11.499,32.13,28.616,33.47c9.578,0.75,18.958-3.043,25.383-10.052c-2.831,0.504-5.705,0.646-8.588,0.419
				c-9.09-0.71-17.36-4.918-23.286-11.849c-5.925-6.931-8.796-15.755-8.085-24.846C32.103,41.17,33.346,36.806,35.389,32.811z"/>
		</g>
	</g>
	<g>
		<g>
			<path style="fill:#FFAD40;" d="M107.903,88.643c0,20.676-22.032,37.441-49.209,37.441c-27.178,0-49.209-16.766-49.209-37.441
				c0-20.68,22.031-45.459,49.209-45.459C85.871,43.184,107.903,67.963,107.903,88.643z"/>
		</g>
		<g>
			<path style="fill:#F77819;" d="M107.903,88.643c0,20.676-22.032,37.441-49.209,37.441c-27.178,0-49.209-16.766-49.209-37.441
				c0-20.68,22.031-34.928,49.209-34.928C85.871,53.715,107.903,67.963,107.903,88.643z"/>
		</g>
		<g>
			<path style="fill:#FFAD40;" d="M69.13,82.787c0,1.395-4.691,1.645-10.478,1.645c-5.787,0-10.479-0.25-10.479-1.645
				c0-1.393,4.691-5.035,10.479-5.035C64.439,77.752,69.13,81.394,69.13,82.787z"/>
		</g>
		<g>
			<path style="fill:#E86207;" d="M107.903,88.643c0,20.676-22.032,37.441-49.209,37.441c-27.178,0-49.209-16.766-49.209-37.441
				c0-20.682,6.261,18.34,49.209,18.34C101.642,106.982,107.903,67.961,107.903,88.643z"/>
		</g>
		<g>
			<path style="fill:#33363A;" d="M58.694,127.584c-27.961,0-50.709-17.469-50.709-38.941c0-21.27,22.62-46.959,50.709-46.959
				s50.709,25.689,50.709,46.959C109.403,110.115,86.655,127.584,58.694,127.584z M58.694,44.684
				c-26.428,0-47.709,24.048-47.709,43.959c0,19.818,21.402,35.941,47.709,35.941s47.709-16.123,47.709-35.941
				C106.403,68.731,85.122,44.684,58.694,44.684z"/>
		</g>
	</g>
	<g>
		<path style="fill:#1362A8;" d="M42.532,74.549c0,4.449-3.605,8.051-8.052,8.051c-4.447,0-8.051-3.602-8.051-8.051
			c0-4.447,3.604-8.051,8.051-8.051C38.926,66.498,42.532,70.102,42.532,74.549z"/>
	</g>
	<g>
		<circle style="fill:#FFFFFF;" cx="30.476" cy="71.932" r="3.281"/>
	</g>
	<path style="fill:#33363A;" d="M34.48,64.998c-3.233,0-6.092,1.619-7.82,4.085c-0.119,0.158-0.222,0.325-0.321,0.498
		c-0.888,1.45-1.41,3.147-1.41,4.968c0,5.267,4.285,9.551,9.551,9.551c5.267,0,9.552-4.284,9.552-9.551S39.747,64.998,34.48,64.998z
		 M34.48,81.1c-2.721,0-5.058-1.668-6.046-4.034c0.688-0.018,1.525-0.2,2.468-0.396c0.335-0.03,0.658-0.093,0.97-0.189
		c0.819-0.148,1.694-0.268,2.608-0.268c2.412,0,4.571,0.813,6.047,0.853C39.539,79.432,37.201,81.1,34.48,81.1z"/>
	<circle style="fill:#FFFFFF;" cx="30.475" cy="71.933" r="1.78"/>
	<g>
		<path style="fill:#1362A8;" d="M90.959,74.549c0,4.449-3.605,8.051-8.051,8.051c-4.447,0-8.052-3.602-8.052-8.051
			c0-4.447,3.604-8.051,8.052-8.051C87.354,66.498,90.959,70.102,90.959,74.549z"/>
	</g>
	<g>
		<circle style="fill:#FFFFFF;" cx="78.903" cy="71.932" r="3.28"/>
	</g>
	<path style="fill:#33363A;" d="M82.908,64.998c-3.24,0-6.104,1.625-7.832,4.099c-0.111,0.149-0.207,0.305-0.3,0.466
		c-0.894,1.453-1.42,3.157-1.42,4.985c0,5.267,4.285,9.551,9.552,9.551c5.266,0,9.551-4.284,9.551-9.551
		S88.174,64.998,82.908,64.998z M82.908,81.1c-2.721,0-5.059-1.668-6.047-4.034c0.688-0.018,1.525-0.2,2.468-0.396
		c0.336-0.03,0.66-0.093,0.973-0.19c0.819-0.148,1.693-0.267,2.607-0.267c2.412,0,4.571,0.813,6.046,0.853
		C87.966,79.432,85.628,81.1,82.908,81.1z"/>
	<path style="fill:#FFFFFF;" d="M78.904,70.152c-0.982,0-1.781,0.798-1.781,1.779c0,0.982,0.799,1.781,1.781,1.781
		c0.981,0,1.779-0.799,1.779-1.781C80.683,70.95,79.885,70.152,78.904,70.152z"/>
	<g>
		<g>
			<path style="fill:#33363A;" d="M56.227,90.84c-0.398,0-0.796-0.157-1.091-0.47l-1.5-1.588c-0.569-0.603-0.542-1.552,0.06-2.121
				c0.603-0.569,1.552-0.542,2.121,0.061l1.5,1.588c0.569,0.603,0.542,1.552-0.06,2.121C56.966,90.704,56.596,90.84,56.227,90.84z"
				/>
		</g>
		<g>
			<path style="fill:#33363A;" d="M61.161,90.84c-0.37,0-0.74-0.136-1.03-0.409c-0.602-0.569-0.629-1.519-0.06-2.121l1.5-1.588
				c0.569-0.603,1.518-0.629,2.121-0.061c0.602,0.569,0.629,1.519,0.06,2.121l-1.5,1.588C61.957,90.683,61.56,90.84,61.161,90.84z"
				/>
		</g>
	</g>
	<g>
		<polyline style="fill:#FFFFFF;" points="36.458,94.291 31.404,97.266 31.046,91.414 		"/>
	</g>
	<g>
		<polyline style="fill:#FFFFFF;" points="80.93,94.291 85.984,97.266 86.341,91.414 		"/>
	</g>
	<path style="fill:#33363A;" d="M89.586,85.492c-0.746-0.362-1.643-0.057-2.007,0.688c-0.033,0.069-3.453,6.784-14.958,6.784
		c-0.157,0-0.315-0.001-0.475-0.004c-8.041-0.125-11.745,1.522-13.453,3.101c-1.707-1.578-5.411-3.224-13.453-3.101
		c-11.744,0.208-15.283-6.483-15.437-6.788c-0.366-0.738-1.262-1.042-2.003-0.681c-0.744,0.364-1.052,1.263-0.688,2.007
		c0.07,0.143,0.826,1.599,2.59,3.262c-0.11,0.225-0.171,0.477-0.154,0.745l0.357,5.852c0.032,0.521,0.332,0.987,0.792,1.232
		c0.221,0.117,0.463,0.176,0.705,0.176c0.263,0,0.526-0.069,0.761-0.207l5.054-2.975c0.216-0.127,0.382-0.303,0.506-0.501
		c2.129,0.575,4.617,0.932,7.565,0.878c9.085-0.146,11.658,2.161,11.883,3.063c-0.016-0.065-0.014-0.103-0.014-0.103l1.536-0.14
		l1.536,0.14c0,0,0.002,0.037-0.014,0.103c0.226-0.901,2.817-3.234,11.884-3.063c2.949,0.052,5.437-0.304,7.565-0.878
		c0.124,0.198,0.29,0.374,0.505,0.501l5.054,2.975c0.234,0.138,0.498,0.207,0.761,0.207c0.242,0,0.484-0.059,0.705-0.176
		c0.46-0.245,0.761-0.712,0.792-1.232l0.357-5.852c0.016-0.267-0.044-0.518-0.153-0.742c1.764-1.664,2.519-3.121,2.589-3.265
		C90.639,86.755,90.331,85.856,89.586,85.492z M32.752,94.731l-0.108-1.764c0.503,0.301,1.05,0.589,1.635,0.865L32.752,94.731z
		 M84.636,94.731l-1.525-0.898c0.584-0.275,1.131-0.563,1.633-0.863L84.636,94.731z"/>
	<g>
		<g>
			<path style="fill:#FFD400;" d="M46.298,15.814c0,5.928-2.96,11.16-7.48,14.312c-4.52-3.152-7.479-8.385-7.479-14.312
				c0-5.928,2.96-11.162,7.479-14.314C43.338,4.652,46.298,9.887,46.298,15.814z"/>
		</g>
		<g>
			<path style="fill:#FFC200;" d="M38.818,30.127c-4.52-3.152-7.479-8.385-7.479-14.312c0-5.928,2.96-11.162,7.479-14.314"/>
		</g>
		<g>
			<path style="fill:#FF5B00;" d="M43.871,19.605c0,4.006-2,7.539-5.053,9.668c-3.053-2.129-5.051-5.662-5.051-9.668
				c0-4.002,1.998-7.537,5.051-9.664C41.871,12.068,43.871,15.603,43.871,19.605z"/>
		</g>
		<g>
			<path style="fill:#FF7900;" d="M38.818,29.273c-3.053-2.129-5.051-5.662-5.051-9.668c0-4.002,1.998-7.537,5.051-9.664"/>
		</g>
		<g>
			<path style="fill:#33363A;" d="M38.818,31.627c-0.3,0-0.6-0.09-0.858-0.27c-5.085-3.547-8.122-9.357-8.122-15.543
				c0-6.187,3.036-11.998,8.122-15.545c0.515-0.359,1.2-0.359,1.716,0c5.086,3.547,8.123,9.358,8.123,15.545
				c0,6.186-3.037,11.996-8.123,15.543C39.418,31.537,39.118,31.627,38.818,31.627z M38.818,3.372
				c-3.763,3.019-5.979,7.594-5.979,12.442c0,4.848,2.217,9.422,5.979,12.44c3.763-3.018,5.98-7.593,5.98-12.44
				C44.798,10.966,42.581,6.391,38.818,3.372z"/>
		</g>
	</g>
	<g>
		<g>
			<path style="fill:#FFD400;" d="M98.439,25.049c0,5.928-2.96,11.16-7.48,14.313c-4.52-3.152-7.48-8.385-7.48-14.313
				c0-5.928,2.96-11.162,7.48-14.314C95.479,13.887,98.439,19.121,98.439,25.049z"/>
		</g>
		<g>
			<path style="fill:#FFC200;" d="M90.959,39.361c-4.52-3.152-7.48-8.385-7.48-14.313c0-5.928,2.96-11.162,7.48-14.314"/>
		</g>
		<g>
			<path style="fill:#FF5B00;" d="M96.011,28.84c0,4.006-2,7.539-5.053,9.668c-3.053-2.129-5.051-5.662-5.051-9.668
				c0-4.002,1.998-7.537,5.051-9.664C94.011,21.303,96.011,24.838,96.011,28.84z"/>
		</g>
		<g>
			<path style="fill:#FF7900;" d="M90.959,38.508c-3.053-2.129-5.051-5.662-5.051-9.668c0-4.002,1.998-7.537,5.051-9.664"/>
		</g>
		<g>
			<path style="fill:#33363A;" d="M90.958,40.861c-0.3,0-0.6-0.09-0.858-0.27c-5.085-3.547-8.122-9.357-8.122-15.543
				c0-6.187,3.036-11.998,8.122-15.545c0.515-0.359,1.2-0.359,1.716,0c5.086,3.547,8.123,9.358,8.123,15.545
				c0,6.186-3.037,11.996-8.123,15.543C91.559,40.771,91.259,40.861,90.958,40.861z M90.958,12.606
				c-3.763,3.019-5.979,7.594-5.979,12.442c0,4.848,2.217,9.422,5.979,12.44c3.763-3.018,5.98-7.593,5.98-12.44
				C96.939,20.2,94.722,15.625,90.958,12.606z"/>
		</g>
	</g>
	<g>
		<g>
			<path style="fill:#FFD400;" d="M118.099,48.744c0,5.928-2.961,11.16-7.481,14.313c-4.52-3.152-7.479-8.385-7.479-14.313
				c0-5.928,2.96-11.162,7.479-14.314C115.138,37.582,118.099,42.816,118.099,48.744z"/>
		</g>
		<g>
			<path style="fill:#FFC200;" d="M110.618,63.057c-4.52-3.152-7.479-8.385-7.479-14.313c0-5.928,2.96-11.162,7.479-14.314"/>
		</g>
		<g>
			<path style="fill:#FF5B00;" d="M115.669,52.535c0,4.006-1.999,7.539-5.052,9.668c-3.052-2.129-5.052-5.662-5.052-9.668
				c0-4.002,2-7.537,5.052-9.664C113.67,44.998,115.669,48.533,115.669,52.535z"/>
		</g>
		<g>
			<path style="fill:#FF7900;" d="M110.618,62.203c-3.052-2.129-5.052-5.662-5.052-9.668c0-4.002,2-7.537,5.052-9.664"/>
		</g>
		<g>
			<path style="fill:#33363A;" d="M110.618,64.557c-0.3,0-0.6-0.09-0.858-0.27c-5.085-3.547-8.122-9.357-8.122-15.543
				c0-6.187,3.036-11.998,8.122-15.545c0.515-0.359,1.2-0.359,1.716,0c5.087,3.547,8.124,9.358,8.124,15.545
				c0,6.186-3.037,11.996-8.124,15.543C111.218,64.467,110.918,64.557,110.618,64.557z M110.618,36.302
				c-3.763,3.019-5.979,7.594-5.979,12.442c0,4.848,2.217,9.422,5.979,12.44c3.764-3.019,5.981-7.593,5.981-12.44
				C116.599,43.896,114.381,39.32,110.618,36.302z"/>
		</g>
	</g>
</g>
<g>
</g>
<g>
</g>
<g>
</g>
<g>
</g>
<g>
</g>
<g>
</g>
<g>
</g>
<g>
</g>
<g>
</g>
<g>
</g>
<g>
</g>
<g>
</g>
<g>
</g>
<g>
</g>
<g>
</g>
</svg>
