<?xml version="1.0" encoding="iso-8859-1"?>
<!-- Generator: Adobe Illustrator 19.0.0, SVG Export Plug-In . SVG Version: 6.00 Build 0)  -->
<svg version="1.1" id="Layer_1" xmlns="http://www.w3.org/2000/svg" xmlns:xlink="http://www.w3.org/1999/xlink" x="0px" y="0px"
	 viewBox="0 0 127.521 127.521" style="enable-background:new 0 0 127.521 127.521;" xml:space="preserve">
<g>
	<g>
		<g>
			<g>
				<g>
					<path style="fill:#4F4B48;" d="M113.927,26.826c6.311,8.672,7.635,20.496,2.378,30.678
						c-5.255,10.184-15.657,15.953-26.386,15.832c-6.313-8.674-7.635-20.494-2.377-30.678
						C92.798,32.474,103.198,26.705,113.927,26.826z"/>
				</g>
				<g>
					<path style="fill:#33363A;" d="M89.919,73.336c-6.313-8.674-7.635-20.494-2.377-30.678
						c5.256-10.184,15.656-15.953,26.385-15.832"/>
				</g>
				<g>
					<path style="fill:#33363A;" d="M90.261,74.837c-0.12,0-0.238-0.001-0.358-0.002c-0.474-0.006-0.917-0.234-1.196-0.617
						c-6.909-9.493-7.865-21.851-2.497-32.249c5.313-10.292,15.779-16.646,27.376-16.646c0.12,0,0.238,0.001,0.358,0.002
						c0.474,0.006,0.917,0.234,1.196,0.617c6.909,9.493,7.866,21.851,2.498,32.249C112.327,68.484,101.859,74.837,90.261,74.837z
						 M113.152,28.327c-10.297,0.156-19.55,5.858-24.277,15.019c-4.729,9.16-4.019,20.006,1.819,28.489
						c10.298-0.156,19.551-5.858,24.277-15.019C119.701,47.656,118.99,36.811,113.152,28.327z"/>
				</g>
			</g>
			<g>
				<g>
					<path style="fill:#EFA3CC;" d="M109.312,37.681c3.885,5.336,4.699,12.613,1.463,18.881c-3.234,6.268-9.637,9.82-16.24,9.744
						c-3.885-5.338-4.698-12.613-1.463-18.881C96.306,41.156,102.708,37.605,109.312,37.681z"/>
				</g>
				<g>
					<path style="fill:#33363A;" d="M94.749,67.807c-0.077,0-0.154,0-0.232-0.001c-0.474-0.006-0.917-0.234-1.195-0.617
						c-4.381-6.02-4.987-13.856-1.583-20.452c3.368-6.527,10.004-10.557,17.358-10.557c0.077,0,0.154,0,0.232,0.001
						c0.474,0.006,0.916,0.234,1.195,0.617c4.382,6.02,4.988,13.856,1.583,20.452C108.738,63.778,102.103,67.807,94.749,67.807z
						 M108.533,39.189c-6.001,0.199-11.365,3.567-14.129,8.924c-2.765,5.355-2.402,11.68,0.908,16.686
						c5.999-0.199,11.364-3.567,14.129-8.924C112.207,50.518,111.845,44.195,108.533,39.189z"/>
				</g>
			</g>
		</g>
		<g>
			<g>
				<g>
					<path style="fill:#4F4B48;" d="M13.593,26.826c-6.312,8.672-7.636,20.496-2.378,30.678C16.47,67.687,26.872,73.457,37.6,73.336
						c6.313-8.674,7.635-20.494,2.379-30.678C34.723,32.474,24.321,26.705,13.593,26.826z"/>
				</g>
				<g>
					<path style="fill:#33363A;" d="M37.6,73.336c6.313-8.674,7.635-20.494,2.379-30.678c-5.256-10.184-15.657-15.953-26.386-15.832
						"/>
				</g>
				<g>
					<path style="fill:#33363A;" d="M37.258,74.837c-11.599,0-22.064-6.354-27.376-16.646C4.513,47.795,5.47,35.437,12.38,25.943
						c0.279-0.383,0.723-0.611,1.196-0.617c0.119-0.001,0.239-0.002,0.358-0.002c11.599,0,22.064,6.354,27.377,16.646
						c5.367,10.398,4.409,22.755-2.499,32.248c-0.279,0.383-0.723,0.611-1.196,0.617C37.497,74.837,37.377,74.837,37.258,74.837z
						 M14.367,28.327c-5.838,8.484-6.549,19.33-1.819,28.488c4.727,9.16,13.979,14.862,24.276,15.02
						c5.837-8.483,6.549-19.329,1.821-28.489C33.918,34.186,24.664,28.484,14.367,28.327z"/>
				</g>
			</g>
			<g>
				<g>
					<path style="fill:#EFA3CC;" d="M18.208,37.681c-3.885,5.336-4.699,12.613-1.464,18.881c3.234,6.268,9.637,9.82,16.24,9.744
						c3.885-5.338,4.699-12.613,1.464-18.881C31.213,41.156,24.812,37.605,18.208,37.681z"/>
				</g>
				<g>
					<path style="fill:#33363A;" d="M32.77,67.807c-7.354,0-13.989-4.028-17.358-10.558c-3.405-6.596-2.798-14.433,1.584-20.451
						c0.279-0.383,0.722-0.611,1.195-0.617c0.077-0.001,0.155-0.001,0.232-0.001c7.354,0,13.989,4.028,17.358,10.558
						c3.404,6.595,2.797,14.431-1.584,20.451c-0.278,0.383-0.722,0.611-1.195,0.617C32.925,67.807,32.847,67.807,32.77,67.807z
						 M18.986,39.189c-3.312,5.005-3.674,11.329-0.909,16.685c2.764,5.357,8.13,8.725,14.129,8.925
						c3.312-5.007,3.674-11.33,0.909-16.685C30.351,42.756,24.985,39.388,18.986,39.189z"/>
				</g>
			</g>
		</g>
	</g>
	<g>
		<g>
			<path style="fill:#FBFCF2;" d="M112.969,77.152c0,20.676-22.032,37.441-49.209,37.441c-27.178,0-49.209-16.766-49.209-37.441
				c0-20.68,22.031-45.459,49.209-45.459C90.937,31.693,112.969,56.472,112.969,77.152z"/>
		</g>
		<g>
			<path style="fill:#EAE4C5;" d="M112.969,77.152c0,20.676-22.032,37.441-49.209,37.441c-27.178,0-49.209-16.766-49.209-37.441
				c0-20.68,22.031-34.928,49.209-34.928C90.937,42.224,112.969,56.472,112.969,77.152z"/>
		</g>
		<g>
			<path style="fill:#DDD2B1;" d="M112.969,77.152c0,20.676-22.032,37.441-49.209,37.441c-27.178,0-49.209-16.766-49.209-37.441
				c0-20.682,6.262,18.34,49.209,18.34C106.708,95.492,112.969,56.47,112.969,77.152z"/>
		</g>
		<g>
			<path style="fill:#33363A;" d="M63.76,116.093c-27.961,0-50.709-17.469-50.709-38.941c0-21.27,22.619-46.959,50.709-46.959
				s50.709,25.689,50.709,46.959C114.469,98.625,91.721,116.093,63.76,116.093z M63.76,33.193
				c-26.428,0-47.709,24.048-47.709,43.959c0,19.818,21.402,35.941,47.709,35.941s47.709-16.123,47.709-35.941
				C111.469,57.241,90.188,33.193,63.76,33.193z"/>
		</g>
	</g>
	<g>
		<path style="fill:#A35616;" d="M47.598,74.994c0,4.449-3.605,8.051-8.053,8.051c-4.445,0-8.051-3.602-8.051-8.051
			c0-4.447,3.605-8.051,8.051-8.051C43.992,66.943,47.598,70.546,47.598,74.994z"/>
	</g>
	<g>
		<circle style="fill:#FFFFFF;" cx="35.542" cy="72.377" r="3.28"/>
	</g>
	<path style="fill:#33363A;" d="M39.545,65.443c-3.243,0-6.11,1.628-7.837,4.107c-0.106,0.143-0.198,0.294-0.288,0.448
		c-0.898,1.456-1.426,3.163-1.426,4.996c0,5.267,4.284,9.551,9.551,9.551c5.268,0,9.553-4.284,9.553-9.551
		S44.813,65.443,39.545,65.443z M39.545,81.545c-2.721,0-5.058-1.668-6.046-4.034c0.688-0.018,1.525-0.2,2.469-0.396
		c0.336-0.03,0.659-0.093,0.971-0.19c0.819-0.148,1.693-0.267,2.606-0.267c2.413,0,4.572,0.813,6.048,0.853
		C44.604,79.877,42.266,81.545,39.545,81.545z"/>
	<circle style="fill:#FFFFFF;" cx="35.541" cy="72.378" r="1.78"/>
	<g>
		<path style="fill:#A35616;" d="M96.024,74.994c0,4.449-3.604,8.051-8.051,8.051c-4.447,0-8.052-3.602-8.052-8.051
			c0-4.447,3.604-8.051,8.052-8.051C92.42,66.943,96.024,70.546,96.024,74.994z"/>
	</g>
	<g>
		<circle style="fill:#FFFFFF;" cx="83.969" cy="72.377" r="3.28"/>
	</g>
	<path style="fill:#33363A;" d="M87.974,65.443c-3.238,0-6.101,1.623-7.829,4.095c-0.113,0.151-0.211,0.31-0.305,0.474
		c-0.893,1.452-1.417,3.155-1.417,4.981c0,5.267,4.285,9.551,9.552,9.551s9.551-4.284,9.551-9.551S93.24,65.443,87.974,65.443z
		 M87.974,81.545c-2.721,0-5.058-1.668-6.047-4.034c0.688-0.018,1.525-0.2,2.468-0.396c0.336-0.03,0.66-0.093,0.973-0.19
		c0.818-0.148,1.693-0.267,2.606-0.267c2.412,0,4.571,0.813,6.046,0.853C93.032,79.877,90.694,81.545,87.974,81.545z"/>
	<circle style="fill:#FFFFFF;" cx="83.97" cy="72.378" r="1.78"/>
	<g>
		<path style="fill:#FBFCF2;" d="M79.989,84.74c0,1.391-7.266,1.641-16.229,1.641c-8.964,0-16.231-0.25-16.231-1.641
			c0-1.393,7.268-5.031,16.231-5.031C72.724,79.709,79.989,83.347,79.989,84.74z"/>
	</g>
	<g>
		<g>
			<g>
				<polyline style="fill:#EAE4C5;" points="105.264,85.209 125.192,69.828 102.218,76.404 				"/>
			</g>
			<g>
				<path style="fill:#33363A;" d="M105.265,86.709c-0.449,0-0.893-0.2-1.188-0.584c-0.506-0.655-0.385-1.598,0.271-2.104
					l13.729-10.597l-15.446,4.422c-0.803,0.225-1.628-0.233-1.855-1.029c-0.228-0.797,0.233-1.627,1.029-1.855l22.975-6.576
					c0.698-0.197,1.427,0.124,1.752,0.766c0.324,0.643,0.147,1.425-0.423,1.864L106.18,86.396
					C105.907,86.607,105.585,86.709,105.265,86.709z"/>
			</g>
		</g>
		<g>
			<g>
				<polyline style="fill:#EAE4C5;" points="22.256,85.209 2.327,69.828 25.302,76.404 				"/>
			</g>
			<g>
				<path style="fill:#33363A;" d="M22.255,86.709c-0.32,0-0.643-0.102-0.915-0.313L1.411,71.015
					c-0.57-0.439-0.747-1.222-0.423-1.864c0.325-0.642,1.056-0.963,1.752-0.766l22.975,6.576c0.796,0.229,1.257,1.059,1.029,1.855
					c-0.229,0.796-1.056,1.255-1.855,1.029L9.442,73.424l13.729,10.597c0.656,0.506,0.777,1.448,0.271,2.104
					C23.148,86.508,22.704,86.709,22.255,86.709z"/>
			</g>
		</g>
	</g>
	<g>
		<g>
			<g>
				<polyline style="fill:#DDD2B1;" points="105.823,85.265 126.021,100.853 102.736,94.187 				"/>
			</g>
			<g>
				<path style="fill:#33363A;" d="M126.021,102.353c-0.137,0-0.275-0.019-0.413-0.058l-23.284-6.666
					c-0.796-0.229-1.257-1.059-1.029-1.855c0.228-0.796,1.055-1.254,1.855-1.029l15.755,4.511l-13.997-10.803
					c-0.656-0.506-0.777-1.448-0.271-2.104c0.506-0.657,1.448-0.777,2.104-0.271l20.197,15.588c0.57,0.439,0.747,1.222,0.423,1.864
					C127.099,102.045,126.575,102.353,126.021,102.353z"/>
			</g>
		</g>
		<g>
			<g>
				<polyline style="fill:#DDD2B1;" points="21.697,85.265 1.5,100.853 24.783,94.187 				"/>
			</g>
			<g>
				<path style="fill:#33363A;" d="M1.5,102.353c-0.555,0-1.078-0.309-1.339-0.823c-0.324-0.643-0.147-1.425,0.423-1.864
					l20.197-15.588c0.655-0.506,1.597-0.385,2.104,0.271c0.506,0.655,0.385,1.598-0.271,2.104L8.617,97.255l15.753-4.511
					c0.792-0.226,1.627,0.233,1.855,1.029c0.228,0.797-0.233,1.627-1.029,1.855l-23.283,6.666
					C1.775,102.335,1.637,102.353,1.5,102.353z"/>
			</g>
		</g>
	</g>
	<g>
		<g>
			<g>
				<polyline style="fill:#EAE4C5;" points="88.39,44.275 89.026,19.111 79.636,41.086 				"/>
			</g>
			<g>
				<path style="fill:#33363A;" d="M88.391,45.775c-0.013,0-0.026,0-0.039,0c-0.828-0.021-1.482-0.71-1.462-1.538l0.439-17.336
					l-6.314,14.774c-0.325,0.761-1.204,1.119-1.969,0.789c-0.762-0.325-1.115-1.207-0.789-1.969l9.391-21.975
					c0.282-0.661,1.004-1.029,1.698-0.876c0.703,0.153,1.198,0.784,1.181,1.504L89.89,44.313
					C89.868,45.128,89.201,45.775,88.391,45.775z"/>
			</g>
		</g>
		<g>
			<g>
				<polyline style="fill:#EAE4C5;" points="39.129,44.275 38.492,19.111 47.883,41.086 				"/>
			</g>
			<g>
				<path style="fill:#33363A;" d="M39.128,45.775c-0.811,0-1.478-0.646-1.499-1.462l-0.637-25.164
					c-0.018-0.72,0.478-1.351,1.181-1.504c0.696-0.154,1.416,0.215,1.698,0.876l9.391,21.975c0.326,0.762-0.027,1.644-0.789,1.969
					c-0.765,0.33-1.644-0.028-1.969-0.789L40.19,26.901l0.439,17.336c0.021,0.828-0.634,1.517-1.462,1.538
					C39.154,45.775,39.141,45.775,39.128,45.775z"/>
			</g>
		</g>
	</g>
	<g>
		<g>
			<path style="fill:#FFD039;" d="M79.294,49.076c0,7.258-5.887,13.143-13.145,13.143h-4.778c-7.26,0-13.145-5.885-13.145-13.143
				V26.074c0-7.26,5.885-13.146,13.145-13.146h4.778c7.258,0,13.145,5.887,13.145,13.146V49.076z"/>
		</g>
		<g>
			<path style="fill:#FFB000;" d="M66.149,20.537h-4.778c-7.26,0-13.145,5.887-13.145,13.147v15.392
				c0,7.258,5.885,13.143,13.145,13.143h4.778c7.258,0,13.145-5.885,13.145-13.143V33.683
				C79.294,26.423,73.407,20.537,66.149,20.537z"/>
		</g>
		<g>
			<path style="fill:#EA7B1F;" d="M78.103,26.57c0,0.91-0.737,1.648-1.646,1.648h-26.53c-0.909,0-1.646-0.738-1.646-1.648l0,0
				c0-0.908,0.737-1.646,1.646-1.646h26.53C77.365,24.923,78.103,25.662,78.103,26.57L78.103,26.57z"/>
		</g>
		<g>
			<path style="fill:#EA7B1F;" d="M78.103,35.269c0,0.91-0.737,1.648-1.646,1.648h-26.53c-0.909,0-1.646-0.738-1.646-1.648l0,0
				c0-0.908,0.737-1.646,1.646-1.646h26.53C77.365,33.623,78.103,34.361,78.103,35.269L78.103,35.269z"/>
		</g>
		<g>
			<path style="fill:#EA7B1F;" d="M78.103,44.796c0,0.91-0.737,1.649-1.646,1.649h-26.53c-0.909,0-1.646-0.738-1.646-1.649l0,0
				c0-0.908,0.737-1.646,1.646-1.646h26.53C77.365,43.15,78.103,43.888,78.103,44.796L78.103,44.796z"/>
		</g>
		<g>
			<path style="fill:#EA7B1F;" d="M78.103,54.324c0,0.91-0.737,1.648-1.646,1.648h-26.53c-0.909,0-1.646-0.738-1.646-1.648l0,0
				c0-0.908,0.737-1.646,1.646-1.646h26.53C77.365,52.677,78.103,53.416,78.103,54.324L78.103,54.324z"/>
		</g>
		<g>
			<path style="fill:#33363A;" d="M66.149,63.718h-4.778c-8.075,0-14.645-6.568-14.645-14.643V26.074
				c0-8.076,6.569-14.646,14.645-14.646h4.778c8.075,0,14.645,6.57,14.645,14.646v23.002C80.794,57.15,74.225,63.718,66.149,63.718z
				 M61.371,14.427c-6.421,0-11.645,5.225-11.645,11.646v23.002c0,6.42,5.224,11.643,11.645,11.643h4.778
				c6.421,0,11.645-5.223,11.645-11.643V26.074c0-6.422-5.224-11.646-11.645-11.646H61.371z"/>
		</g>
	</g>
	<g>
		<g>
			<g>
				<g>
					<path style="fill:#33363A;" d="M54.947,25.595h-0.953c-0.828,0-1.5-0.672-1.5-1.5s0.672-1.5,1.5-1.5h0.953
						c0.828,0,1.5,0.672,1.5,1.5S55.775,25.595,54.947,25.595z"/>
				</g>
				<g>
					<path style="fill:#33363A;" d="M73.525,25.595h-0.952c-0.828,0-1.5-0.672-1.5-1.5s0.672-1.5,1.5-1.5h0.952
						c0.828,0,1.5,0.672,1.5,1.5S74.354,25.595,73.525,25.595z"/>
				</g>
			</g>
			<g>
				<path style="fill:#33363A;" d="M67.929,25.595h-8.337c-0.828,0-1.5-0.672-1.5-1.5s0.672-1.5,1.5-1.5h8.337
					c0.828,0,1.5,0.672,1.5,1.5S68.757,25.595,67.929,25.595z"/>
			</g>
		</g>
		<g>
			<g>
				<g>
					<path style="fill:#33363A;" d="M54.947,35.123h-0.953c-0.828,0-1.5-0.672-1.5-1.5s0.672-1.5,1.5-1.5h0.953
						c0.828,0,1.5,0.672,1.5,1.5S55.775,35.123,54.947,35.123z"/>
				</g>
				<g>
					<path style="fill:#33363A;" d="M73.525,35.123h-0.952c-0.828,0-1.5-0.672-1.5-1.5s0.672-1.5,1.5-1.5h0.952
						c0.828,0,1.5,0.672,1.5,1.5S74.354,35.123,73.525,35.123z"/>
				</g>
			</g>
			<g>
				<path style="fill:#33363A;" d="M67.929,35.123h-8.337c-0.828,0-1.5-0.672-1.5-1.5s0.672-1.5,1.5-1.5h8.337
					c0.828,0,1.5,0.672,1.5,1.5S68.757,35.123,67.929,35.123z"/>
			</g>
		</g>
		<g>
			<g>
				<g>
					<path style="fill:#33363A;" d="M54.947,44.65h-0.953c-0.828,0-1.5-0.672-1.5-1.5s0.672-1.5,1.5-1.5h0.953
						c0.828,0,1.5,0.672,1.5,1.5S55.775,44.65,54.947,44.65z"/>
				</g>
				<g>
					<path style="fill:#33363A;" d="M73.525,44.65h-0.952c-0.828,0-1.5-0.672-1.5-1.5s0.672-1.5,1.5-1.5h0.952
						c0.828,0,1.5,0.672,1.5,1.5S74.354,44.65,73.525,44.65z"/>
				</g>
			</g>
			<g>
				<path style="fill:#33363A;" d="M67.929,44.65h-8.337c-0.828,0-1.5-0.672-1.5-1.5s0.672-1.5,1.5-1.5h8.337
					c0.828,0,1.5,0.672,1.5,1.5S68.757,44.65,67.929,44.65z"/>
			</g>
		</g>
		<g>
			<g>
				<g>
					<path style="fill:#33363A;" d="M54.947,54.177h-0.953c-0.828,0-1.5-0.672-1.5-1.5s0.672-1.5,1.5-1.5h0.953
						c0.828,0,1.5,0.672,1.5,1.5S55.775,54.177,54.947,54.177z"/>
				</g>
				<g>
					<path style="fill:#33363A;" d="M73.525,54.177h-0.952c-0.828,0-1.5-0.672-1.5-1.5s0.672-1.5,1.5-1.5h0.952
						c0.828,0,1.5,0.672,1.5,1.5S74.354,54.177,73.525,54.177z"/>
				</g>
			</g>
			<g>
				<path style="fill:#33363A;" d="M67.929,54.177h-8.337c-0.828,0-1.5-0.672-1.5-1.5s0.672-1.5,1.5-1.5h8.337
					c0.828,0,1.5,0.672,1.5,1.5S68.757,54.177,67.929,54.177z"/>
			</g>
		</g>
	</g>
	<path style="fill:#33363A;" d="M84.636,86.423c-0.828,0-1.5,0.672-1.5,1.5s0.672,1.5,1.5,1.5c1.103,0,2,0.897,2,2s-0.897,2-2,2
		H42.883c-1.103,0-2-0.897-2-2s0.897-2,2-2c0.828,0,1.5-0.672,1.5-1.5s-0.672-1.5-1.5-1.5c-2.757,0-5,2.243-5,5s2.243,5,5,5h1.127
		v1.67c0,0.828,0.672,1.5,1.5,1.5s1.5-0.672,1.5-1.5v-1.67h33.5v1.67c0,0.828,0.672,1.5,1.5,1.5s1.5-0.672,1.5-1.5v-1.67h1.126
		c2.757,0,5-2.243,5-5S87.393,86.423,84.636,86.423z"/>
</g>
<g>
</g>
<g>
</g>
<g>
</g>
<g>
</g>
<g>
</g>
<g>
</g>
<g>
</g>
<g>
</g>
<g>
</g>
<g>
</g>
<g>
</g>
<g>
</g>
<g>
</g>
<g>
</g>
<g>
</g>
</svg>
