<?xml version="1.0" encoding="iso-8859-1"?>
<!-- Generator: Adobe Illustrator 19.0.0, SVG Export Plug-In . SVG Version: 6.00 Build 0)  -->
<svg version="1.1" id="Layer_1" xmlns="http://www.w3.org/2000/svg" xmlns:xlink="http://www.w3.org/1999/xlink" x="0px" y="0px"
	 viewBox="0 0 127.924 127.924" style="enable-background:new 0 0 127.924 127.924;" xml:space="preserve">
<g>
	<g>
		<path style="fill:#A962E8;" d="M39.244,36.14c0,13.918,1.373,22.463-12.545,22.463S1.5,47.321,1.5,33.403
			S12.781,8.202,26.699,8.202S39.244,22.222,39.244,36.14z"/>
	</g>
	<g>
		<path style="fill:#8B4FE0;" d="M1.5,33.403c0,12.906,9.703,23.539,22.213,25.016c10.521-1.287,9.379-9.523,9.379-22.279
			c0-12.9,1.168-25.879-9.74-27.709C11.018,10.069,1.5,20.62,1.5,33.403z"/>
	</g>
	<g>
		<path style="fill:#E2CBAA;" d="M20.391,38.222c0,13.918,20.227,20.381,6.309,20.381S1.5,47.321,1.5,33.403
			S12.781,8.202,26.699,8.202S20.391,24.304,20.391,38.222z"/>
	</g>
	<g>
		<path style="fill:#F2EAC9;" d="M9.195,38.222c0-11.846,14.639-25.268,10.418-29.002C9.147,12.282,1.5,21.946,1.5,33.403
			c0,11.678,7.945,21.496,18.723,24.356C21.898,55.603,9.195,49.259,9.195,38.222z"/>
	</g>
	<path style="fill:#33363A;" d="M40.744,36.14c0-1.15,0.009-2.301,0.019-3.444c0.075-9.174,0.146-17.84-4.551-22.575
		c-2.031-2.048-4.843-3.174-8.358-3.376c-0.366-0.027-0.749-0.042-1.155-0.042C11.977,6.702,0,18.681,0,33.403
		c0,14.722,11.977,26.699,26.699,26.699c1.273,0,2.363-0.044,3.267-0.182c3.272-0.384,5.659-1.399,7.37-3.125
		c3.545-3.577,3.493-9.6,3.427-17.226C40.754,38.468,40.744,37.323,40.744,36.14z M3,33.403C3,20.334,13.631,9.702,26.699,9.702
		c0.316,0,0.616,0.015,0.916,0.03c1.83,0.125,2.266,0.613,2.36,0.778c0.729,1.277-1.824,5.594-3.875,9.062
		c-3.212,5.431-7.209,12.189-7.209,18.65c0,7.555,5.283,12.899,8.778,16.436c0.748,0.756,1.629,1.647,2.104,2.253
		c-0.089,0.017-0.196,0.033-0.312,0.05c-0.844,0.094-1.762,0.143-2.761,0.143C13.631,57.103,3,46.471,3,33.403z M37.764,39.597
		c0.063,7.198,0.108,12.398-2.558,15.087c-0.617,0.623-1.41,1.121-2.379,1.502c-0.489-1.066-1.606-2.202-3.025-3.638
		c-3.15-3.188-7.912-8.004-7.912-14.326c0-5.64,3.766-12.008,6.792-17.124c2.29-3.872,4.219-7.136,4.388-9.703
		c0.359,0.253,0.702,0.526,1.011,0.838c3.817,3.849,3.751,11.907,3.682,20.438c-0.01,1.151-0.019,2.311-0.019,3.469
		C37.744,37.332,37.754,38.485,37.764,39.597z"/>
	<g>
		<path style="fill:#A962E8;" d="M88.68,36.14c0,13.918-1.373,22.463,12.545,22.463s25.199-11.281,25.199-25.199
			S115.143,8.202,101.225,8.202S88.68,22.222,88.68,36.14z"/>
	</g>
	<g>
		<path style="fill:#8B4FE0;" d="M126.424,33.403c0,12.906-9.703,23.539-22.213,25.016c-10.522-1.287-9.379-9.523-9.379-22.279
			c0-12.9-1.168-25.879,9.74-27.709C116.906,10.069,126.424,20.62,126.424,33.403z"/>
	</g>
	<g>
		<path style="fill:#E2CBAA;" d="M107.533,38.222c0,13.918-20.227,20.381-6.309,20.381s25.199-11.281,25.199-25.199
			S115.143,8.202,101.225,8.202S107.533,24.304,107.533,38.222z"/>
	</g>
	<g>
		<path style="fill:#F2EAC9;" d="M118.729,38.222c0-11.846-14.639-25.268-10.418-29.002c10.467,3.063,18.113,12.727,18.113,24.184
			c0,11.678-7.945,21.496-18.723,24.356C106.025,55.603,118.729,49.259,118.729,38.222z"/>
	</g>
	<g>
		<path style="fill:#33363A;" d="M101.225,60.103c-3.428,0-5.544-0.315-6.218-1.928c-0.727-1.74,0.801-3.287,3.115-5.627
			c3.15-3.188,7.912-8.004,7.912-14.326c0-5.64-3.766-12.008-6.792-17.124c-3.068-5.187-5.491-9.283-3.898-12.074
			c0.891-1.563,2.814-2.321,5.881-2.321c0.829,0,1.5,0.672,1.5,1.5s-0.671,1.5-1.5,1.5c-2.612,0-3.167,0.618-3.275,0.808
			c-0.729,1.277,1.824,5.594,3.875,9.062c3.212,5.431,7.209,12.189,7.209,18.65c0,7.555-5.283,12.899-8.778,16.436
			c-0.748,0.756-1.629,1.647-2.104,2.253c0.51,0.096,1.431,0.192,3.073,0.192c0.829,0,1.5,0.672,1.5,1.5
			S102.053,60.103,101.225,60.103z"/>
	</g>
	<g>
		<path style="fill:#33363A;" d="M101.225,60.103c-5.021,0-8.401-1.051-10.638-3.307c-3.545-3.577-3.493-9.6-3.427-17.226
			c0.01-1.103,0.02-2.247,0.02-3.431c0-1.15-0.009-2.301-0.019-3.444c-0.075-9.174-0.146-17.84,4.551-22.575
			c2.25-2.269,5.45-3.418,9.512-3.418c14.722,0,26.699,11.979,26.699,26.701C127.924,48.125,115.947,60.103,101.225,60.103z
			 M101.225,9.702c-3.279,0-5.693,0.828-7.382,2.53c-3.817,3.849-3.751,11.907-3.682,20.438c0.01,1.151,0.019,2.311,0.019,3.469
			c0,1.192-0.01,2.346-0.02,3.457c-0.063,7.198-0.108,12.398,2.558,15.087c1.613,1.628,4.396,2.419,8.507,2.419
			c13.068,0,23.699-10.632,23.699-23.699C124.924,20.334,114.292,9.702,101.225,9.702z"/>
	</g>
	<g>
		<g>
			<path style="fill:#BC7DFF;" d="M113.171,78.862c0,20.676-22.032,37.441-49.209,37.441c-27.178,0-49.209-16.766-49.209-37.441
				c0-20.68,22.031-45.459,49.209-45.459C91.139,33.403,113.171,58.183,113.171,78.862z"/>
		</g>
		<g>
			<path style="fill:#A962E8;" d="M113.171,78.862c0,20.676-22.032,37.441-49.209,37.441c-27.178,0-49.209-16.766-49.209-37.441
				c0-20.68,22.031-34.928,49.209-34.928C91.139,43.935,113.171,58.183,113.171,78.862z"/>
		</g>
		<g>
			<path style="fill:#F2EAC9;" d="M113.171,78.862c0,20.676-22.032,37.441-49.209,37.441c-27.178,0-49.209-16.766-49.209-37.441
				c0-20.682,6.261,18.34,49.209,18.34S113.171,58.181,113.171,78.862z"/>
		</g>
		<g>
			<path style="fill:#FFFBEB;" d="M63.962,105.202c-38.648,0-47.585-31.59-48.988-22.848c2.316,19.037,23.359,33.949,48.988,33.949
				c25.628,0,46.672-14.912,48.988-33.949C111.547,73.612,102.609,105.202,63.962,105.202z"/>
		</g>
		<g>
			<path style="fill:#33363A;" d="M63.962,117.804c-27.961,0-50.709-17.469-50.709-38.941c0-4.729,0.262-6.806,1.889-7.416
				c1.686-0.631,2.961,0.827,5.505,3.735c5.827,6.66,17.952,20.521,43.315,20.521s37.488-13.86,43.315-20.521
				c2.544-2.908,3.823-4.365,5.505-3.735c1.626,0.61,1.889,2.687,1.889,7.416C114.671,100.335,91.923,117.804,63.962,117.804z
				 M16.399,74.954c-0.081,0.726-0.146,1.926-0.146,3.908c0,19.818,21.402,35.941,47.709,35.941s47.709-16.123,47.709-35.941
				c0-1.982-0.065-3.183-0.146-3.908c-0.568,0.577-1.307,1.422-1.99,2.202c-6.118,6.994-18.848,21.546-45.573,21.546
				S24.506,84.15,18.389,77.156C17.706,76.376,16.967,75.531,16.399,74.954z"/>
		</g>
		<g>
			<path style="fill:#33363A;" d="M63.962,117.804c-27.961,0-50.709-17.469-50.709-38.941c0-21.27,22.62-46.959,50.709-46.959
				s50.709,25.689,50.709,46.959C114.671,100.335,91.923,117.804,63.962,117.804z M63.962,34.903
				c-26.428,0-47.709,24.048-47.709,43.959c0,19.818,21.402,35.941,47.709,35.941s47.709-16.123,47.709-35.941
				C111.671,58.951,90.39,34.903,63.962,34.903z"/>
		</g>
	</g>
	<g>
		<path style="fill:#A5145D;" d="M47.8,84.134c0,4.449-3.605,8.051-8.052,8.051c-4.447,0-8.051-3.602-8.051-8.051
			c0-4.447,3.604-8.051,8.051-8.051C44.194,76.083,47.8,79.687,47.8,84.134z"/>
	</g>
	<path style="fill:#33363A;" d="M39.748,74.583c-5.266,0-9.551,4.284-9.551,9.551s4.285,9.551,9.551,9.551
		c5.267,0,9.552-4.284,9.552-9.551S45.015,74.583,39.748,74.583z M39.748,90.685c-2.721,0-5.058-1.668-6.046-4.034
		c1.475-0.04,3.634-0.853,6.046-0.853c2.412,0,4.572,0.813,6.047,0.853C44.807,89.017,42.469,90.685,39.748,90.685z"/>
	<g>
		<circle style="fill:#FFFFFF;" cx="35.744" cy="81.517" r="3.281"/>
	</g>
	<g>
		<path style="fill:#33363A;" d="M35.743,86.298c-2.636,0-4.78-2.145-4.78-4.781c0-2.636,2.145-4.779,4.78-4.779
			c2.636,0,4.781,2.144,4.781,4.779C40.524,84.153,38.379,86.298,35.743,86.298z M35.743,79.737c-0.981,0-1.78,0.798-1.78,1.779
			c0,0.982,0.799,1.781,1.78,1.781c0.982,0,1.781-0.799,1.781-1.781C37.524,80.535,36.726,79.737,35.743,79.737z"/>
	</g>
	<g>
		<path style="fill:#A5145D;" d="M96.227,84.134c0,4.449-3.604,8.051-8.051,8.051c-4.447,0-8.052-3.602-8.052-8.051
			c0-4.447,3.604-8.051,8.052-8.051C92.622,76.083,96.227,79.687,96.227,84.134z"/>
	</g>
	<g>
		<circle style="fill:#FFFFFF;" cx="84.171" cy="81.517" r="3.28"/>
	</g>
	<path style="fill:#33363A;" d="M88.176,74.583c-3.24,0-6.104,1.625-7.832,4.099c-0.111,0.149-0.207,0.305-0.3,0.466
		c-0.894,1.453-1.42,3.157-1.42,4.985c0,5.267,4.285,9.551,9.552,9.551c5.266,0,9.551-4.284,9.551-9.551
		S93.442,74.583,88.176,74.583z M88.176,90.685c-2.721,0-5.059-1.668-6.047-4.034c0.688-0.018,1.524-0.2,2.467-0.396
		c0.337-0.03,0.661-0.093,0.974-0.19c0.818-0.148,1.693-0.267,2.606-0.267c2.412,0,4.571,0.813,6.046,0.853
		C93.234,89.017,90.897,90.685,88.176,90.685z"/>
	<path style="fill:#FFFFFF;" d="M84.172,79.737c-0.982,0-1.781,0.798-1.781,1.779c0,0.982,0.799,1.781,1.781,1.781
		c0.981,0,1.779-0.799,1.779-1.781C85.951,80.535,85.153,79.737,84.172,79.737z"/>
	<g>
		<polygon style="fill:#D3E0E2;" points="70.238,119.722 57.686,119.722 54.15,104.343 73.773,104.343 		"/>
	</g>
	<g>
		<polygon style="fill:#FFFFFF;" points="70.238,115.097 72.711,104.343 55.213,104.343 57.686,115.097 		"/>
	</g>
	<path style="fill:#33363A;" d="M77.249,95.627c-0.16-0.677-0.764-1.155-1.46-1.155H52.135c-0.696,0-1.3,0.479-1.46,1.155
		c-0.16,0.677,0.167,1.375,0.789,1.687l11.049,5.529H54.15c-0.457,0-0.889,0.208-1.173,0.565s-0.391,0.825-0.289,1.271l3.535,15.379
		c0.157,0.682,0.763,1.164,1.462,1.164h12.553c0.699,0,1.305-0.482,1.462-1.164l3.535-15.379c0.103-0.445-0.004-0.913-0.289-1.271
		s-0.716-0.565-1.173-0.565h-8.364l11.051-5.529C77.083,97.002,77.409,96.304,77.249,95.627z M62.462,118.222H58.88l-2.846-12.379
		h6.428V118.222z M65.462,105.843h6.428l-2.846,12.379h-3.582V105.843z"/>
	<g>
		<polyline style="fill:#FFFBEB;" points="105.466,98.376 125.395,82.995 102.42,89.571 		"/>
	</g>
	<g>
		<path style="fill:#33363A;" d="M105.467,99.876c-0.449,0-0.893-0.2-1.188-0.584c-0.506-0.655-0.385-1.598,0.271-2.104
			l13.729-10.597l-15.446,4.422c-0.797,0.225-1.627-0.233-1.854-1.029c-0.228-0.797,0.233-1.627,1.029-1.855l22.975-6.576
			c0.69-0.197,1.427,0.124,1.751,0.766c0.324,0.643,0.147,1.425-0.422,1.864l-19.929,15.381
			C106.109,99.774,105.787,99.876,105.467,99.876z"/>
	</g>
	<g>
		<polyline style="fill:#FFFBEB;" points="22.458,98.376 2.529,82.995 25.504,89.571 		"/>
	</g>
	<g>
		<path style="fill:#33363A;" d="M22.457,99.876c-0.32,0-0.643-0.102-0.916-0.313L1.613,84.183c-0.57-0.439-0.747-1.222-0.422-1.864
			c0.324-0.642,1.059-0.963,1.751-0.766l22.975,6.576c0.796,0.229,1.257,1.059,1.029,1.855s-1.059,1.255-1.854,1.029L9.645,86.592
			l13.729,10.597c0.656,0.506,0.777,1.448,0.271,2.104C23.35,99.676,22.906,99.876,22.457,99.876z"/>
	</g>
	<g>
		<path style="fill:#BC7DFF;" d="M73.773,87.899c0,2.064-4.393,0.906-9.811,0.906c-5.419,0-9.812,1.158-9.812-0.906
			c0-2.066,4.393-3.74,9.812-3.74C69.381,84.159,73.773,85.833,73.773,87.899z"/>
	</g>
	<g>
		<path style="fill:#33363A;" d="M64.342,68.871c-2.775,0-5.481-0.848-7.804-2.473c-2.993-2.094-4.991-5.229-5.626-8.826
			c-1.077-6.099,3.009-11.94,9.107-13.022c5.053-0.891,9.881,2.49,10.772,7.532c0.144,0.815-0.4,1.594-1.216,1.738
			c-0.815,0.145-1.594-0.4-1.738-1.217c-0.604-3.414-3.881-5.711-7.296-5.1c-4.469,0.793-7.465,5.076-6.675,9.547
			c0.496,2.808,2.056,5.255,4.392,6.89c2.336,1.634,5.167,2.257,7.972,1.764c3.609-0.638,6.753-2.642,8.853-5.645
			s2.906-6.643,2.269-10.251c-1.683-9.51-10.79-15.88-20.299-14.199c-0.812,0.145-1.594-0.4-1.738-1.217
			c-0.144-0.815,0.4-1.594,1.216-1.738c11.14-1.962,21.804,5.492,23.775,16.632c0.776,4.397-0.205,8.834-2.764,12.492
			c-2.56,3.66-6.392,6.104-10.789,6.88C65.948,68.8,65.142,68.871,64.342,68.871z"/>
	</g>
</g>
<g>
</g>
<g>
</g>
<g>
</g>
<g>
</g>
<g>
</g>
<g>
</g>
<g>
</g>
<g>
</g>
<g>
</g>
<g>
</g>
<g>
</g>
<g>
</g>
<g>
</g>
<g>
</g>
<g>
</g>
</svg>
