<?xml version="1.0" encoding="iso-8859-1"?>
<!-- Generator: Adobe Illustrator 19.0.0, SVG Export Plug-In . SVG Version: 6.00 Build 0)  -->
<svg version="1.1" id="Layer_1" xmlns="http://www.w3.org/2000/svg" xmlns:xlink="http://www.w3.org/1999/xlink" x="0px" y="0px"
	 viewBox="0 0 127.203 127.203" style="enable-background:new 0 0 127.203 127.203;" xml:space="preserve">
<g>
	<g>
		<path style="fill:#91EA57;" d="M95.275,117.678c-8.547,5.938-19.053,6.906-28.129,3.555c0.023-9.676,4.596-19.186,13.143-25.123
			c8.547-5.939,19.055-6.908,28.129-3.555C108.396,102.229,103.822,111.738,95.275,117.678z"/>
	</g>
	<g>
		<path style="fill:#34C166;" d="M108.418,92.555c-0.021,9.674-4.596,19.184-13.143,25.123c-8.547,5.938-19.053,6.906-28.129,3.555"
			/>
	</g>
	<path style="fill:#33363A;" d="M108.938,91.147c-9.866-3.646-20.897-2.253-29.504,3.73c-8.389,5.828-13.483,15.335-13.761,25.553
		l-2.378,1.652c-0.681,0.473-0.849,1.407-0.376,2.087c0.291,0.42,0.758,0.645,1.232,0.645c0.296,0,0.594-0.087,0.854-0.269
		l2.372-1.648c3.399,1.161,6.921,1.74,10.427,1.74c6.473,0,12.885-1.947,18.326-5.729c0,0,0,0,0.001,0
		c8.609-5.982,13.763-15.834,13.786-26.352C109.919,91.929,109.528,91.366,108.938,91.147z M81.146,97.341
		c6.983-4.852,15.725-6.368,23.897-4.265L68.812,118.25C69.693,109.855,74.163,102.192,81.146,97.341z M94.419,116.446
		L94.419,116.446c-6.981,4.849-15.719,6.366-23.895,4.265l36.229-25.173C105.873,103.93,101.403,111.593,94.419,116.446z"/>
	<g>
		<path style="fill:#91EA57;" d="M31.928,117.678c8.549,5.938,19.055,6.906,28.129,3.555c-0.021-9.676-4.596-19.186-13.143-25.123
			c-8.547-5.939-19.055-6.908-28.129-3.555C18.809,102.229,23.381,111.738,31.928,117.678z"/>
	</g>
	<g>
		<path style="fill:#34C166;" d="M18.785,92.555c0.023,9.674,4.596,19.184,13.143,25.123c8.549,5.938,19.055,6.906,28.129,3.555"/>
	</g>
	<path style="fill:#33363A;" d="M63.908,122.083l-2.378-1.652c-0.276-10.217-5.37-19.725-13.76-25.553
		c-8.609-5.982-19.639-7.377-29.505-3.73c-0.591,0.219-0.982,0.781-0.98,1.411c0.025,10.519,5.18,20.369,13.786,26.351
		c0.001,0,0.001,0,0.001,0.001c5.443,3.78,11.854,5.728,18.327,5.728c3.505,0,7.029-0.579,10.426-1.74l2.372,1.648
		c0.261,0.182,0.559,0.269,0.854,0.269c0.475,0,0.941-0.225,1.232-0.645C64.757,123.49,64.589,122.556,63.908,122.083z
		 M46.059,97.341c6.984,4.852,11.454,12.516,12.333,20.909L22.16,93.075C30.332,90.971,39.075,92.487,46.059,97.341z
		 M32.783,116.445L32.783,116.445c-6.981-4.851-11.451-12.514-12.333-20.906l36.229,25.173
		C48.509,122.812,39.767,121.297,32.783,116.445z"/>
	<g>
		<g>
			<path style="fill:#663C17;" d="M59.65,125.703V79.787c0-2.182,1.768-3.951,3.951-3.951l0,0c2.184,0,3.953,1.77,3.953,3.951
				v45.916"/>
		</g>
		<g>
			<path style="fill:#33363A;" d="M67.555,127.203c-0.828,0-1.5-0.672-1.5-1.5V79.787c0-1.352-1.101-2.451-2.453-2.451
				c-1.352,0-2.451,1.1-2.451,2.451v45.916c0,0.828-0.672,1.5-1.5,1.5s-1.5-0.672-1.5-1.5V79.787c0-3.006,2.445-5.451,5.451-5.451
				c3.007,0,5.453,2.445,5.453,5.451v45.916C69.055,126.531,68.383,127.203,67.555,127.203z"/>
		</g>
	</g>
	<g>
		<g>
			<path style="fill:#FFFCC0;" d="M112.811,46.959c0,20.676-22.031,37.441-49.209,37.441S14.393,67.635,14.393,46.959
				c0-20.68,22.031-45.459,49.209-45.459S112.811,26.279,112.811,46.959z"/>
		</g>
		<g>
			<path style="fill:#FFF800;" d="M112.811,46.959c0,20.676-22.031,37.441-49.209,37.441S14.393,67.635,14.393,46.959
				c0-20.68,22.031-34.928,49.209-34.928S112.811,26.279,112.811,46.959z"/>
		</g>
		<g>
			<path style="fill:#FFFCC0;" d="M74.08,63.586c0,1.393-4.691,1.643-10.477,1.643c-5.787,0-10.479-0.25-10.479-1.643
				c0-1.395,4.691-5.037,10.479-5.037C69.389,58.549,74.08,62.191,74.08,63.586z"/>
		</g>
		<g>
			<path style="fill:#EADF11;" d="M112.811,46.959c0,20.676-22.031,37.441-49.209,37.441S14.393,67.635,14.393,46.959
				c0-20.682,6.262,18.34,49.209,18.34S112.811,26.277,112.811,46.959z"/>
		</g>
		<g>
			<path style="fill:#33363A;" d="M63.602,85.9c-27.961,0-50.709-17.469-50.709-38.941C12.893,25.689,35.512,0,63.602,0
				s50.709,25.689,50.709,46.959C114.311,68.432,91.563,85.9,63.602,85.9z M63.602,3C37.174,3,15.893,27.048,15.893,46.959
				c0,19.818,21.402,35.941,47.709,35.941s47.709-16.123,47.709-35.941C111.311,27.048,90.029,3,63.602,3z"/>
		</g>
	</g>
	<g>
		<path style="fill:#6D5C4D;" d="M47.439,50.826c0,4.449-3.605,8.051-8.053,8.051c-4.445,0-8.051-3.602-8.051-8.051
			c0-4.447,3.605-8.051,8.051-8.051C43.834,42.775,47.439,46.379,47.439,50.826z"/>
	</g>
	<g>
		<circle style="fill:#FFFFFF;" cx="35.384" cy="48.209" r="3.28"/>
	</g>
	<path style="fill:#33363A;" d="M39.387,41.275c-3.243,0-6.11,1.628-7.837,4.107c-0.106,0.143-0.198,0.294-0.288,0.448
		c-0.898,1.456-1.426,3.163-1.426,4.996c0,5.267,4.284,9.551,9.551,9.551c5.268,0,9.553-4.284,9.553-9.551
		S44.654,41.275,39.387,41.275z M39.387,57.377c-2.721,0-5.058-1.668-6.046-4.034c0.688-0.018,1.525-0.2,2.469-0.396
		c0.336-0.03,0.659-0.093,0.971-0.19c0.819-0.148,1.693-0.267,2.606-0.267c2.413,0,4.572,0.813,6.048,0.853
		C44.446,55.709,42.108,57.377,39.387,57.377z"/>
	<circle style="fill:#FFFFFF;" cx="35.383" cy="48.21" r="1.78"/>
	<g>
		<path style="fill:#6D5C4D;" d="M95.867,50.826c0,4.449-3.605,8.051-8.051,8.051c-4.447,0-8.053-3.602-8.053-8.051
			c0-4.447,3.605-8.051,8.053-8.051C92.262,42.775,95.867,46.379,95.867,50.826z"/>
	</g>
	<g>
		<circle style="fill:#FFFFFF;" cx="83.812" cy="48.209" r="3.28"/>
	</g>
	<path style="fill:#33363A;" d="M87.816,41.275c-3.242,0-6.108,1.626-7.835,4.102c-0.108,0.146-0.202,0.299-0.294,0.457
		c-0.897,1.455-1.424,3.161-1.424,4.992c0,5.267,4.285,9.551,9.553,9.551c5.267,0,9.551-4.284,9.551-9.551
		S93.083,41.275,87.816,41.275z M87.816,57.377c-2.721,0-5.059-1.668-6.048-4.034c0.689-0.018,1.526-0.2,2.47-0.396
		c0.335-0.03,0.657-0.093,0.968-0.189c0.82-0.148,1.695-0.268,2.61-0.268c2.412,0,4.571,0.813,6.046,0.853
		C92.874,55.709,90.537,57.377,87.816,57.377z"/>
	<circle style="fill:#FFFFFF;" cx="83.811" cy="48.21" r="1.78"/>
	<g>
		<path style="fill:#E8A113;" d="M85.477,86.639c0,2.209-1.789,4-4,4h-35.75c-2.209,0-4-1.791-4-4V67.566c0-2.209,1.791-4,4-4h35.75
			c2.211,0,4,1.791,4,4V86.639z"/>
	</g>
	<g>
		<path style="fill:#C68510;" d="M81.477,69.26h-35.75c-2.209,0-4,1.791-4,4v13.379c0,2.209,1.791,4,4,4h35.75c2.211,0,4-1.791,4-4
			V73.26C85.477,71.051,83.687,69.26,81.477,69.26z"/>
	</g>
	<g>
		<path style="fill:#33363A;" d="M81.477,92.139h-35.75c-3.032,0-5.5-2.468-5.5-5.5V67.566c0-3.032,2.468-5.5,5.5-5.5h35.75
			c3.032,0,5.5,2.468,5.5,5.5v19.072C86.977,89.671,84.509,92.139,81.477,92.139z M45.727,65.066c-1.379,0-2.5,1.121-2.5,2.5v19.072
			c0,1.379,1.121,2.5,2.5,2.5h35.75c1.379,0,2.5-1.121,2.5-2.5V67.566c0-1.379-1.121-2.5-2.5-2.5H45.727z"/>
	</g>
	<g>
		<g>
			<path style="fill:#965514;" d="M76.193,82.316c0,1.158-0.938,2.098-2.098,2.098H53.107c-1.158,0-2.098-0.939-2.098-2.098V72.311
				c0-1.158,0.939-2.098,2.098-2.098h20.988c1.16,0,2.098,0.939,2.098,2.098V82.316z"/>
		</g>
		<g>
			<path style="fill:#663C17;" d="M74.096,70.213H53.107c-1.158,0-2.098,0.939-2.098,2.098v3.551c0,1.158,0.939,2.098,2.098,2.098
				h20.988c1.16,0,2.098-0.939,2.098-2.098v-3.551C76.193,71.152,75.256,70.213,74.096,70.213z"/>
		</g>
		<g>
			<path style="fill:#33363A;" d="M74.096,85.914H53.107c-1.983,0-3.598-1.614-3.598-3.598V72.311c0-1.983,1.614-3.598,3.598-3.598
				h20.988c1.983,0,3.598,1.614,3.598,3.598v10.006C77.693,84.3,76.079,85.914,74.096,85.914z M53.107,71.713
				c-0.329,0-0.598,0.269-0.598,0.598v10.006c0,0.329,0.269,0.598,0.598,0.598h20.988c0.329,0,0.598-0.269,0.598-0.598V72.311
				c0-0.329-0.269-0.598-0.598-0.598H53.107z"/>
		</g>
	</g>
</g>
<g>
</g>
<g>
</g>
<g>
</g>
<g>
</g>
<g>
</g>
<g>
</g>
<g>
</g>
<g>
</g>
<g>
</g>
<g>
</g>
<g>
</g>
<g>
</g>
<g>
</g>
<g>
</g>
<g>
</g>
</svg>
