<?xml version="1.0" encoding="iso-8859-1"?>
<!-- Generator: Adobe Illustrator 19.0.0, SVG Export Plug-In . SVG Version: 6.00 Build 0)  -->
<svg version="1.1" id="Layer_1" xmlns="http://www.w3.org/2000/svg" xmlns:xlink="http://www.w3.org/1999/xlink" x="0px" y="0px"
	 viewBox="0 0 128.041 128.041" style="enable-background:new 0 0 128.041 128.041;" xml:space="preserve">
<g>
	<g>
		<g>
			<path style="fill:#43B530;" d="M112.767,38.491c18.363,18.363,18.365,35.658,0.002,54.022c-18.365,18.367-79.133,18.365-97.496,0
				c-18.363-18.363-18.365-35.658,0-54.022C63.82-10.057,64.22-10.057,112.767,38.491z"/>
		</g>
		<g>
			<path style="fill:#107510;" d="M15.273,45.116C7.228,53.159,2.708,60.999,1.712,68.814c0.996,7.814,5.516,15.654,13.561,23.699
				c18.363,18.365,79.131,18.367,97.496,0c8.043-8.043,12.563-15.883,13.559-23.697c-0.996-7.814-5.516-15.654-13.56-23.699
				C64.22-3.432,63.82-3.432,15.273,45.116z"/>
		</g>
		<g>
			<path style="fill:#1A8E1C;" d="M15.273,45.116c-5.006,5.004-8.645,9.93-10.92,14.818c2.275,4.891,5.915,9.816,10.92,14.82
				c18.363,18.365,79.131,18.367,97.496,0c5.004-5.004,8.643-9.93,10.919-14.818c-2.276-4.891-5.916-9.816-10.921-14.82
				C64.22-3.432,63.82-3.432,15.273,45.116z"/>
		</g>
		<g>
			<path style="fill:#33363A;" d="M64.022,107.787c-0.001,0,0,0-0.002,0c-21.956,0-41.042-5.446-49.808-14.214
				C4.649,84.01,0,74.828,0,65.502c0-9.326,4.648-18.509,14.212-28.071C38.747,12.895,51.062,0.58,64.02,0.58
				s25.273,12.314,49.808,36.851c9.563,9.563,14.212,18.745,14.213,28.071s-4.648,18.509-14.211,28.071
				C105.063,102.341,85.977,107.787,64.022,107.787z M64.02,3.58c-11.716,0-24.492,12.776-47.687,35.972
				C7.361,48.524,3,57.012,3,65.502c0,8.489,4.361,16.978,13.333,25.95c8.225,8.226,26.497,13.335,47.687,13.335
				c21.19,0.001,39.463-5.109,47.688-13.335c8.972-8.972,13.333-17.46,13.332-25.95c0-8.489-4.362-16.979-13.334-25.95l0,0
				C88.512,16.357,75.736,3.58,64.02,3.58z"/>
		</g>
	</g>
	<g>
		<g>
			<path style="fill:#43B530;" d="M86.844,38.491c8.599,18.363,8.599,35.658,0.001,54.022c-8.599,18.367-37.051,18.365-45.648,0
				c-8.599-18.363-8.6-35.658-0.001-54.022C63.927-10.057,64.114-10.057,86.844,38.491z"/>
		</g>
		<g>
			<path style="fill:#1A8E1C;" d="M43.696,45.116c-3.767,8.043-8.383,15.883-8.849,23.697c0.466,7.814,2.582,15.654,6.35,23.699
				c8.598,18.365,37.05,18.367,45.648,0c3.766-8.043,5.883-15.883,6.349-23.697c-0.466-7.814-5.083-15.654-8.85-23.699
				C61.614-3.432,66.427-3.432,43.696,45.116z"/>
		</g>
		<g>
			<path style="fill:#33363A;" d="M64.021,107.787C64.021,107.787,64.022,107.787,64.021,107.787
				c-10.689,0-19.956-5.609-24.183-14.639c-8.833-18.862-8.833-36.433-0.001-55.293C51.82,12.263,57.291,0.58,64.021,0.58
				c0,0,0,0,0,0c6.73,0,12.199,11.681,24.182,37.275c8.832,18.861,8.833,36.431,0.001,55.293
				C83.977,102.178,74.709,107.787,64.021,107.787z M64.021,3.58c-4.822-0.001-11.087,13.38-21.466,35.547
				c-8.425,17.993-8.425,34.755,0.001,52.75c3.728,7.963,11.954,12.91,21.466,12.91c9.512,0,17.737-4.947,21.465-12.91
				c8.425-17.994,8.424-34.756-0.001-52.75l0,0C75.107,16.96,68.842,3.58,64.021,3.58z"/>
		</g>
	</g>
	<g>
		<path style="fill:#80EDAC;" d="M113.229,88.519c0,20.676-22.032,37.441-49.209,37.441c-27.178,0-49.209-16.766-49.209-37.441
			c0-20.68,22.031-45.459,49.209-45.459C91.197,43.06,113.229,67.839,113.229,88.519z"/>
	</g>
	<g>
		<path style="fill:#6ADB9A;" d="M113.229,88.519c0,20.676-22.032,37.441-49.209,37.441c-27.178,0-49.209-16.766-49.209-37.441
			c0-20.68,22.031-34.928,49.209-34.928C91.197,53.591,113.229,67.839,113.229,88.519z"/>
	</g>
	<g>
		<path style="fill:#80EDAC;" d="M74.457,91.593c0,1.393-4.691,1.643-10.479,1.643S53.5,92.986,53.5,91.593
			c0-1.394,4.691-5.037,10.479-5.037S74.457,90.198,74.457,91.593z"/>
	</g>
	<g>
		<path style="fill:#47C67B;" d="M113.229,88.519c0,20.676-22.032,37.441-49.209,37.441c-27.178,0-49.209-16.766-49.209-37.441
			c0-20.682,6.261,18.34,49.209,18.34S113.229,67.837,113.229,88.519z"/>
	</g>
	<g>
		<path style="fill:#BA503A;" d="M77.603,103.081c0,3.893-6.082,7.047-13.583,7.047s-13.583-3.154-13.583-7.047"/>
	</g>
	<g>
		<path style="fill:#33363A;" d="M64.02,127.46c-27.961,0-50.709-17.469-50.709-38.941c0-21.27,22.62-46.959,50.709-46.959
			s50.709,25.689,50.709,46.959C114.729,109.991,91.981,127.46,64.02,127.46z M64.02,44.56c-26.428,0-47.709,24.048-47.709,43.959
			c0,19.818,21.402,35.941,47.709,35.941s47.709-16.123,47.709-35.941C111.729,68.608,90.448,44.56,64.02,44.56z"/>
	</g>
	<g>
		<path style="fill:#AD2707;" d="M47.858,84.675c0,4.449-3.605,8.051-8.052,8.051c-4.447,0-8.051-3.602-8.051-8.051
			c0-4.447,3.604-8.051,8.051-8.051C44.252,76.624,47.858,80.228,47.858,84.675z"/>
	</g>
	<g>
		<circle style="fill:#FFFFFF;" cx="35.802" cy="82.058" r="3.281"/>
	</g>
	<path style="fill:#33363A;" d="M39.806,75.124c-3.233,0-6.092,1.619-7.82,4.085c-0.119,0.158-0.222,0.325-0.321,0.498
		c-0.888,1.45-1.41,3.147-1.41,4.968c0,5.267,4.285,9.551,9.551,9.551c5.267,0,9.552-4.284,9.552-9.551S45.073,75.124,39.806,75.124
		z M39.806,91.226c-2.721,0-5.058-1.668-6.046-4.034c0.688-0.018,1.525-0.2,2.468-0.396c0.336-0.03,0.659-0.093,0.971-0.19
		c0.819-0.148,1.694-0.267,2.608-0.267c2.413,0,4.572,0.813,6.047,0.853C44.865,89.558,42.527,91.226,39.806,91.226z"/>
	<circle style="fill:#FFFFFF;" cx="35.801" cy="82.059" r="1.78"/>
	<g>
		<path style="fill:#AD2707;" d="M96.285,84.675c0,4.449-3.604,8.051-8.051,8.051c-4.447,0-8.052-3.602-8.052-8.051
			c0-4.447,3.604-8.051,8.052-8.051C92.68,76.624,96.285,80.228,96.285,84.675z"/>
	</g>
	<g>
		<circle style="fill:#FFFFFF;" cx="84.229" cy="82.058" r="3.28"/>
	</g>
	<path style="fill:#33363A;" d="M88.234,75.124c-3.24,0-6.104,1.625-7.832,4.099c-0.111,0.149-0.207,0.305-0.3,0.466
		c-0.894,1.453-1.42,3.157-1.42,4.985c0,5.267,4.285,9.551,9.552,9.551c5.266,0,9.551-4.284,9.551-9.551S93.5,75.124,88.234,75.124z
		 M88.234,91.226c-2.721,0-5.059-1.668-6.047-4.034c0.688-0.018,1.524-0.2,2.467-0.396c0.337-0.03,0.661-0.093,0.974-0.19
		c0.818-0.148,1.693-0.267,2.606-0.267c2.412,0,4.571,0.813,6.046,0.853C93.292,89.558,90.955,91.226,88.234,91.226z"/>
	<path style="fill:#FFFFFF;" d="M84.23,80.279c-0.982,0-1.781,0.798-1.781,1.779c0,0.982,0.799,1.781,1.781,1.781
		c0.981,0,1.779-0.799,1.779-1.781C86.009,81.076,85.211,80.279,84.23,80.279z"/>
	<g>
		<g>
			<path style="fill:#33363A;" d="M61.553,98.216c-0.398,0-0.796-0.157-1.091-0.47l-1.5-1.588c-0.569-0.603-0.542-1.552,0.06-2.121
				c0.603-0.568,1.552-0.542,2.121,0.061l1.5,1.588c0.569,0.603,0.542,1.552-0.06,2.121C62.292,98.08,61.922,98.216,61.553,98.216z"
				/>
		</g>
		<g>
			<path style="fill:#33363A;" d="M66.487,98.216c-0.37,0-0.74-0.136-1.03-0.409c-0.602-0.569-0.629-1.519-0.06-2.121l1.5-1.588
				c0.569-0.602,1.518-0.628,2.121-0.061c0.602,0.569,0.629,1.519,0.06,2.121l-1.5,1.588C67.283,98.059,66.886,98.216,66.487,98.216
				z"/>
		</g>
	</g>
	<g>
		<g>
			<g>
				<path style="fill:#9CFFC4;" d="M33.55,57.243c2.6-1.83,5.369-3.064,8.057-3.723c0.418-2.48,0.033-4.844-1.305-6.744
					c-2.901-4.123-9.328-4.807-15.596-2.104c-4.662,4.988-6.188,11.27-3.287,15.391c1.338,1.902,3.432,3.063,5.909,3.506
					C28.855,61.261,30.952,59.072,33.55,57.243z"/>
			</g>
			<g>
				<path style="fill:#80EDAC;" d="M36.718,49.445c-2.596-3.689-8.016-4.617-13.618-2.836c-3.368,4.598-4.216,9.851-1.681,13.455
					c1.112,1.582,2.751,2.643,4.693,3.213c1.126-1.205,2.656-0.191,4.107-1.213c0.425-0.299,0.607-2.711,1.041-2.979
					c0.718-0.641,1.469-1.264,2.289-1.842c1.499-1.055,3.055-1.889,4.618-2.551C38.236,52.767,37.785,50.956,36.718,49.445z"/>
			</g>
			<g>
				<path style="fill:#33363A;" d="M27.331,65.07c-0.088,0-0.177-0.008-0.266-0.023c-2.975-0.532-5.351-1.957-6.872-4.119
					c-3.271-4.647-1.897-11.591,3.418-17.278c0.141-0.15,0.312-0.271,0.501-0.353c7.148-3.083,14.146-2.03,17.417,2.617
					c1.521,2.16,2.06,4.877,1.557,7.856c-0.137,0.816-0.916,1.36-1.728,1.23c-0.817-0.138-1.368-0.912-1.23-1.729
					c0.368-2.184,0.004-4.131-1.052-5.632c-2.354-3.344-7.867-4.032-13.486-1.712c-4.083,4.506-5.297,9.929-2.944,13.272
					c1.057,1.502,2.767,2.503,4.947,2.893c0.815,0.146,1.358,0.926,1.212,1.741C28.675,64.56,28.043,65.07,27.331,65.07z"/>
			</g>
		</g>
		<g>
			<g>
				<path style="fill:#9CFFC4;" d="M94.49,57.243c-2.601-1.83-5.369-3.064-8.057-3.723c-0.419-2.48-0.034-4.844,1.305-6.744
					c2.9-4.123,9.328-4.807,15.596-2.104c4.661,4.988,6.188,11.27,3.287,15.391c-1.339,1.902-3.432,3.063-5.91,3.506
					C99.185,61.261,97.087,59.072,94.49,57.243z"/>
			</g>
			<g>
				<path style="fill:#80EDAC;" d="M91.322,49.445c2.596-3.689,8.016-4.617,13.617-2.836c3.369,4.598,4.217,9.851,1.682,13.455
					c-1.113,1.582-2.752,2.643-4.693,3.213c-1.127-1.205-2.656-0.191-4.107-1.213c-0.426-0.299-0.607-2.711-1.041-2.979
					c-0.719-0.641-1.469-1.264-2.289-1.842c-1.5-1.055-3.055-1.889-4.619-2.551C89.804,52.767,90.255,50.956,91.322,49.445z"/>
			</g>
			<g>
				<path style="fill:#33363A;" d="M100.708,65.07c-0.712,0-1.345-0.51-1.475-1.236c-0.146-0.815,0.397-1.595,1.212-1.74
					c2.179-0.39,3.89-1.39,4.948-2.893c2.353-3.343,1.138-8.767-2.944-13.272c-5.619-2.32-11.133-1.633-13.485,1.712
					c-1.058,1.501-1.421,3.447-1.053,5.631C88.05,54.088,87.5,54.862,86.683,55c-0.817,0.13-1.591-0.413-1.729-1.229
					c-0.503-2.98,0.035-5.697,1.558-7.858c3.269-4.646,10.269-5.698,17.416-2.616c0.189,0.081,0.36,0.202,0.502,0.353
					c5.314,5.688,6.688,12.632,3.417,17.278c-1.522,2.163-3.898,3.587-6.873,4.119C100.885,65.062,100.796,65.07,100.708,65.07z"/>
			</g>
		</g>
	</g>
	<g>
		<path style="fill:#47C67B;" d="M57.556,69.029c-4.186,0-7.581-3.394-7.581-7.582c0-4.186,5.278-5.697,9.465-5.697
			s5.697,1.512,5.697,5.697C65.137,65.634,61.743,69.029,57.556,69.029z"/>
	</g>
	<g>
		<circle style="fill:#47C67B;" cx="72.547" cy="66.361" r="2.667"/>
	</g>
	<g>
		<circle style="fill:#47C67B;" cx="82.935" cy="64.376" r="1.986"/>
	</g>
	<g>
		<circle style="fill:#47C67B;" cx="69.296" cy="80.616" r="1.308"/>
	</g>
	<g>
		<circle style="fill:#47C67B;" cx="46.381" cy="66.876" r="2.501"/>
	</g>
	<g>
		<polyline style="fill:#FFFFFF;" points="41.784,101.509 36.73,104.484 36.373,98.632 		"/>
	</g>
	<g>
		<polyline style="fill:#FFFFFF;" points="86.256,101.509 91.31,104.484 91.668,98.632 		"/>
	</g>
	<path style="fill:#33363A;" d="M94.913,92.868c-0.745-0.363-1.643-0.057-2.007,0.688c-0.034,0.07-3.558,7.005-15.432,6.78
		c-8.043-0.141-11.747,1.509-13.455,3.094c-1.708-1.581-5.411-3.226-13.452-3.094c-11.76,0.223-15.283-6.484-15.437-6.788
		c-0.366-0.738-1.262-1.042-2.003-0.681c-0.744,0.364-1.052,1.263-0.688,2.007c0.069,0.142,0.813,1.568,2.542,3.207
		c-0.079,0.198-0.12,0.414-0.106,0.642l0.357,5.852c0.032,0.521,0.332,0.987,0.792,1.232c0.221,0.117,0.463,0.176,0.705,0.176
		c0.263,0,0.526-0.069,0.761-0.207l5.054-2.975c0.17-0.1,0.311-0.23,0.424-0.377c1.731,0.476,3.717,0.793,5.987,0.875
		c0.201,4.687,6.737,8.328,15.064,8.328c8.328,0,14.866-3.642,15.064-8.33c2.269-0.085,4.253-0.403,5.982-0.878
		c0.114,0.149,0.257,0.281,0.429,0.382l5.054,2.975c0.234,0.138,0.498,0.207,0.761,0.207c0.242,0,0.484-0.059,0.705-0.176
		c0.46-0.245,0.761-0.712,0.792-1.232l0.357-5.852c0.014-0.227-0.027-0.443-0.106-0.642c1.731-1.639,2.473-3.065,2.543-3.207
		C95.965,94.131,95.657,93.233,94.913,92.868z M38.078,101.949l-0.099-1.613c0.461,0.276,0.959,0.54,1.489,0.795L38.078,101.949z
		 M64.02,108.628c-6.89,0-11.746-2.736-12.053-5.291c7.982,0.091,10.318,2.208,10.532,3.063c-0.016-0.065-0.014-0.103-0.014-0.103
		l1.536-0.14l1.536,0.14c0,0,0.002,0.037-0.014,0.103c0.214-0.854,2.567-2.992,10.532-3.066
		C75.77,105.89,70.913,108.628,64.02,108.628z M89.962,101.949l-1.395-0.821c0.532-0.255,1.032-0.52,1.494-0.796L89.962,101.949z"/>
</g>
<g>
</g>
<g>
</g>
<g>
</g>
<g>
</g>
<g>
</g>
<g>
</g>
<g>
</g>
<g>
</g>
<g>
</g>
<g>
</g>
<g>
</g>
<g>
</g>
<g>
</g>
<g>
</g>
<g>
</g>
</svg>
