<?xml version="1.0" encoding="iso-8859-1"?>
<!-- Generator: Adobe Illustrator 19.0.0, SVG Export Plug-In . SVG Version: 6.00 Build 0)  -->
<svg version="1.1" id="Layer_1" xmlns="http://www.w3.org/2000/svg" xmlns:xlink="http://www.w3.org/1999/xlink" x="0px" y="0px"
	 viewBox="0 0 127.6 127.6" style="enable-background:new 0 0 127.6 127.6;" xml:space="preserve">
<g>
	<g>
		<path style="fill:#FFECD2;" d="M115.06,91.168c0,16.236-22.949,34.932-51.26,34.932s-51.26-18.695-51.26-34.932
			c0-16.238,22.949-29.402,51.26-29.402S115.06,74.93,115.06,91.168z"/>
	</g>
	<g>
		<path style="fill:#EFC99A;" d="M115.06,91.168c0,16.236-22.949,29.266-51.26,29.266s-51.26-13.029-51.26-29.266
			c0-16.238,22.949-29.402,51.26-29.402S115.06,74.93,115.06,91.168z"/>
	</g>
	<g>
		<path style="fill:#33363A;" d="M63.8,127.6c-29.713,0-52.76-19.584-52.76-36.432c0-17.04,23.668-30.902,52.76-30.902
			s52.76,13.862,52.76,30.902C116.56,108.016,93.513,127.6,63.8,127.6z M63.8,63.266c-27.438,0-49.76,12.517-49.76,27.902
			c0,15.143,22.196,33.432,49.76,33.432s49.76-18.289,49.76-33.432C113.56,75.782,91.237,63.266,63.8,63.266z"/>
	</g>
	<g>
		<g>
			<path style="fill:#E5B076;" d="M113.009,79.612c0,20.676-22.031,37.441-49.209,37.441s-49.209-16.766-49.209-37.441
				c0-20.68,22.031-45.459,49.209-45.459S113.009,58.932,113.009,79.612z"/>
		</g>
		<g>
			<path style="fill:#D3964C;" d="M113.009,79.612c0,20.676-22.031,37.441-49.209,37.441s-49.209-16.766-49.209-37.441
				c0-20.68,22.031-34.928,49.209-34.928S113.009,58.932,113.009,79.612z"/>
		</g>
		<g>
			<path style="fill:#E5B076;" d="M74.278,83.569c0,1.393-4.691,1.643-10.478,1.643c-5.787,0-10.479-0.25-10.479-1.643
				c0-1.395,4.691-5.037,10.479-5.037C69.587,78.531,74.278,82.174,74.278,83.569z"/>
		</g>
		<g>
			<path style="fill:#C4833D;" d="M113.009,79.612c0,20.676-22.031,37.441-49.209,37.441s-49.209-16.766-49.209-37.441
				c0-20.682,6.262,18.34,49.209,18.34S113.009,58.93,113.009,79.612z"/>
		</g>
		<g>
			<path style="fill:#33363A;" d="M63.8,118.553c-27.961,0-50.709-17.469-50.709-38.941c0-21.27,22.619-46.959,50.709-46.959
				s50.709,25.689,50.709,46.959C114.509,101.084,91.761,118.553,63.8,118.553z M63.8,35.653c-26.428,0-47.709,24.048-47.709,43.959
				c0,19.818,21.402,35.941,47.709,35.941s47.709-16.123,47.709-35.941C111.509,59.7,90.228,35.653,63.8,35.653z"/>
		</g>
	</g>
	<g>
		<g>
			<g>
				<g>
					<g>
						<g>
							<path style="fill:#D3964C;" d="M21.11,34.031c-0.124,12.322,4.217,22.303,11.009,27.771
								c6.933-8.355,11.495-20.207,11.619-32.531C43.863,16.948,39.522,6.967,32.729,1.5C25.798,9.854,21.235,21.707,21.11,34.031z"
								/>
						</g>
						<g>
							<path style="fill:#C4833D;" d="M32.729,1.5C25.798,9.854,21.235,21.707,21.11,34.031
								c-0.124,12.322,4.217,22.303,11.009,27.771L32.729,1.5z"/>
						</g>
						<g>
							<path style="fill:#33363A;" d="M26.4,56.705c-0.503,0-0.995-0.254-1.278-0.714c-3.69-6-5.596-13.599-5.511-21.976
								c0.123-12.257,4.484-24.458,11.964-33.474c0.521-0.631,1.454-0.725,2.095-0.211c7.479,6.019,11.695,16.572,11.569,28.956
								c-0.075,7.313-1.688,14.76-4.665,21.537c-0.333,0.757-1.219,1.104-1.977,0.77c-0.758-0.333-1.103-1.218-0.77-1.977
								c2.815-6.409,4.341-13.45,4.411-20.361c0.109-10.797-3.267-20.025-9.311-25.604c-6.463,8.362-10.206,19.348-10.317,30.395
								c-0.079,7.811,1.672,14.855,5.065,20.373c0.435,0.706,0.214,1.63-0.491,2.063C26.94,56.634,26.668,56.705,26.4,56.705z"/>
						</g>
					</g>
				</g>
			</g>
			<g>
				<g>
					<g>
						<g>
							<path style="fill:#66310E;" d="M26.919,40.11c-0.059,5.826,1.994,10.541,5.204,13.127c3.276-3.949,5.433-9.551,5.491-15.375
								c0.06-5.826-1.992-10.543-5.203-13.127C29.135,28.684,26.978,34.285,26.919,40.11z"/>
						</g>
						<g>
							<path style="fill:#89410B;" d="M32.411,24.735c-3.276,3.949-5.434,9.551-5.492,15.375
								c-0.059,5.826,1.994,10.541,5.204,13.127L32.411,24.735z"/>
						</g>
						<g>
							<path style="fill:#33363A;" d="M32.122,54.737c-0.33,0-0.663-0.108-0.94-0.332c-3.724-3-5.824-8.216-5.763-14.31l0,0
								c0.061-5.971,2.188-11.919,5.838-16.318c0.521-0.631,1.455-0.726,2.095-0.211c3.725,2.998,5.825,8.214,5.763,14.312
								c-0.061,5.971-2.188,11.919-5.837,16.317C32.982,54.552,32.554,54.737,32.122,54.737z M26.919,40.11l1.5,0.015
								c-0.045,4.413,1.253,8.354,3.524,10.88c2.618-3.716,4.123-8.423,4.171-13.157c0.045-4.416-1.252-8.356-3.523-10.88
								c-2.619,3.716-4.124,8.424-4.172,13.157L26.919,40.11z"/>
						</g>
					</g>
				</g>
			</g>
		</g>
		<g>
			<g>
				<g>
					<g>
						<g>
							<path style="fill:#D3964C;" d="M106.489,34.031c0.124,12.322-4.217,22.303-11.009,27.771
								c-6.933-8.355-11.495-20.207-11.619-32.531C83.736,16.948,88.078,6.967,94.871,1.5
								C101.802,9.854,106.365,21.707,106.489,34.031z"/>
						</g>
						<g>
							<path style="fill:#C4833D;" d="M94.871,1.5c6.931,8.353,11.494,20.207,11.618,32.531
								c0.124,12.322-4.217,22.303-11.009,27.771L94.871,1.5z"/>
						</g>
						<g>
							<path style="fill:#33363A;" d="M101.2,56.705c-0.269,0-0.54-0.071-0.785-0.223c-0.705-0.434-0.926-1.357-0.491-2.063
								c3.394-5.518,5.145-12.563,5.065-20.372c-0.111-11.048-3.854-22.033-10.317-30.396c-6.044,5.579-9.42,14.808-9.311,25.604
								c0.07,6.911,1.596,13.952,4.411,20.361c0.333,0.759-0.012,1.644-0.77,1.977c-0.758,0.336-1.644-0.012-1.977-0.77
								c-2.978-6.777-4.59-14.225-4.665-21.537C82.235,16.904,86.452,6.35,93.931,0.331c0.641-0.514,1.572-0.42,2.095,0.211
								c7.479,9.016,11.841,21.217,11.964,33.475c0.085,8.376-1.82,15.975-5.511,21.975C102.195,56.451,101.703,56.705,101.2,56.705
								z"/>
						</g>
					</g>
				</g>
			</g>
			<g>
				<g>
					<g>
						<g>
							<path style="fill:#66310E;" d="M100.681,40.11c0.059,5.826-1.994,10.541-5.204,13.127c-3.276-3.949-5.433-9.551-5.491-15.375
								c-0.06-5.826,1.992-10.543,5.203-13.127C98.465,28.684,100.622,34.285,100.681,40.11z"/>
						</g>
						<g>
							<path style="fill:#89410B;" d="M95.189,24.735c3.276,3.949,5.434,9.551,5.492,15.375c0.059,5.826-1.994,10.541-5.204,13.127
								L95.189,24.735z"/>
						</g>
						<g>
							<path style="fill:#33363A;" d="M95.478,54.737c-0.432,0-0.859-0.185-1.155-0.542c-3.649-4.398-5.776-10.347-5.837-16.318
								c-0.063-6.097,2.038-11.313,5.763-14.311c0.64-0.515,1.572-0.42,2.095,0.211c3.65,4.399,5.777,10.348,5.838,16.318l0,0
								c0.062,6.094-2.039,11.31-5.763,14.31C96.141,54.628,95.808,54.737,95.478,54.737z M95.009,26.967
								c-2.271,2.523-3.568,6.464-3.523,10.879c0.048,4.735,1.553,9.442,4.171,13.158c2.271-2.525,3.569-6.467,3.524-10.88
								C99.133,35.391,97.628,30.683,95.009,26.967z"/>
						</g>
					</g>
				</g>
			</g>
		</g>
	</g>
	<path style="fill:#33363A;" d="M73.437,94.565c-0.828,0-1.5,0.672-1.5,1.5c0,1.428-1.162,2.59-2.59,2.59H67.89
		c-1.428,0-2.59-1.162-2.59-2.59V94.61c0-0.073-0.011-0.143-0.021-0.213l3.111-1.557c0.622-0.312,0.949-1.01,0.789-1.687
		s-0.765-1.155-1.46-1.155h-7.837c-0.695,0-1.3,0.479-1.46,1.155s0.167,1.375,0.789,1.687l3.11,1.557
		c-0.01,0.07-0.021,0.14-0.021,0.213v1.455c0,1.428-1.162,2.59-2.59,2.59h-1.457c-1.428,0-2.59-1.162-2.59-2.59
		c0-0.828-0.672-1.5-1.5-1.5s-1.5,0.672-1.5,1.5c0,3.082,2.508,5.59,5.59,5.59h1.457c1.615,0,3.068-0.693,4.09-1.792
		c1.021,1.099,2.475,1.792,4.09,1.792h1.457c3.082,0,5.59-2.508,5.59-5.59C74.937,95.237,74.265,94.565,73.437,94.565z"/>
	<g>
		<path style="fill:#89410B;" d="M47.638,84.428c0,4.449-3.605,8.051-8.053,8.051c-4.445,0-8.051-3.602-8.051-8.051
			c0-4.447,3.605-8.051,8.051-8.051C44.032,76.377,47.638,79.981,47.638,84.428z"/>
	</g>
	<g>
		<circle style="fill:#FFFFFF;" cx="35.582" cy="81.811" r="3.28"/>
	</g>
	<path style="fill:#33363A;" d="M39.585,74.877c-3.243,0-6.11,1.628-7.837,4.107c-0.106,0.143-0.198,0.294-0.288,0.448
		c-0.898,1.456-1.426,3.163-1.426,4.996c0,5.267,4.284,9.551,9.551,9.551c5.268,0,9.553-4.284,9.553-9.551
		S44.853,74.877,39.585,74.877z M39.585,90.979c-2.721,0-5.058-1.668-6.046-4.034c0.68-0.018,1.509-0.201,2.437-0.393
		c0.357-0.03,0.701-0.097,1.032-0.202c0.809-0.144,1.675-0.258,2.577-0.258c2.413,0,4.572,0.813,6.048,0.853
		C44.644,89.311,42.307,90.979,39.585,90.979z"/>
	<circle style="fill:#FFFFFF;" cx="35.581" cy="81.812" r="1.78"/>
	<g>
		<path style="fill:#89410B;" d="M96.066,84.428c0,4.449-3.605,8.051-8.051,8.051c-4.447,0-8.053-3.602-8.053-8.051
			c0-4.447,3.605-8.051,8.053-8.051C92.46,76.377,96.066,79.981,96.066,84.428z"/>
	</g>
	<g>
		<circle style="fill:#FFFFFF;" cx="84.01" cy="81.811" r="3.28"/>
	</g>
	<path style="fill:#33363A;" d="M88.015,74.877c-3.242,0-6.108,1.626-7.835,4.102c-0.108,0.146-0.202,0.299-0.294,0.457
		c-0.897,1.455-1.424,3.161-1.424,4.992c0,5.267,4.285,9.551,9.553,9.551c5.267,0,9.551-4.284,9.551-9.551
		S93.281,74.877,88.015,74.877z M88.015,90.979c-2.721,0-5.059-1.668-6.048-4.034c0.689-0.018,1.526-0.2,2.47-0.396
		c0.335-0.03,0.657-0.093,0.968-0.189c0.82-0.148,1.695-0.268,2.61-0.268c2.412,0,4.571,0.813,6.046,0.853
		C93.073,89.311,90.735,90.979,88.015,90.979z"/>
	<circle style="fill:#FFFFFF;" cx="84.009" cy="81.812" r="1.78"/>
	<g>
		<g>
			<polygon style="fill:#E5B076;" points="84.327,44.19 77.62,29.262 71.208,32.145 63.8,24.735 56.391,32.145 49.98,29.262 
				43.273,44.19 58.197,50.897 58.53,50.155 63.8,55.424 69.069,50.156 69.402,50.897 			"/>
		</g>
		<g>
			<polygon style="fill:#D3964C;" points="71.208,44.645 63.8,37.237 56.391,44.645 49.98,41.764 47.946,46.289 58.197,50.897 
				58.53,50.155 63.8,55.424 69.069,50.156 69.402,50.897 79.653,46.289 77.62,41.764 			"/>
		</g>
		<g>
			<path style="fill:#33363A;" d="M84.328,45.69c-0.572,0-1.119-0.329-1.369-0.885l-6.092-13.56l-5.044,2.268
				c-0.567,0.256-1.235,0.132-1.676-0.308l-6.348-6.35l-6.349,6.35c-0.441,0.439-1.109,0.563-1.676,0.308l-5.043-2.268l-6.092,13.56
				c-0.34,0.755-1.226,1.095-1.983,0.753c-0.755-0.34-1.093-1.228-0.753-1.983l6.707-14.928c0.163-0.362,0.464-0.646,0.836-0.787
				c0.37-0.143,0.783-0.13,1.147,0.034l5.467,2.458l6.678-6.678c0.281-0.281,0.663-0.439,1.061-0.439l0,0
				c0.397,0,0.779,0.158,1.061,0.439l6.677,6.678l5.468-2.458c0.362-0.164,0.775-0.177,1.147-0.034
				c0.372,0.142,0.673,0.425,0.836,0.787l6.707,14.928c0.34,0.756,0.002,1.644-0.753,1.983C84.742,45.648,84.533,45.69,84.328,45.69
				z"/>
		</g>
	</g>
</g>
<g>
</g>
<g>
</g>
<g>
</g>
<g>
</g>
<g>
</g>
<g>
</g>
<g>
</g>
<g>
</g>
<g>
</g>
<g>
</g>
<g>
</g>
<g>
</g>
<g>
</g>
<g>
</g>
<g>
</g>
</svg>
