<?xml version="1.0" encoding="iso-8859-1"?>
<!-- Generator: Adobe Illustrator 19.0.0, SVG Export Plug-In . SVG Version: 6.00 Build 0)  -->
<svg version="1.1" id="Layer_1" xmlns="http://www.w3.org/2000/svg" xmlns:xlink="http://www.w3.org/1999/xlink" x="0px" y="0px"
	 viewBox="0 0 129.404 129.404" style="enable-background:new 0 0 129.404 129.404;" xml:space="preserve">
<g>
	<g>
		<g>
			<g>
				<path style="fill:#EA81BD;" d="M29.869,79.786c0,3.188-6.352,5.771-14.184,5.771c-7.834,0-14.186-2.584-14.186-5.771
					s12.467-12.6,20.301-12.6C29.635,67.187,29.869,76.599,29.869,79.786z"/>
			</g>
			<g>
				<path style="fill:#D363A9;" d="M29.869,79.786c0,3.188-6.352,5.771-14.184,5.771c-7.834,0-14.186-2.584-14.186-5.771
					s13.129-1.855,20.963-1.855C30.297,77.931,29.869,76.599,29.869,79.786z"/>
			</g>
			<g>
				<path style="fill:#33363A;" d="M15.686,87.058C8.082,87.058,0,84.509,0,79.786c0-4.488,13.687-14.1,21.801-14.1
					c3.573,0,9.568,1.832,9.568,14.1C31.369,84.509,23.289,87.058,15.686,87.058z M21.801,68.687
					c-7.299,0-18.555,8.855-18.801,11.116c0,1.725,4.942,4.255,12.686,4.255c7.743,0,12.684-2.53,12.684-4.271
					C28.369,72.421,26.159,68.687,21.801,68.687z"/>
			</g>
		</g>
		<g>
			<g>
				<path style="fill:#EA81BD;" d="M99.537,79.786c0,3.188,6.35,5.771,14.184,5.771s14.184-2.584,14.184-5.771
					s-12.467-12.6-20.301-12.6C99.771,67.187,99.537,76.599,99.537,79.786z"/>
			</g>
			<g>
				<path style="fill:#D363A9;" d="M99.537,79.786c0,3.188,6.35,5.771,14.184,5.771s14.184-2.584,14.184-5.771
					s-13.129-1.855-20.963-1.855S99.537,76.599,99.537,79.786z"/>
			</g>
			<g>
				<path style="fill:#33363A;" d="M113.721,87.058c-7.603,0-15.684-2.549-15.684-7.271c0-12.268,5.994-14.1,9.566-14.1
					c8.114,0,21.801,9.611,21.801,14.1C129.404,84.509,121.324,87.058,113.721,87.058z M107.604,68.687
					c-4.357,0-6.566,3.734-6.566,11.1c0,1.741,4.941,4.271,12.684,4.271s12.684-2.53,12.684-4.271
					C126.158,77.542,114.903,68.687,107.604,68.687z"/>
			</g>
		</g>
	</g>
	<g>
		<g>
			<g>
				<ellipse style="fill:#EA81BD;" cx="42.13" cy="105.812" rx="21.655" ry="6.541"/>
			</g>
			<g>
				<path style="fill:#D363A9;" d="M63.785,105.812c0,3.611-9.695,0-21.654,0c-11.96,0-21.655,3.611-21.655,0
					c0-3.613,9.695-6.541,21.655-6.541C54.09,99.271,63.785,102.199,63.785,105.812z"/>
			</g>
			<g>
				<path style="fill:#33363A;" d="M42.131,113.853c-11.507,0-23.155-2.762-23.155-8.041s11.648-8.041,23.155-8.041
					c11.506,0,23.154,2.762,23.154,8.041S53.637,113.853,42.131,113.853z M42.131,100.771c-13.041,0-20.155,3.33-20.155,5.041
					s7.114,5.041,20.155,5.041c13.041,0,20.154-3.33,20.154-5.041S55.171,100.771,42.131,100.771z"/>
			</g>
		</g>
		<g>
			<g>
				<ellipse style="fill:#EA81BD;" cx="87.275" cy="105.812" rx="21.655" ry="6.541"/>
			</g>
			<g>
				<path style="fill:#D363A9;" d="M65.62,105.812c0,3.611,9.695,0,21.655,0c11.959,0,21.654,3.611,21.654,0
					c0-3.613-9.695-6.541-21.654-6.541C75.315,99.271,65.62,102.199,65.62,105.812z"/>
			</g>
			<g>
				<path style="fill:#33363A;" d="M87.275,113.853c-11.507,0-23.155-2.762-23.155-8.041s11.648-8.041,23.155-8.041
					c11.506,0,23.154,2.762,23.154,8.041S98.782,113.853,87.275,113.853z M87.275,100.771c-13.041,0-20.155,3.33-20.155,5.041
					s7.114,5.041,20.155,5.041c13.041,0,20.154-3.33,20.154-5.041S100.316,100.771,87.275,100.771z"/>
			</g>
		</g>
	</g>
	<g>
		<path style="fill:#9E3256;" d="M20.188,17.054c-5.656,7.771-6.842,18.367-2.131,27.49c4.709,9.127,14.031,14.297,23.644,14.188
			c5.656-7.771,6.842-18.365,2.131-27.49C39.122,22.117,29.802,16.947,20.188,17.054z"/>
	</g>
	<g>
		<path style="fill:#FFCAE8;" d="M20.188,17.054c-5.656,7.771,4.681,16.744,9.392,25.867c4.709,9.127,2.509,15.92,12.122,15.811
			c5.656-7.771,6.842-18.365,2.131-27.49C39.122,22.117,29.802,16.947,20.188,17.054z"/>
	</g>
	<g>
		<path style="fill:#EFA3CC;" d="M20.188,17.054c-5.656,7.771,4.681,16.744,9.392,25.867c4.709,9.127,2.509,15.92,12.122,15.811
			c5.656-7.771,3.201-11.713-1.51-20.838C35.482,28.767,29.802,16.947,20.188,17.054z"/>
	</g>
	<path style="fill:#33363A;" d="M45.165,30.553c-4.837-9.37-14.404-15.141-24.994-14.999c-0.474,0.006-0.917,0.234-1.196,0.617
		c-6.227,8.556-7.089,19.691-2.251,29.061c4.786,9.276,14.216,15.002,24.668,15.002c0.108,0,0.218-0.001,0.326-0.002
		c0.474-0.006,0.917-0.234,1.196-0.617C49.14,51.06,50.003,39.924,45.165,30.553z M45.033,39.881
		c0.008,0.058,0.011,0.116,0.018,0.174c0.136,1.032,0.212,2.068,0.216,3.104c0.001,0.287-0.016,0.574-0.025,0.861
		c-0.008,0.259-0.006,0.519-0.023,0.777c-0.021,0.335-0.062,0.668-0.096,1.001c-0.022,0.21-0.034,0.422-0.061,0.631
		c-0.129,0.989-0.326,1.969-0.575,2.939c-0.024,0.094-0.041,0.19-0.066,0.284c-0.139,0.514-0.296,1.025-0.469,1.531
		c-0.005,0.016-0.009,0.032-0.015,0.048c-0.177,0.517-0.373,1.029-0.585,1.536c-0.002,0.005-0.004,0.011-0.006,0.016
		c-0.645,1.537-1.452,3.024-2.418,4.439c-4.845-0.15-5.542-2.416-6.986-7.116c-0.712-2.319-1.52-4.948-3.03-7.876
		c-1.335-2.586-3.095-5.141-4.796-7.611c-4.209-6.112-7.868-11.426-5.126-16.063c0.464,0.009,0.925,0.038,1.384,0.072
		c0.098,0.007,0.197,0.007,0.294,0.016c0.48,0.041,0.955,0.103,1.428,0.171c0.082,0.012,0.165,0.017,0.246,0.03
		c0.484,0.075,0.962,0.169,1.437,0.272c0.068,0.015,0.138,0.024,0.206,0.039c0.505,0.113,1.003,0.245,1.497,0.388
		c0.037,0.011,0.074,0.018,0.111,0.029c0.479,0.142,0.951,0.302,1.418,0.471c0.05,0.018,0.102,0.032,0.151,0.05
		c0.46,0.17,0.913,0.359,1.361,0.556c0.054,0.024,0.11,0.043,0.164,0.067c0.434,0.194,0.858,0.406,1.279,0.625
		c0.065,0.034,0.132,0.062,0.197,0.096c0.41,0.218,0.811,0.453,1.208,0.694c0.07,0.043,0.144,0.08,0.215,0.123
		c0.359,0.223,0.707,0.462,1.054,0.703c0.103,0.071,0.21,0.135,0.311,0.208c0.346,0.248,0.68,0.513,1.013,0.779
		c0.095,0.076,0.195,0.145,0.289,0.222c0.309,0.255,0.606,0.526,0.903,0.797c0.109,0.099,0.224,0.191,0.332,0.293
		c0.272,0.257,0.53,0.529,0.791,0.799c0.123,0.127,0.252,0.246,0.372,0.376c0.211,0.228,0.409,0.47,0.611,0.706
		c0.158,0.184,0.323,0.362,0.477,0.551c0.196,0.242,0.377,0.498,0.564,0.749c0.147,0.196,0.301,0.385,0.442,0.586
		c0.289,0.411,0.562,0.836,0.827,1.268c0.03,0.049,0.064,0.095,0.094,0.145c0.293,0.484,0.571,0.98,0.833,1.488
		C43.811,34.471,44.653,37.158,45.033,39.881z M19.39,43.856c-2.975-5.761-3.52-12.267-1.759-18.256
		c1.105,3.572,3.575,7.179,6.015,10.723c1.648,2.395,3.353,4.87,4.601,7.286c1.387,2.689,2.153,5.182,2.829,7.382
		c0.526,1.712,1.033,3.338,1.777,4.742C27.124,53.648,22.295,49.488,19.39,43.856z"/>
	<g>
		<path style="fill:#9E3256;" d="M109.217,17.054c5.656,7.771,6.842,18.367,2.131,27.49c-4.709,9.127-14.03,14.297-23.644,14.188
			c-5.657-7.771-6.842-18.365-2.131-27.49C90.283,22.117,99.604,16.947,109.217,17.054z"/>
	</g>
	<g>
		<path style="fill:#FFCAE8;" d="M109.217,17.054c5.656,7.771-4.68,16.744-9.391,25.867c-4.709,9.127-2.509,15.92-12.122,15.811
			c-5.657-7.771-6.842-18.365-2.131-27.49C90.283,22.117,99.604,16.947,109.217,17.054z"/>
	</g>
	<g>
		<path style="fill:#EFA3CC;" d="M109.217,17.054c5.656,7.771-4.68,16.744-9.391,25.867c-4.709,9.127-2.509,15.92-12.122,15.811
			c-5.657-7.771-3.202-11.713,1.509-20.838C93.922,28.767,99.604,16.947,109.217,17.054z"/>
	</g>
	<path style="fill:#33363A;" d="M110.43,16.171c-0.279-0.383-0.722-0.611-1.196-0.617c-10.542-0.135-20.156,5.63-24.993,14.999
		c-4.838,9.372-3.976,20.508,2.251,29.062c0.279,0.383,0.722,0.611,1.196,0.617c0.109,0.001,0.217,0.002,0.326,0.002
		c10.451,0,19.882-5.726,24.667-15.001C117.519,35.863,116.656,24.727,110.43,16.171z M87.739,30.442
		C87.74,30.441,87.74,30.441,87.739,30.442c0.293-0.484,0.601-0.955,0.922-1.414c0.006-0.008,0.013-0.016,0.019-0.025
		c0.639-0.908,1.333-1.766,2.077-2.569c0.006-0.007,0.013-0.013,0.019-0.019c0.37-0.398,0.751-0.784,1.145-1.156
		c0.005-0.005,0.011-0.009,0.016-0.014c0.395-0.372,0.801-0.731,1.219-1.075c0.01-0.008,0.021-0.016,0.032-0.024
		c0.413-0.339,0.836-0.665,1.269-0.976c0.046-0.033,0.095-0.062,0.142-0.095c0.4-0.283,0.806-0.558,1.222-0.816
		c0.074-0.046,0.152-0.085,0.226-0.13c0.393-0.238,0.789-0.471,1.195-0.687c0.094-0.05,0.193-0.092,0.288-0.141
		c0.391-0.201,0.784-0.4,1.187-0.58c0.12-0.054,0.245-0.098,0.365-0.15c0.383-0.164,0.766-0.328,1.158-0.473
		c0.142-0.053,0.289-0.094,0.432-0.144c0.376-0.131,0.752-0.264,1.136-0.377c0.147-0.043,0.298-0.075,0.446-0.116
		c0.385-0.106,0.77-0.214,1.162-0.301c0.152-0.034,0.307-0.056,0.459-0.087c0.393-0.08,0.785-0.162,1.184-0.224
		c0.15-0.023,0.303-0.034,0.454-0.055c0.406-0.055,0.811-0.111,1.222-0.147c0.127-0.011,0.256-0.011,0.384-0.02
		c0.43-0.031,0.861-0.059,1.296-0.068c2.742,4.637-0.917,9.951-5.125,16.064c-1.701,2.471-3.46,5.025-4.795,7.611
		c-1.51,2.927-2.318,5.556-3.03,7.875c-1.444,4.7-2.14,6.967-6.986,7.116c-0.966-1.414-1.773-2.901-2.418-4.438
		c-0.016-0.039-0.029-0.079-0.045-0.118c-2.745-6.631-2.498-14.171,0.892-20.739C87.169,31.422,87.447,30.925,87.739,30.442z
		 M110.015,43.857c-2.906,5.632-7.734,9.792-13.461,11.876c0.744-1.403,1.251-3.03,1.777-4.742c0.675-2.2,1.441-4.692,2.829-7.381
		c1.248-2.417,2.952-4.893,4.6-7.286c2.44-3.544,4.91-7.151,6.015-10.724C113.535,31.589,112.989,38.096,110.015,43.857z"/>
	<g>
		<g>
			<path style="fill:#FFCAE8;" d="M113.912,70.117c0,20.676-22.032,37.441-49.209,37.441c-27.178,0-49.209-16.766-49.209-37.441
				c0-20.68,22.031-45.459,49.209-45.459C91.88,24.658,113.912,49.437,113.912,70.117z"/>
		</g>
		<g>
			<path style="fill:#EFA3CC;" d="M113.912,70.117c0,20.676-22.032,37.441-49.209,37.441c-27.178,0-49.209-16.766-49.209-37.441
				c0-20.68,22.031-34.928,49.209-34.928C91.88,35.189,113.912,49.437,113.912,70.117z"/>
		</g>
		<g>
			<path style="fill:#EA81BD;" d="M113.912,70.117c0,20.676-22.032,37.441-49.209,37.441c-27.178,0-49.209-16.766-49.209-37.441
				c0-20.682,6.261,18.34,49.209,18.34C107.65,88.456,113.912,49.435,113.912,70.117z"/>
		</g>
		<g>
			<path style="fill:#33363A;" d="M64.703,109.058c-27.961,0-50.709-17.469-50.709-38.941c0-21.27,22.62-46.959,50.709-46.959
				s50.709,25.689,50.709,46.959C115.412,91.589,92.664,109.058,64.703,109.058z M64.703,26.158
				c-26.428,0-47.709,24.048-47.709,43.959c0,19.818,21.402,35.941,47.709,35.941s47.709-16.123,47.709-35.941
				C112.412,50.205,91.131,26.158,64.703,26.158z"/>
		</g>
	</g>
	<g>
		<path style="fill:#14A594;" d="M48.541,67.958c0,4.449-3.605,8.051-8.053,8.051c-4.446,0-8.051-3.602-8.051-8.051
			c0-4.447,3.604-8.051,8.051-8.051C44.936,59.908,48.541,63.511,48.541,67.958z"/>
	</g>
	<g>
		<circle style="fill:#FFFFFF;" cx="36.485" cy="65.341" r="3.281"/>
	</g>
	<path style="fill:#33363A;" d="M40.488,58.408c-3.239,0-6.102,1.624-7.83,4.097c-0.111,0.15-0.209,0.307-0.302,0.47
		c-0.894,1.453-1.419,3.156-1.419,4.983c0,5.267,4.285,9.551,9.551,9.551c5.268,0,9.553-4.284,9.553-9.551
		S45.756,58.408,40.488,58.408z M40.488,74.509c-2.721,0-5.058-1.668-6.046-4.034c0.688-0.018,1.525-0.2,2.468-0.396
		c0.336-0.03,0.66-0.093,0.973-0.19c0.818-0.148,1.692-0.267,2.606-0.267c2.413,0,4.572,0.813,6.048,0.853
		C45.548,72.841,43.21,74.509,40.488,74.509z"/>
	<circle style="fill:#FFFFFF;" cx="36.484" cy="65.342" r="1.78"/>
	<g>
		<path style="fill:#14A594;" d="M96.968,67.958c0,4.449-3.604,8.051-8.051,8.051c-4.447,0-8.052-3.602-8.052-8.051
			c0-4.447,3.604-8.051,8.052-8.051C93.363,59.908,96.968,63.511,96.968,67.958z"/>
	</g>
	<g>
		<circle style="fill:#FFFFFF;" cx="84.912" cy="65.341" r="3.28"/>
	</g>
	<path style="fill:#33363A;" d="M88.917,58.408c-3.24,0-6.103,1.624-7.831,4.097c-0.111,0.15-0.209,0.307-0.302,0.47
		c-0.894,1.453-1.419,3.156-1.419,4.983c0,5.267,4.285,9.551,9.552,9.551c5.266,0,9.551-4.284,9.551-9.551
		S94.183,58.408,88.917,58.408z M88.917,74.509c-2.721,0-5.059-1.668-6.047-4.034c0.688-0.018,1.525-0.2,2.468-0.396
		c0.336-0.03,0.659-0.093,0.971-0.189c0.819-0.148,1.694-0.268,2.608-0.268c2.412,0,4.571,0.813,6.046,0.853
		C93.975,72.841,91.638,74.509,88.917,74.509z"/>
	<circle style="fill:#FFFFFF;" cx="84.912" cy="65.342" r="1.78"/>
	<g>
		<path style="fill:#FFCAE8;" d="M72.266,69.816c0,1.012-3.404,1.193-7.606,1.193c-4.2,0-7.605-0.182-7.605-1.193
			c0-1.01,3.405-3.654,7.605-3.654C68.861,66.161,72.266,68.806,72.266,69.816z"/>
	</g>
	<g>
		<path style="fill:#9E3256;" d="M55.807,77.931c0,4.912,3.982,8.895,8.895,8.895c4.914,0,8.897-3.982,8.897-8.895H55.807z"/>
	</g>
	<g>
		<path style="fill:#33363A;" d="M64.702,88.325c-5.732,0-10.396-4.663-10.396-10.395c0-0.828,0.671-1.5,1.5-1.5h17.792
			c0.829,0,1.5,0.672,1.5,1.5C75.099,83.662,70.435,88.325,64.702,88.325z M57.459,79.431c0.695,3.36,3.679,5.895,7.243,5.895
			c3.564,0,6.548-2.534,7.244-5.895H57.459z"/>
	</g>
	<g>
		<circle style="fill:#FFCAE8;" cx="64.702" cy="36.265" r="19.21"/>
	</g>
	<g>
		<circle style="fill:#EFA3CC;" cx="64.702" cy="43.868" r="19.21"/>
	</g>
	<path style="fill:#33363A;" d="M64.703,15.554c-5.339,0-10.197,2.048-13.874,5.378c-0.101,0.056-0.207,0.097-0.296,0.178
		c-8.339,7.641-8.908,20.644-1.269,28.986c3.017,3.291,7.135,5.211,11.595,5.407c0.251,0.011,0.501,0.017,0.75,0.017
		c4.188,0,8.167-1.545,11.273-4.392c2.692-2.466,4.263-5.833,4.422-9.481c0.16-3.649-1.112-7.143-3.58-9.836
		c-4.186-4.568-11.309-4.88-15.878-0.695c-3.776,3.466-4.034,9.355-0.575,13.131c0.56,0.61,1.509,0.654,2.119,0.092
		c0.611-0.56,0.652-1.508,0.093-2.119c-2.342-2.556-2.167-6.545,0.39-8.892c3.35-3.067,8.572-2.837,11.639,0.511
		c1.927,2.103,2.919,4.829,2.795,7.678c-0.124,2.848-1.35,5.476-3.452,7.4c-2.7,2.475-6.202,3.746-9.865,3.59
		c-3.661-0.161-7.04-1.736-9.515-4.437c-2.954-3.226-4.456-7.267-4.57-11.33c0.051-0.15,0.084-0.309,0.084-0.476
		c0-9.766,7.945-17.711,17.711-17.711c9.765,0,17.709,7.945,17.709,17.711c0,0.828,0.671,1.5,1.5,1.5s1.5-0.672,1.5-1.5
		C85.412,24.845,76.122,15.554,64.703,15.554z"/>
</g>
<g>
</g>
<g>
</g>
<g>
</g>
<g>
</g>
<g>
</g>
<g>
</g>
<g>
</g>
<g>
</g>
<g>
</g>
<g>
</g>
<g>
</g>
<g>
</g>
<g>
</g>
<g>
</g>
<g>
</g>
</svg>
