<?xml version="1.0" encoding="iso-8859-1"?>
<!-- Generator: Adobe Illustrator 19.0.0, SVG Export Plug-In . SVG Version: 6.00 Build 0)  -->
<svg version="1.1" id="Layer_1" xmlns="http://www.w3.org/2000/svg" xmlns:xlink="http://www.w3.org/1999/xlink" x="0px" y="0px"
	 viewBox="0 0 129.266 129.266" style="enable-background:new 0 0 129.266 129.266;" xml:space="preserve">
<g>
	<g>
		<g>
			<g>
				<path style="fill:#FFECD2;" d="M114.8,9.926c6.312,8.672,7.636,20.494,2.378,30.676c-5.255,10.186-15.657,15.955-26.385,15.834
					c-6.313-8.674-7.635-20.496-2.379-30.678C93.67,15.574,104.071,9.805,114.8,9.926z"/>
			</g>
			<g>
				<path style="fill:#F4D3A2;" d="M90.793,56.435c-6.313-8.674-7.635-20.496-2.379-30.678C93.67,15.574,104.071,9.805,114.8,9.926"
					/>
			</g>
			<g>
				<path style="fill:#33363A;" d="M91.135,57.937c-0.12,0-0.238-0.001-0.359-0.002c-0.474-0.006-0.917-0.234-1.196-0.617
					c-6.909-9.493-7.867-21.851-2.499-32.249c5.367-10.398,15.986-16.739,27.736-16.644c0.474,0.006,0.917,0.234,1.196,0.617
					c6.91,9.494,7.867,21.85,2.498,32.247C113.2,51.583,102.733,57.937,91.135,57.937z M114.025,11.427
					c-10.297,0.156-19.55,5.858-24.278,15.019c-4.729,9.16-4.017,20.005,1.821,28.489c10.298-0.156,19.55-5.859,24.277-15.021
					C120.574,30.755,119.863,19.911,114.025,11.427z"/>
			</g>
		</g>
		<g>
			<g>
				<path style="fill:#EFA3CC;" d="M110.185,20.779c3.885,5.338,4.699,12.615,1.464,18.881c-3.234,6.27-9.637,9.82-16.24,9.746
					c-3.885-5.338-4.699-12.615-1.464-18.881C97.18,24.256,103.581,20.705,110.185,20.779z"/>
			</g>
			<g>
				<path style="fill:#33363A;" d="M95.618,50.907c-0.076,0-0.151,0-0.227-0.001c-0.474-0.006-0.917-0.234-1.196-0.617
					c-4.382-6.021-4.989-13.857-1.584-20.452c3.369-6.528,10.008-10.559,17.363-10.559c0.076,0,0.151,0,0.227,0.001
					c0.474,0.006,0.917,0.234,1.196,0.617c4.382,6.021,4.989,13.857,1.584,20.452C109.613,46.877,102.975,50.907,95.618,50.907z
					 M109.406,22.288c-6,0.2-11.365,3.569-14.129,8.925c-2.765,5.354-2.403,11.679,0.909,16.685c6-0.2,11.366-3.569,14.129-8.925
					C113.08,33.618,112.718,27.294,109.406,22.288z"/>
			</g>
		</g>
	</g>
	<g>
		<g>
			<g>
				<path style="fill:#FFECD2;" d="M14.466,9.926C8.154,18.598,6.83,30.42,12.088,40.602c5.255,10.186,15.657,15.955,26.385,15.834
					c6.313-8.674,7.635-20.496,2.379-30.678C35.596,15.574,25.194,9.805,14.466,9.926z"/>
			</g>
			<g>
				<path style="fill:#F4D3A2;" d="M38.473,56.435c6.313-8.674,7.635-20.496,2.379-30.678C35.596,15.574,25.194,9.805,14.466,9.926"
					/>
			</g>
			<g>
				<path style="fill:#33363A;" d="M38.131,57.937c-11.599,0-22.065-6.354-27.376-16.648C5.386,30.893,6.343,18.537,13.253,9.043
					c0.279-0.383,0.722-0.611,1.196-0.617c0.12-0.001,0.24-0.002,0.359-0.002c11.599,0,22.064,6.354,27.377,16.646
					c5.368,10.397,4.41,22.755-2.499,32.248c-0.279,0.383-0.722,0.611-1.196,0.617C38.37,57.937,38.25,57.937,38.131,57.937z
					 M15.241,11.427c-5.838,8.484-6.549,19.328-1.82,28.486c4.726,9.162,13.979,14.864,24.277,15.021
					c5.838-8.484,6.549-19.329,1.821-28.488C34.791,17.286,25.537,11.584,15.241,11.427z"/>
			</g>
		</g>
		<g>
			<g>
				<path style="fill:#EFA3CC;" d="M19.081,20.779c-3.885,5.338-4.699,12.615-1.464,18.881c3.234,6.27,9.637,9.82,16.24,9.746
					c3.885-5.338,4.699-12.615,1.464-18.881C32.086,24.256,25.685,20.705,19.081,20.779z"/>
			</g>
			<g>
				<path style="fill:#33363A;" d="M33.647,50.907c-7.357,0-13.995-4.03-17.363-10.56c-3.405-6.594-2.798-14.43,1.584-20.451
					c0.279-0.383,0.722-0.611,1.196-0.617c7.426-0.062,14.186,3.962,17.59,10.559c3.405,6.594,2.798,14.43-1.584,20.451
					c-0.279,0.383-0.722,0.611-1.196,0.617C33.799,50.907,33.723,50.907,33.647,50.907z M19.859,22.288
					c-3.312,5.006-3.674,11.33-0.909,16.684c2.763,5.356,8.129,8.725,14.129,8.926c3.312-5.006,3.674-11.33,0.909-16.684
					C31.225,25.857,25.859,22.489,19.859,22.288z"/>
			</g>
		</g>
	</g>
	<g>
		<g>
			<path style="fill:#F4D3A2;" d="M113.842,81.9c0,20.676-22.031,37.441-49.209,37.441S15.424,102.576,15.424,81.9
				c0-20.68,22.031-45.459,49.209-45.459S113.842,61.221,113.842,81.9z"/>
		</g>
		<g>
			<path style="fill:#F4D3A2;" d="M113.842,81.9c0,20.676-22.031,37.441-49.209,37.441S15.424,102.576,15.424,81.9
				c0-20.68,22.031-34.928,49.209-34.928S113.842,61.221,113.842,81.9z"/>
		</g>
		<g>
			<path style="fill:#E2BF91;" d="M113.842,81.9c0,20.676-22.031,37.441-49.209,37.441S15.424,102.576,15.424,81.9
				c0-20.682,6.262,18.34,49.209,18.34S113.842,61.219,113.842,81.9z"/>
		</g>
		<g>
			<path style="fill:#33363A;" d="M64.633,120.842c-27.961,0-50.709-17.469-50.709-38.941c0-21.27,22.62-46.959,50.709-46.959
				s50.709,25.689,50.709,46.959C115.342,103.373,92.594,120.842,64.633,120.842z M64.633,37.941
				c-26.428,0-47.709,24.048-47.709,43.959c0,19.818,21.402,35.941,47.709,35.941s47.709-16.123,47.709-35.941
				C112.342,61.989,91.061,37.941,64.633,37.941z"/>
		</g>
	</g>
	<g>
		<path style="fill:#F4D3A2;" d="M75.068,94.182c0,1.393-4.691,1.643-10.478,1.643c-5.787,0-10.479-0.25-10.479-1.643
			c0-1.395,4.691-5.037,10.479-5.037C70.377,89.144,75.068,92.787,75.068,94.182z"/>
	</g>
	<g>
		<g>
			<path style="fill:#33363A;" d="M55.607,80.609c-0.367,0-0.735-0.134-1.025-0.405l-12.75-11.938
				c-0.604-0.566-0.636-1.516-0.07-2.12s1.515-0.638,2.121-0.069l12.75,11.938c0.604,0.566,0.636,1.516,0.07,2.12
				C56.407,80.45,56.008,80.609,55.607,80.609z"/>
		</g>
		<g>
			<path style="fill:#33363A;" d="M73.659,80.609c-0.401,0-0.8-0.159-1.096-0.475c-0.566-0.604-0.535-1.554,0.07-2.12l12.75-11.938
				c0.606-0.567,1.555-0.535,2.121,0.069c0.566,0.604,0.535,1.554-0.07,2.12l-12.75,11.938
				C74.394,80.476,74.026,80.609,73.659,80.609z"/>
		</g>
	</g>
	<g>
		<g>
			<g>
				<g>
					<polygon style="fill:#E2BF91;" points="93.97,110.937 116.441,109.408 115.051,100.57 127.766,94.977 120.717,83.006 
						127.012,76.648 109.67,62.275 95.016,77.08 95.875,77.793 86.834,81.769 91.844,90.279 90.728,90.357 					"/>
				</g>
				<g>
					<path style="fill:#33363A;" d="M93.968,112.437c-0.782,0-1.441-0.606-1.495-1.398c-0.056-0.826,0.568-1.542,1.395-1.598
						l20.837-1.419l-1.136-7.219c-0.105-0.673,0.255-1.332,0.878-1.606l11.17-4.914l-6.192-10.517
						c-0.346-0.586-0.252-1.332,0.227-1.816l5.142-5.192l-16.08-13.327c-0.638-0.529-0.727-1.475-0.198-2.112
						c0.528-0.638,1.474-0.727,2.112-0.198l17.342,14.373c0.324,0.269,0.521,0.661,0.541,1.082c0.021,0.42-0.136,0.83-0.432,1.129
						l-5.482,5.536l6.462,10.976c0.217,0.369,0.267,0.813,0.135,1.222c-0.132,0.407-0.432,0.739-0.824,0.912l-11.658,5.129
						l1.211,7.696c0.065,0.416-0.047,0.84-0.31,1.169c-0.262,0.329-0.651,0.532-1.07,0.561l-22.472,1.529
						C94.037,112.437,94.002,112.437,93.968,112.437z"/>
				</g>
			</g>
		</g>
		<g>
			<g>
				<g>
					<polygon style="fill:#E2BF91;" points="35.296,110.937 12.824,109.408 14.215,100.57 1.5,94.977 8.549,83.006 2.254,76.648 
						19.596,62.275 34.25,77.08 33.391,77.793 42.432,81.769 37.422,90.279 38.537,90.357 					"/>
				</g>
				<g>
					<path style="fill:#33363A;" d="M35.297,112.437c-0.034,0-0.069-0.001-0.104-0.004l-22.472-1.529
						c-0.419-0.028-0.808-0.231-1.07-0.561c-0.263-0.329-0.375-0.753-0.31-1.169l1.211-7.696L0.896,96.35
						c-0.392-0.173-0.692-0.505-0.824-0.912c-0.131-0.408-0.082-0.853,0.135-1.222L6.67,83.24l-5.482-5.536
						c-0.296-0.299-0.453-0.709-0.432-1.129c0.021-0.421,0.217-0.813,0.541-1.082L18.639,61.12c0.639-0.527,1.584-0.439,2.112,0.198
						c0.529,0.638,0.44,1.583-0.198,2.112L4.473,76.758l5.142,5.192c0.479,0.484,0.572,1.23,0.227,1.816L3.649,94.283l11.17,4.914
						c0.623,0.274,0.983,0.934,0.878,1.606l-1.136,7.219l20.837,1.419c0.826,0.056,1.451,0.771,1.395,1.598
						C36.739,111.831,36.08,112.437,35.297,112.437z"/>
				</g>
			</g>
		</g>
	</g>
	<g>
		<path style="fill:#CC4306;" d="M48.471,85.943c0,4.449-3.605,8.051-8.053,8.051c-4.445,0-8.051-3.602-8.051-8.051
			c0-4.447,3.605-8.053,8.051-8.053C44.865,77.891,48.471,81.496,48.471,85.943z"/>
	</g>
	<g>
		<circle style="fill:#FFFFFF;" cx="36.415" cy="83.326" r="3.28"/>
	</g>
	<path style="fill:#33363A;" d="M40.418,76.391c-3.249,0-6.12,1.634-7.846,4.12c-0.1,0.137-0.188,0.281-0.274,0.428
		c-0.902,1.458-1.432,3.169-1.432,5.005c0,5.267,4.285,9.551,9.551,9.551c5.268,0,9.553-4.284,9.553-9.551
		C49.971,80.676,45.686,76.391,40.418,76.391z M40.418,92.494c-2.721,0-5.058-1.668-6.047-4.035
		c0.689-0.019,1.528-0.201,2.473-0.397c0.334-0.03,0.656-0.093,0.967-0.189c0.819-0.148,1.694-0.268,2.608-0.268
		c2.413,0,4.573,0.814,6.049,0.854C45.478,90.826,43.14,92.494,40.418,92.494z"/>
	<circle style="fill:#FFFFFF;" cx="36.414" cy="83.326" r="1.779"/>
	<g>
		<path style="fill:#CC4306;" d="M96.898,85.943c0,4.449-3.605,8.051-8.051,8.051c-4.447,0-8.053-3.602-8.053-8.051
			c0-4.447,3.605-8.053,8.053-8.053C93.293,77.891,96.898,81.496,96.898,85.943z"/>
	</g>
	<g>
		<circle style="fill:#FFFFFF;" cx="84.843" cy="83.326" r="3.28"/>
	</g>
	<path style="fill:#33363A;" d="M88.848,76.391c-3.248,0-6.119,1.633-7.846,4.117c-0.102,0.138-0.19,0.284-0.277,0.433
		c-0.901,1.457-1.43,3.167-1.43,5.003c0,5.267,4.285,9.551,9.553,9.551c5.266,0,9.551-4.284,9.551-9.551
		C98.398,80.676,94.114,76.391,88.848,76.391z M88.848,92.494c-2.722,0-5.06-1.668-6.049-4.035c0.69-0.019,1.528-0.201,2.474-0.398
		c0.333-0.03,0.654-0.093,0.964-0.188c0.82-0.149,1.696-0.268,2.611-0.268c2.412,0,4.571,0.814,6.047,0.854
		C93.906,90.826,91.569,92.494,88.848,92.494z"/>
	<circle style="fill:#FFFFFF;" cx="84.842" cy="83.326" r="1.779"/>
	<g>
		<g>
			<ellipse style="fill:#FFCAE8;" cx="64.633" cy="100.982" rx="12.83" ry="7.93"/>
		</g>
		<g>
			<path style="fill:#EFA3CC;" d="M77.463,100.982c0,4.379-5.744,7.93-12.83,7.93s-12.83-3.551-12.83-7.93
				c0-4.379,5.744-1.049,12.83-1.049S77.463,96.603,77.463,100.982z"/>
		</g>
		<g>
			<path style="fill:#33363A;" d="M64.633,110.412c-8.036,0-14.33-4.142-14.33-9.43c0-5.286,6.294-9.428,14.33-9.428
				s14.33,4.142,14.33,9.428C78.963,106.27,72.668,110.412,64.633,110.412z M64.633,94.555c-6.142,0-11.33,2.943-11.33,6.428
				c0,3.485,5.188,6.43,11.33,6.43s11.33-2.944,11.33-6.43C75.963,97.498,70.774,94.555,64.633,94.555z"/>
		</g>
	</g>
	<g>
		<g>
			<path style="fill:#33363A;" d="M61.049,104.678c-0.829,0-1.5-0.672-1.5-1.5v-3.955c0-0.828,0.671-1.5,1.5-1.5s1.5,0.672,1.5,1.5
				v3.955C62.549,104.006,61.877,104.678,61.049,104.678z"/>
		</g>
		<g>
			<path style="fill:#33363A;" d="M68.217,104.678c-0.829,0-1.5-0.672-1.5-1.5v-3.955c0-0.828,0.671-1.5,1.5-1.5s1.5,0.672,1.5,1.5
				v3.955C69.717,104.006,69.045,104.678,68.217,104.678z"/>
		</g>
	</g>
	<g>
		<g>
			<polygon style="fill:#FFECD2;" points="93.504,48.773 84.07,27.779 75.053,31.832 64.633,21.412 54.213,31.832 45.195,27.779 
				35.762,48.773 56.753,58.209 57.222,57.164 64.633,64.576 72.043,57.166 72.512,58.209 			"/>
		</g>
		<g>
			<polygon style="fill:#F4D3A2;" points="75.053,49.414 64.633,38.994 54.213,49.414 45.195,45.361 42.335,51.727 56.753,58.209 
				57.222,57.164 64.633,64.576 72.043,57.166 72.512,58.209 86.931,51.727 84.07,45.361 			"/>
		</g>
		<g>
			<path style="fill:#33363A;" d="M93.505,50.273c-0.573,0-1.119-0.329-1.369-0.885l-8.819-19.626L75.667,33.2
				c-0.568,0.257-1.235,0.132-1.675-0.308l-9.359-9.359l-9.359,9.359c-0.44,0.439-1.108,0.563-1.675,0.308l-7.649-3.438
				L37.13,49.389c-0.34,0.755-1.226,1.094-1.983,0.753c-0.756-0.34-1.093-1.228-0.753-1.983l9.434-20.994
				c0.163-0.362,0.463-0.646,0.835-0.787c0.373-0.142,0.785-0.13,1.147,0.034l8.074,3.629l9.688-9.688
				c0.586-0.586,1.535-0.586,2.121,0l9.688,9.688l8.074-3.629c0.363-0.164,0.775-0.176,1.147-0.034s0.672,0.425,0.835,0.787
				l9.434,20.994c0.339,0.756,0.002,1.644-0.753,1.983C93.919,50.231,93.71,50.273,93.505,50.273z"/>
		</g>
	</g>
	<g>
		<g>
			<g>
				<polygon style="fill:#FFECD2;" points="48.916,35.953 27.257,29.769 25.567,38.557 11.709,39.506 14.279,53.156 6.201,57.004 
					17.641,76.406 36.448,67.449 35.881,66.488 45.734,65.812 43.908,56.107 44.984,56.412 				"/>
			</g>
			<g>
				<polygon style="fill:#F4D3A2;" points="39.428,49.271 25.568,50.221 28.141,63.873 20.061,67.719 23.531,73.602 36.448,67.449 
					35.881,66.488 45.734,65.812 43.908,56.107 44.984,56.412 47.685,42.361 41.117,40.484 				"/>
			</g>
			<g>
				<path style="fill:#33363A;" d="M17.642,77.906c-0.514,0-1.014-0.264-1.293-0.738L4.909,57.766
					c-0.214-0.362-0.266-0.798-0.143-1.2s0.41-0.734,0.79-0.916l7.035-3.351l-2.356-12.516c-0.079-0.421,0.025-0.855,0.288-1.194
					c0.262-0.34,0.657-0.55,1.084-0.579l12.706-0.871l1.471-7.652c0.08-0.413,0.329-0.774,0.688-0.994
					c0.358-0.223,0.792-0.282,1.197-0.165l21.659,6.184c0.797,0.228,1.258,1.058,1.031,1.854c-0.227,0.796-1.058,1.257-1.854,1.03
					L28.42,31.662l-1.38,7.178c-0.129,0.669-0.691,1.167-1.371,1.213l-12.174,0.834l2.258,11.992
					c0.126,0.669-0.214,1.339-0.829,1.632l-6.599,3.143l10.607,17.991c0.421,0.714,0.184,1.633-0.53,2.054
					C18.163,77.84,17.901,77.906,17.642,77.906z"/>
			</g>
		</g>
		<g>
			<g>
				<polygon style="fill:#FFECD2;" points="80.35,35.953 102.009,29.769 103.697,38.557 117.557,39.506 114.985,53.156 
					123.064,57.004 111.624,76.406 92.816,67.449 93.385,66.488 83.53,65.812 85.356,56.107 84.281,56.412 				"/>
			</g>
			<g>
				<polygon style="fill:#F4D3A2;" points="89.837,49.271 103.697,50.221 101.125,63.873 109.204,67.719 105.734,73.602 
					92.816,67.449 93.385,66.488 83.53,65.812 85.356,56.107 84.281,56.412 81.58,42.361 88.148,40.484 				"/>
			</g>
			<g>
				<path style="fill:#33363A;" d="M111.623,77.906c-0.259,0-0.521-0.066-0.76-0.208c-0.714-0.421-0.951-1.34-0.53-2.054
					l10.608-17.991l-6.6-3.143c-0.615-0.293-0.955-0.963-0.829-1.632l2.259-11.992l-12.175-0.834
					c-0.679-0.046-1.242-0.544-1.371-1.213l-1.379-7.178l-20.083,5.733c-0.792,0.227-1.626-0.234-1.854-1.03
					c-0.228-0.797,0.234-1.627,1.031-1.854l21.659-6.184c0.406-0.115,0.84-0.057,1.197,0.165c0.359,0.22,0.608,0.581,0.688,0.994
					l1.47,7.652l12.707,0.871c0.427,0.029,0.822,0.239,1.084,0.579c0.262,0.339,0.367,0.773,0.288,1.194l-2.357,12.516l7.036,3.351
					c0.38,0.182,0.667,0.514,0.79,0.916s0.071,0.838-0.143,1.2l-11.44,19.402C112.636,77.643,112.136,77.906,111.623,77.906z"/>
			</g>
		</g>
	</g>
</g>
<g>
</g>
<g>
</g>
<g>
</g>
<g>
</g>
<g>
</g>
<g>
</g>
<g>
</g>
<g>
</g>
<g>
</g>
<g>
</g>
<g>
</g>
<g>
</g>
<g>
</g>
<g>
</g>
<g>
</g>
</svg>
