<?xml version="1.0" encoding="iso-8859-1"?>
<!-- Generator: Adobe Illustrator 19.0.0, SVG Export Plug-In . SVG Version: 6.00 Build 0)  -->
<svg version="1.1" id="Layer_1" xmlns="http://www.w3.org/2000/svg" xmlns:xlink="http://www.w3.org/1999/xlink" x="0px" y="0px"
	 viewBox="0 0 128.005 128.005" style="enable-background:new 0 0 128.005 128.005;" xml:space="preserve">
<g>
	<g>
		<g>
			<path style="fill:#F9CB58;" d="M113.211,74.87c0,20.676-22.031,37.441-49.209,37.441S14.793,95.546,14.793,74.87
				c0-20.68,22.031-45.459,49.209-45.459S113.211,54.191,113.211,74.87z"/>
		</g>
		<g>
			<path style="fill:#E29C37;" d="M113.211,74.87c0,20.676-22.031,37.441-49.209,37.441S14.793,95.546,14.793,74.87
				c0-20.68,22.031-34.928,49.209-34.928S113.211,54.191,113.211,74.87z"/>
		</g>
		<g>
			<path style="fill:#96562C;" d="M64.002,98.136c24.06,0,44.073-13.143,48.352-30.504c-0.755-3.318-1.999-6.654-3.672-9.9
				c-5.74,6.557-18.275,21.303-44.68,21.303s-38.938-14.746-44.68-21.303c-1.672,3.246-2.916,6.582-3.672,9.9
				C19.93,84.993,39.943,98.136,64.002,98.136z"/>
		</g>
		<g>
			<path style="fill:#A8633D;" d="M111.863,65.773c-7.223,8.025-21.248,21.402-47.861,21.402s-40.637-13.377-47.86-21.402
				c-0.175,0.621-0.35,1.24-0.491,1.859c4.279,17.361,24.293,30.504,48.352,30.504c24.06,0,44.073-13.143,48.352-30.504
				C112.213,67.013,112.038,66.394,111.863,65.773z"/>
		</g>
		<g>
			<path style="fill:#33363A;" d="M64.002,99.636c-24.341,0-45.289-13.309-49.808-31.645c-0.056-0.228-0.058-0.465-0.006-0.692
				c0.779-3.42,2.058-6.87,3.801-10.254c0.228-0.441,0.658-0.742,1.151-0.803c0.493-0.058,0.983,0.128,1.311,0.501l0.24,0.274
				c5.826,6.659,17.949,20.517,43.311,20.517c25.365,0,37.487-13.858,43.313-20.519l0.238-0.272
				c0.328-0.373,0.816-0.555,1.311-0.501c0.493,0.061,0.924,0.36,1.151,0.802c1.744,3.385,3.023,6.835,3.801,10.255
				c0.052,0.229,0.05,0.465-0.006,0.692C109.292,86.327,88.344,99.636,64.002,99.636z M17.194,67.617
				c4.374,16.836,23.984,29.019,46.808,29.019c22.825,0,42.435-12.183,46.808-29.019c-0.57-2.393-1.405-4.806-2.493-7.199
				c-6.545,7.366-19.297,20.116-44.315,20.116c-25.018,0-37.77-12.751-44.315-20.116C18.6,62.813,17.764,65.225,17.194,67.617z"/>
		</g>
		<g>
			<path style="fill:#F9F1D2;" d="M113.211,74.87c0,20.676-22.031,37.441-49.209,37.441S14.793,95.546,14.793,74.87
				c0-20.682,6.262,18.34,49.209,18.34C106.95,93.21,113.211,54.189,113.211,74.87z"/>
		</g>
		<g>
			<path style="fill:#FFE98D;" d="M113.211,74.87c0,20.676-22.031,27.359-49.209,27.359S14.793,95.546,14.793,74.87
				c0-20.682,6.262,18.34,49.209,18.34C106.95,93.21,113.211,54.189,113.211,74.87z"/>
		</g>
		<g>
			<path style="fill:#33363A;" d="M64.002,113.812c-27.961,0-50.709-17.469-50.709-38.941c0-4.729,0.262-6.805,1.889-7.416
				c1.683-0.632,2.962,0.827,5.505,3.735c5.827,6.66,17.952,20.521,43.315,20.521c25.364,0,37.488-13.86,43.315-20.521
				c2.544-2.908,3.823-4.365,5.505-3.735c1.626,0.61,1.889,2.687,1.889,7.416C114.711,96.343,91.963,113.812,64.002,113.812z
				 M16.439,70.962c-0.081,0.726-0.146,1.926-0.146,3.908c0,19.818,21.402,35.941,47.709,35.941s47.709-16.123,47.709-35.941
				c0-1.982-0.065-3.183-0.146-3.908c-0.568,0.577-1.307,1.422-1.99,2.202c-6.118,6.994-18.848,21.546-45.573,21.546
				c-26.724,0-39.455-14.552-45.573-21.545C17.747,72.384,17.007,71.539,16.439,70.962z"/>
		</g>
		<g>
			<path style="fill:#33363A;" d="M64.002,113.812c-27.961,0-50.709-17.469-50.709-38.941c0-21.27,22.62-46.959,50.709-46.959
				s50.709,25.689,50.709,46.959C114.711,96.343,91.963,113.812,64.002,113.812z M64.002,30.911
				c-26.428,0-47.709,24.048-47.709,43.959c0,19.818,21.402,35.941,47.709,35.941s47.709-16.123,47.709-35.941
				C111.711,54.959,90.43,30.911,64.002,30.911z"/>
		</g>
	</g>
	<g>
		<g>
			<g>
				<polygon style="fill:#F9F1D2;" points="17.588,11.316 15.065,32.107 4.381,26.192 9.315,43.784 1.5,44.972 33.238,78.626 
					43.133,78.626 				"/>
			</g>
			<g>
				<polygon style="fill:#FFE98D;" points="37.879,78.626 17.588,25.159 15.065,45.95 8.976,42.579 9.315,43.784 5.592,44.351 
					7.568,51.405 33.238,78.626 				"/>
			</g>
			<g>
				<path style="fill:#33363A;" d="M43.133,80.126h-9.895c-0.413,0-0.808-0.17-1.091-0.471L0.409,46.001
					c-0.383-0.406-0.509-0.99-0.327-1.519c0.182-0.527,0.641-0.91,1.192-0.994l6.138-0.933L2.937,26.598
					c-0.163-0.583,0.039-1.206,0.514-1.582c0.475-0.375,1.128-0.429,1.657-0.136l8.736,4.836l2.255-18.581
					c0.083-0.686,0.623-1.226,1.308-1.309c0.683-0.076,1.338,0.312,1.583,0.957l25.545,67.311c0.175,0.461,0.112,0.979-0.168,1.384
					C44.087,79.884,43.626,80.126,43.133,80.126z M33.886,77.126h7.073L18.344,17.535l-1.79,14.752
					c-0.06,0.495-0.363,0.929-0.807,1.155c-0.444,0.227-0.972,0.219-1.409-0.023l-7.543-4.176l3.964,14.136
					c0.116,0.414,0.049,0.857-0.184,1.219c-0.233,0.361-0.61,0.604-1.035,0.67l-4.985,0.757L33.886,77.126z"/>
			</g>
		</g>
		<g>
			<g>
				<polygon style="fill:#F9F1D2;" points="110.416,11.316 112.942,32.107 123.623,26.192 118.692,43.784 126.505,44.972 
					94.767,78.626 84.873,78.626 				"/>
			</g>
			<g>
				<polygon style="fill:#FFE98D;" points="90.127,78.626 110.416,25.159 112.942,45.95 119.029,42.579 118.692,43.784 
					122.414,44.351 120.436,51.405 94.767,78.626 				"/>
			</g>
			<g>
				<path style="fill:#33363A;" d="M94.767,80.126h-9.894c-0.493,0-0.955-0.242-1.234-0.648c-0.28-0.405-0.343-0.923-0.168-1.384
					l25.543-67.311c0.245-0.646,0.901-1.034,1.583-0.957c0.685,0.083,1.225,0.623,1.308,1.309l2.257,18.581l8.734-4.836
					c0.528-0.294,1.183-0.239,1.657,0.136c0.475,0.376,0.677,0.999,0.514,1.582l-4.474,15.958l6.137,0.933
					c0.551,0.084,1.011,0.467,1.192,0.994c0.182,0.528,0.056,1.112-0.327,1.519L95.858,79.655
					C95.575,79.956,95.18,80.126,94.767,80.126z M87.047,77.126h7.072l29.331-31.102l-4.984-0.757
					c-0.425-0.065-0.801-0.309-1.035-0.67c-0.233-0.361-0.3-0.805-0.184-1.219l3.963-14.136l-7.542,4.176
					c-0.436,0.242-0.965,0.25-1.409,0.023c-0.444-0.227-0.747-0.66-0.807-1.155l-1.792-14.753L87.047,77.126z"/>
			</g>
		</g>
	</g>
	<g>
		<path style="fill:#5B524D;" d="M47.84,83.528c0,4.449-3.606,8.051-8.052,8.051c-4.446,0-8.051-3.601-8.051-8.051
			c0-4.447,3.604-8.053,8.051-8.053C44.234,75.476,47.84,79.081,47.84,83.528z"/>
	</g>
	<g>
		<circle style="fill:#FFFFFF;" cx="35.784" cy="80.911" r="3.28"/>
	</g>
	<path style="fill:#33363A;" d="M39.788,73.976c-3.243,0-6.109,1.628-7.836,4.107c-0.108,0.145-0.201,0.298-0.292,0.456
		c-0.896,1.454-1.422,3.16-1.422,4.99c0,5.267,4.285,9.551,9.551,9.551c5.267,0,9.552-4.284,9.552-9.551
		C49.34,78.261,45.055,73.976,39.788,73.976z M39.788,90.079c-2.721,0-5.058-1.668-6.047-4.035c0.689-0.019,1.528-0.201,2.473-0.397
		c0.333-0.03,0.654-0.093,0.965-0.188c0.819-0.149,1.695-0.268,2.609-0.268c2.413,0,4.572,0.814,6.048,0.854
		C44.847,88.411,42.51,90.079,39.788,90.079z"/>
	<circle style="fill:#FFFFFF;" cx="35.783" cy="80.911" r="1.779"/>
	<g>
		<path style="fill:#5B524D;" d="M96.268,83.528c0,4.449-3.605,8.051-8.051,8.051c-4.447,0-8.053-3.601-8.053-8.051
			c0-4.447,3.605-8.053,8.053-8.053C92.662,75.476,96.268,79.081,96.268,83.528z"/>
	</g>
	<g>
		<circle style="fill:#FFFFFF;" cx="84.212" cy="80.911" r="3.28"/>
	</g>
	<path style="fill:#33363A;" d="M88.217,73.976c-3.249,0-6.121,1.634-7.848,4.12c-0.1,0.137-0.188,0.281-0.273,0.428
		c-0.902,1.458-1.432,3.169-1.432,5.005c0,5.267,4.285,9.551,9.553,9.551c5.266,0,9.551-4.284,9.551-9.551
		C97.768,78.261,93.483,73.976,88.217,73.976z M88.217,90.079c-2.722,0-5.06-1.668-6.049-4.035c0.689-0.019,1.528-0.201,2.473-0.397
		c0.334-0.03,0.656-0.093,0.966-0.189c0.819-0.149,1.695-0.268,2.609-0.268c2.412,0,4.571,0.814,6.047,0.854
		C93.275,88.411,90.938,90.079,88.217,90.079z"/>
	<circle style="fill:#FFFFFF;" cx="84.212" cy="80.911" r="1.779"/>
	<g>
		<path style="fill:#A8633D;" d="M74.439,89.692c0,1.395-4.691,1.645-10.478,1.645c-5.787,0-10.478-0.25-10.478-1.645
			c0-1.393,4.691-5.035,10.478-5.035C69.747,84.657,74.439,88.3,74.439,89.692z"/>
	</g>
	<g>
		<g>
			<polygon style="fill:#E5B1C4;" points="82.461,98.23 64.002,116.689 45.545,98.23 64.004,86.085 			"/>
		</g>
		<g>
			<polyline style="fill:#B78094;" points="64.004,86.085 82.461,98.23 64.002,116.689 			"/>
		</g>
		<g>
			<polygon style="fill:#C191A0;" points="82.461,98.23 64.002,116.689 45.545,98.23 64.004,102.808 			"/>
		</g>
		<g>
			<path style="fill:#33363A;" d="M64.002,118.189L64.002,118.189c-0.398,0-0.779-0.158-1.061-0.439L44.484,99.29
				c-0.319-0.319-0.478-0.765-0.432-1.213s0.291-0.853,0.668-1.101L63.18,84.832c0.5-0.33,1.148-0.33,1.649,0l18.457,12.145
				c0.376,0.248,0.622,0.652,0.667,1.101s-0.113,0.895-0.432,1.213l-18.459,18.459C64.781,118.03,64.4,118.189,64.002,118.189z
				 M47.907,98.471l16.095,16.097l16.097-16.097l-16.095-10.59L47.907,98.471z"/>
		</g>
	</g>
	<g>
		<polygon style="fill:#F9CB58;" points="92.874,40.091 83.44,19.097 74.422,23.15 64.002,12.73 53.582,23.15 44.566,19.097 
			35.131,40.091 56.123,49.526 56.592,48.482 64.002,55.894 71.412,48.483 71.881,49.526 		"/>
	</g>
	<g>
		<polygon style="fill:#E29C37;" points="74.422,40.732 64.002,30.312 53.582,40.732 44.566,36.679 41.705,43.044 56.123,49.526 
			56.592,48.482 64.002,55.894 71.412,48.483 71.881,49.526 86.301,43.044 83.44,36.679 		"/>
	</g>
	<g>
		<path style="fill:#33363A;" d="M92.875,41.591c-0.573,0-1.119-0.329-1.369-0.885l-8.82-19.626l-7.649,3.438
			c-0.568,0.256-1.236,0.132-1.675-0.308l-9.359-9.359l-9.359,9.359c-0.439,0.439-1.108,0.563-1.675,0.308l-7.648-3.438
			l-8.82,19.626c-0.339,0.755-1.226,1.093-1.983,0.753c-0.756-0.34-1.093-1.228-0.753-1.983l9.435-20.994
			c0.163-0.362,0.463-0.646,0.835-0.787c0.373-0.142,0.786-0.129,1.147,0.034l8.073,3.629l9.688-9.688
			c0.586-0.586,1.535-0.586,2.121,0l9.688,9.688l8.074-3.629c0.363-0.163,0.775-0.176,1.147-0.034
			c0.372,0.142,0.672,0.425,0.835,0.787l9.435,20.994c0.34,0.756,0.002,1.644-0.753,1.983
			C93.289,41.549,93.081,41.591,92.875,41.591z"/>
	</g>
</g>
<g>
</g>
<g>
</g>
<g>
</g>
<g>
</g>
<g>
</g>
<g>
</g>
<g>
</g>
<g>
</g>
<g>
</g>
<g>
</g>
<g>
</g>
<g>
</g>
<g>
</g>
<g>
</g>
<g>
</g>
</svg>
