<?xml version="1.0" encoding="iso-8859-1"?>
<!-- Generator: Adobe Illustrator 19.0.0, SVG Export Plug-In . SVG Version: 6.00 Build 0)  -->
<svg version="1.1" id="Layer_1" xmlns="http://www.w3.org/2000/svg" xmlns:xlink="http://www.w3.org/1999/xlink" x="0px" y="0px"
	 viewBox="0 0 127.782 127.782" style="enable-background:new 0 0 127.782 127.782;" xml:space="preserve">
<g>
	<g>
		<g>
			<polygon style="fill:#FFD400;" points="90.685,5.927 64.69,5.927 50.365,31.066 62.005,31.066 46.735,62.091 86.864,26.183 
				73.827,26.183 			"/>
		</g>
		<g>
			<polygon style="fill:#FFB000;" points="59.724,14.642 50.365,31.066 62.005,31.066 46.735,62.091 77.124,34.898 66.995,34.898 
				74.247,26.183 73.827,26.183 83.431,14.642 			"/>
		</g>
		<g>
			<path style="fill:#33363A;" d="M46.734,63.591c-0.318,0-0.638-0.101-0.906-0.305c-0.572-0.435-0.757-1.213-0.439-1.857
				l14.206-28.863h-9.229c-0.534,0-1.028-0.284-1.297-0.746s-0.271-1.032-0.007-1.496L63.386,5.185
				c0.268-0.469,0.765-0.758,1.304-0.758h25.995c0.582,0,1.111,0.337,1.358,0.863c0.247,0.527,0.167,1.149-0.205,1.597
				L77.027,24.683h9.837c0.622,0,1.18,0.384,1.401,0.965s0.063,1.238-0.401,1.653l-40.13,35.908
				C47.451,63.463,47.093,63.591,46.734,63.591z M52.946,29.566h9.059c0.519,0,1,0.268,1.273,0.707
				c0.273,0.44,0.301,0.99,0.072,1.455L51.492,55.821l31.446-28.138h-9.111c-0.582,0-1.111-0.337-1.358-0.863
				c-0.247-0.527-0.167-1.149,0.205-1.597L87.484,7.427H65.562L52.946,29.566z"/>
		</g>
	</g>
	<g>
		<g>
			<path style="fill:#FFF800;" d="M113.1,84.413c0,20.676-22.032,37.441-49.209,37.441c-27.178,0-49.209-16.766-49.209-37.441
				c0-20.68,22.031-45.459,49.209-45.459C91.068,38.954,113.1,63.734,113.1,84.413z"/>
		</g>
		<g>
			<path style="fill:#FFD400;" d="M113.1,84.413c0,20.676-22.032,37.441-49.209,37.441c-27.178,0-49.209-16.766-49.209-37.441
				c0-20.68,22.031-34.928,49.209-34.928C91.068,49.486,113.1,63.734,113.1,84.413z"/>
		</g>
		<g>
			<path style="fill:#FFF800;" d="M74.37,74.615c0,1.393-4.691,1.643-10.479,1.643s-10.479-0.25-10.479-1.643
				c0-1.395,4.691-5.037,10.479-5.037S74.37,73.22,74.37,74.615z"/>
		</g>
		<g>
			<path style="fill:#FFB000;" d="M113.1,84.413c0,20.676-22.032,37.441-49.209,37.441c-27.178,0-49.209-16.766-49.209-37.441
				c0-20.682,6.261,18.34,49.209,18.34S113.1,63.732,113.1,84.413z"/>
		</g>
		<g>
			<path style="fill:#33363A;" d="M63.891,123.355c-27.961,0-50.709-17.469-50.709-38.941c0-21.27,22.619-46.959,50.709-46.959
				S114.6,63.144,114.6,84.413C114.6,105.886,91.852,123.355,63.891,123.355z M63.891,40.454c-26.428,0-47.709,24.048-47.709,43.959
				c0,19.818,21.402,35.941,47.709,35.941S111.6,104.232,111.6,84.413C111.6,64.502,90.318,40.454,63.891,40.454z"/>
		</g>
	</g>
	<g>
		<g>
			<g>
				<g>
					<path style="fill:#FFD400;" d="M9.197,47.273c6.385,10.541,15.331,16.738,23.985,17.811
						c1.492-10.754-0.872-23.232-7.258-33.773C19.539,20.767,10.593,14.57,1.94,13.501C0.447,24.251,2.812,36.732,9.197,47.273z"/>
				</g>
				<g>
					<path style="fill:#FFB000;" d="M1.94,13.501c-1.492,10.75,0.872,23.23,7.258,33.771c6.385,10.541,15.331,16.738,23.985,17.811
						L1.94,13.501z"/>
				</g>
				<path style="fill:#33363A;" d="M34.587,51.296c-1.041-7.334-3.593-14.514-7.379-20.764c-6.417-10.594-15.56-17.344-25.085-18.52
					c-0.816-0.101-1.557,0.47-1.669,1.282c-1.611,11.602,1.108,24.27,7.46,34.755c4.339,7.166,9.961,12.622,16.259,15.778
					c0.216,0.108,0.444,0.159,0.671,0.159c0.55,0,1.079-0.303,1.342-0.828c0.371-0.74,0.072-1.642-0.669-2.013
					c-5.791-2.903-10.99-7.969-15.036-14.651c-1.861-3.071-3.385-6.34-4.567-9.713c6.1-1,13.157,2.117,12.314-12.987
					c2.338,2.362,4.503,5.137,6.414,8.292c3.579,5.906,5.99,12.694,6.975,19.631c0.117,0.82,0.879,1.385,1.696,1.274
					C34.133,52.876,34.703,52.117,34.587,51.296z"/>
			</g>
		</g>
		<g>
			<g>
				<g>
					<path style="fill:#FFD400;" d="M118.584,47.273c-6.385,10.541-15.331,16.738-23.985,17.811
						c-1.492-10.754,0.871-23.232,7.258-33.773c6.386-10.543,15.332-16.74,23.986-17.808
						C127.334,24.251,124.971,36.732,118.584,47.273z"/>
				</g>
				<g>
					<path style="fill:#FFB000;" d="M125.843,13.501c1.491,10.75-0.872,23.23-7.259,33.771
						c-6.385,10.541-15.331,16.738-23.985,17.811L125.843,13.501z"/>
				</g>
				<path style="fill:#33363A;" d="M127.328,13.295c-0.112-0.813-0.857-1.382-1.669-1.282c-9.525,1.176-18.669,7.926-25.086,18.52
					c-3.787,6.253-6.339,13.434-7.378,20.764c-0.116,0.82,0.454,1.58,1.274,1.696c0.832,0.114,1.58-0.455,1.696-1.274
					c0.982-6.934,3.395-13.722,6.974-19.631c1.911-3.155,4.076-5.93,6.414-8.292c-0.844,15.104,6.214,11.987,12.315,12.987
					c-1.182,3.373-2.706,6.642-4.567,9.713c-4.048,6.684-9.247,11.75-15.036,14.651c-0.741,0.371-1.04,1.272-0.669,2.013
					c0.263,0.525,0.792,0.828,1.342,0.828c0.226,0,0.455-0.051,0.671-0.159c6.296-3.155,11.918-8.611,16.259-15.778
					C126.219,37.567,128.939,24.899,127.328,13.295z"/>
			</g>
		</g>
	</g>
	<g>
		<g>
			<circle style="fill:#FF1A1A;" cx="32.889" cy="87.775" r="7.013"/>
		</g>
		<g>
			<path style="fill:#D61D1D;" d="M39.902,87.775c0,3.871-3.14,7.012-7.013,7.012c-3.874,0-7.014-3.141-7.014-7.012"/>
		</g>
		<g>
			<circle style="fill:#FF1A1A;" cx="94.892" cy="87.775" r="7.014"/>
		</g>
		<g>
			<path style="fill:#D61D1D;" d="M101.905,87.775c0,3.871-3.141,7.012-7.014,7.012c-3.873,0-7.014-3.141-7.014-7.012"/>
		</g>
	</g>
	<path style="fill:#33363A;" d="M73.528,80.281c-0.828,0-1.5,0.672-1.5,1.5c0,1.427-1.162,2.588-2.591,2.588h-1.456
		c-1.428,0-2.59-1.161-2.59-2.588v-1.455c0-0.073-0.011-0.143-0.021-0.213l3.11-1.556c0.622-0.312,0.949-1.01,0.789-1.687
		s-0.765-1.155-1.46-1.155h-7.837c-0.695,0-1.3,0.479-1.46,1.155s0.167,1.375,0.789,1.687l3.109,1.556
		c-0.01,0.07-0.021,0.14-0.021,0.213v1.455c0,1.427-1.161,2.588-2.589,2.588h-1.457c-1.429,0-2.591-1.161-2.591-2.588
		c0-0.828-0.672-1.5-1.5-1.5s-1.5,0.672-1.5,1.5c0,3.081,2.508,5.588,5.591,5.588h1.457c1.616,0,3.069-0.693,4.09-1.792
		c1.021,1.099,2.475,1.792,4.091,1.792h1.456c3.083,0,5.591-2.507,5.591-5.588C75.028,80.953,74.357,80.281,73.528,80.281z"/>
	<g>
		<path style="fill:#6D5C4D;" d="M47.729,70.144c0,4.449-3.605,8.051-8.053,8.051c-4.446,0-8.051-3.602-8.051-8.051
			c0-4.447,3.604-8.053,8.051-8.053C44.123,62.091,47.729,65.697,47.729,70.144z"/>
	</g>
	<g>
		<circle style="fill:#FFFFFF;" cx="35.672" cy="67.527" r="3.281"/>
	</g>
	<path style="fill:#33363A;" d="M39.676,60.591c-3.245,0-6.113,1.63-7.84,4.111c-0.105,0.143-0.197,0.293-0.286,0.447
		c-0.897,1.455-1.425,3.163-1.425,4.995c0,5.267,4.284,9.551,9.551,9.551c5.268,0,9.553-4.284,9.553-9.551
		C49.229,64.876,44.943,60.591,39.676,60.591z M39.676,76.695c-2.721,0-5.058-1.668-6.047-4.035c0.681-0.018,1.511-0.202,2.44-0.394
		c0.356-0.03,0.699-0.097,1.029-0.201c0.809-0.145,1.675-0.259,2.577-0.259c2.413,0,4.573,0.814,6.049,0.854
		C44.736,75.027,42.398,76.695,39.676,76.695z"/>
	<circle style="fill:#FFFFFF;" cx="35.672" cy="67.527" r="1.779"/>
	<g>
		<path style="fill:#6D5C4D;" d="M96.155,70.144c0,4.449-3.604,8.051-8.051,8.051c-4.447,0-8.052-3.602-8.052-8.051
			c0-4.447,3.604-8.053,8.052-8.053C92.551,62.091,96.155,65.697,96.155,70.144z"/>
	</g>
	<g>
		<circle style="fill:#FFFFFF;" cx="84.1" cy="67.527" r="3.28"/>
	</g>
	<path style="fill:#33363A;" d="M88.105,60.591c-3.243,0-6.11,1.629-7.837,4.108c-0.107,0.145-0.201,0.298-0.292,0.455
		c-0.896,1.454-1.423,3.16-1.423,4.99c0,5.267,4.285,9.551,9.552,9.551s9.551-4.284,9.551-9.551
		C97.655,64.876,93.371,60.591,88.105,60.591z M88.105,76.695c-2.721,0-5.059-1.668-6.048-4.035
		c0.689-0.019,1.527-0.201,2.471-0.397c0.335-0.03,0.658-0.093,0.97-0.189c0.819-0.148,1.693-0.268,2.607-0.268
		c2.413,0,4.571,0.814,6.047,0.854C93.163,75.027,90.826,76.695,88.105,76.695z"/>
	<circle style="fill:#FFFFFF;" cx="84.101" cy="67.527" r="1.779"/>
</g>
<g>
</g>
<g>
</g>
<g>
</g>
<g>
</g>
<g>
</g>
<g>
</g>
<g>
</g>
<g>
</g>
<g>
</g>
<g>
</g>
<g>
</g>
<g>
</g>
<g>
</g>
<g>
</g>
<g>
</g>
</svg>
