<?xml version="1.0" encoding="iso-8859-1"?>
<!-- Generator: Adobe Illustrator 19.0.0, SVG Export Plug-In . SVG Version: 6.00 Build 0)  -->
<svg version="1.1" id="Capa_1" xmlns="http://www.w3.org/2000/svg" xmlns:xlink="http://www.w3.org/1999/xlink" x="0px" y="0px"
	 viewBox="0 0 476 476" style="enable-background:new 0 0 476 476;" xml:space="preserve">
<g>
	<path style="fill:#826E77;" d="M227.658,406.937v62.721C227.658,475.37,238,476,238,476v-68.397
		C234.495,407.603,231.048,407.36,227.658,406.937z"/>
	<path style="fill:#695A69;" d="M238,476c0,0,10.342-0.63,10.342-6.342v-62.721c-3.391,0.423-6.837,0.667-10.342,0.667V476z"/>
	<path style="fill:#7CDAAF;" d="M250.627,16.925c-0.934-3.288-1.835-6.446-2.687-9.426c-0.087-0.306-0.186-0.601-0.294-0.888
		c0.108,0.287,0.207,0.583,0.294,0.889C248.792,10.479,249.692,13.637,250.627,16.925z"/>
	<path style="fill:#7CDAAF;" d="M247.639,6.591c-0.997-2.636-2.831-4.482-5.001-5.536C244.807,2.109,246.642,3.955,247.639,6.591z"
		/>
	<path style="fill:#7CDAAF;" d="M238,335.206V0c-4.255,0-8.509,2.5-9.939,7.499c-21.984,76.851-72.8,260.628-72.8,317.365
		c0,42.19,31.586,76.98,72.397,82.073c3.391,0.423,6.837,0.667,10.342,0.667V335.206z"/>
	<path style="fill:#65B1A8;" d="M320.413,316.072c-4.196-62.297-47.75-221.618-69.786-299.147c-0.934-3.287-1.835-6.446-2.687-9.426
		c-0.087-0.306-0.186-0.602-0.294-0.889c-0.002-0.006-0.004-0.013-0.007-0.02c-0.997-2.636-2.832-4.482-5.001-5.536
		c-0.482-0.234-0.981-0.43-1.491-0.586s-1.031-0.273-1.557-0.352S238.532,0,238,0v335.206v72.397c3.505,0,6.952-0.243,10.342-0.667
		c0.753-0.094,1.511-0.173,2.258-0.287c10.956-1.674,21.205-5.497,30.303-11.025c1.137-0.691,2.257-1.409,3.357-2.152
		c9.904-6.691,18.281-15.47,24.501-25.705c2.073-3.412,3.906-6.985,5.476-10.698c1.047-2.475,1.976-5.011,2.782-7.602
		c2.417-7.772,3.72-16.036,3.72-24.604C320.739,322.204,320.628,319.265,320.413,316.072z"/>
</g>
<g>
</g>
<g>
</g>
<g>
</g>
<g>
</g>
<g>
</g>
<g>
</g>
<g>
</g>
<g>
</g>
<g>
</g>
<g>
</g>
<g>
</g>
<g>
</g>
<g>
</g>
<g>
</g>
<g>
</g>
</svg>
