<?xml version="1.0" encoding="iso-8859-1"?>
<!-- Generator: Adobe Illustrator 19.0.0, SVG Export Plug-In . SVG Version: 6.00 Build 0)  -->
<svg version="1.1" id="Layer_1" xmlns="http://www.w3.org/2000/svg" xmlns:xlink="http://www.w3.org/1999/xlink" x="0px" y="0px"
	 viewBox="0 0 127.645 127.645" style="enable-background:new 0 0 127.645 127.645;" xml:space="preserve">
<g>
	<g>
		<g>
			<g>
				<g>
					<path style="fill:#3662CE;" d="M119.829,10.016c7.048,9.68,8.524,22.881,2.655,34.246
						c-5.867,11.371-17.48,17.811-29.457,17.678c-7.047-9.684-8.523-22.881-2.654-34.25C96.24,16.323,107.852,9.881,119.829,10.016z
						"/>
				</g>
				<g>
					<path style="fill:#6892FC;" d="M93.027,61.94c-7.047-9.684-8.523-22.881-2.654-34.25c5.867-11.367,17.479-17.809,29.456-17.674
						"/>
				</g>
				<g>
					<path style="fill:#33363A;" d="M93.402,63.442c-0.131,0-0.261-0.001-0.392-0.002c-0.474-0.005-0.917-0.234-1.196-0.617
						c-7.674-10.545-8.736-24.271-2.774-35.821c5.962-11.549,17.764-18.617,30.806-18.485c0.474,0.006,0.917,0.234,1.196,0.617
						c7.676,10.543,8.739,24.268,2.775,35.817C117.917,56.383,106.289,63.442,93.402,63.442z M119.054,11.516
						c-11.598,0.143-22.026,6.551-27.349,16.862c-5.323,10.312-4.507,22.525,2.096,32.062c11.6-0.145,22.029-6.555,27.35-16.865
						C126.476,33.263,125.659,21.05,119.054,11.516z"/>
				</g>
			</g>
			<g>
				<g>
					<path style="fill:#EFA3CC;" d="M114.677,22.133c4.336,5.957,5.246,14.082,1.633,21.078
						c-3.61,6.998-10.758,10.965-18.131,10.881c-4.336-5.959-5.246-14.084-1.633-21.08
						C100.157,26.014,107.304,22.049,114.677,22.133z"/>
				</g>
				<g>
					<path style="fill:#CE86AF;" d="M98.179,54.092c-4.336-5.959-5.246-14.084-1.633-21.08c3.61-6.998,10.758-10.963,18.131-10.879"
						/>
				</g>
				<g>
					<path style="fill:#33363A;" d="M98.416,55.593c-0.085,0-0.169,0-0.254-0.001c-0.475-0.006-0.918-0.234-1.196-0.617
						c-4.853-6.669-5.524-15.349-1.753-22.651c3.769-7.305,11.229-11.798,19.48-11.69c0.475,0.006,0.917,0.234,1.196,0.617
						c4.853,6.668,5.524,15.346,1.753,22.649C113.913,51.13,106.562,55.593,98.416,55.593z M113.9,23.639
						c-6.802,0.192-12.892,3.995-16.021,10.061c-3.132,6.063-2.704,13.23,1.077,18.887c6.802-0.192,12.891-3.996,16.021-10.063
						C118.109,36.46,117.682,29.293,113.9,23.639z"/>
				</g>
			</g>
		</g>
		<g>
			<g>
				<g>
					<path style="fill:#3662CE;" d="M7.816,10.016c-7.047,9.68-8.524,22.881-2.655,34.246c5.867,11.371,17.48,17.811,29.458,17.678
						c7.047-9.684,8.523-22.881,2.654-34.25C31.405,16.323,19.793,9.881,7.816,10.016z"/>
				</g>
				<g>
					<path style="fill:#6892FC;" d="M34.619,61.94c7.047-9.684,8.523-22.881,2.654-34.25C31.405,16.323,19.793,9.881,7.816,10.016"
						/>
				</g>
				<g>
					<path style="fill:#33363A;" d="M34.244,63.442c-12.888,0-24.517-7.058-30.416-18.492C-2.135,33.401-1.072,19.676,6.603,9.133
						C6.882,8.75,7.326,8.522,7.799,8.516c0.132-0.001,0.266-0.002,0.397-0.002c12.883,0,24.508,7.056,30.409,18.487
						c5.962,11.551,4.898,25.276-2.774,35.821c-0.279,0.383-0.723,0.612-1.196,0.617C34.504,63.441,34.374,63.442,34.244,63.442z
						 M8.59,11.516C1.987,21.05,1.169,33.263,6.494,43.574c5.32,10.312,15.751,16.721,27.351,16.866
						c6.602-9.536,7.419-21.75,2.096-32.062C30.618,18.068,20.186,11.66,8.59,11.516z"/>
				</g>
			</g>
			<g>
				<g>
					<path style="fill:#EFA3CC;" d="M12.968,22.133C8.63,28.09,7.722,36.215,11.335,43.211c3.609,6.998,10.758,10.965,18.129,10.881
						c4.338-5.959,5.246-14.084,1.635-21.08C27.488,26.014,20.34,22.049,12.968,22.133z"/>
				</g>
				<g>
					<path style="fill:#CE86AF;" d="M29.464,54.092c4.338-5.959,5.246-14.084,1.635-21.08c-3.611-6.998-10.759-10.963-18.131-10.879
						"/>
				</g>
				<g>
					<path style="fill:#33363A;" d="M29.227,55.593c-8.146,0-15.495-4.463-19.225-11.694C6.23,36.595,6.902,27.916,11.755,21.25
						c0.279-0.383,0.723-0.611,1.196-0.617c8.2-0.079,15.71,4.386,19.48,11.691c3.771,7.305,3.098,15.983-1.755,22.65
						c-0.279,0.383-0.723,0.611-1.195,0.617C29.397,55.593,29.311,55.593,29.227,55.593z M13.746,23.639
						c-3.782,5.653-4.21,12.819-1.077,18.884c3.129,6.067,9.218,9.871,16.019,10.063c3.782-5.654,4.21-12.821,1.079-18.886
						C26.636,27.635,20.546,23.831,13.746,23.639z"/>
				</g>
			</g>
		</g>
	</g>
	<g>
		<g>
			<g>
				<g>
					<g>
						<g>
							<path style="fill:#6892FC;" d="M113.032,80.19c0,20.676-22.032,37.441-49.209,37.441c-27.178,0-49.209-16.766-49.209-37.441
								c0-20.68,22.031-45.459,49.209-45.459C91,34.731,113.032,59.51,113.032,80.19z"/>
						</g>
						<g>
							<path style="fill:#4F74E8;" d="M113.032,80.19c0,20.676-22.032,37.441-49.209,37.441c-27.178,0-49.209-16.766-49.209-37.441
								c0-20.68,22.031-34.928,49.209-34.928C91,45.262,113.032,59.51,113.032,80.19z"/>
						</g>
						<g>
							<path style="fill:#3662CE;" d="M113.032,80.19c0,20.676-22.032,37.441-49.209,37.441c-27.178,0-49.209-16.766-49.209-37.441
								c0-20.682,6.261,18.34,49.209,18.34S113.032,59.508,113.032,80.19z"/>
						</g>
						<g>
							<path style="fill:#33363A;" d="M63.823,119.131c-27.961,0-50.709-17.469-50.709-38.941c0-21.27,22.619-46.959,50.709-46.959
								s50.709,25.689,50.709,46.959C114.532,101.662,91.784,119.131,63.823,119.131z M63.823,36.231
								c-26.428,0-47.709,24.048-47.709,43.959c0,19.818,21.402,35.941,47.709,35.941s47.709-16.123,47.709-35.941
								C111.532,60.279,90.25,36.231,63.823,36.231z"/>
						</g>
					</g>
				</g>
			</g>
		</g>
		<g>
			<path style="fill:#6892FC;" d="M73.634,65.508c0,2.067-4.393,0.906-9.811,0.906s-9.812,1.16-9.812-0.906
				c0-2.064,4.393-3.74,9.812-3.74S73.634,63.444,73.634,65.508z"/>
		</g>
	</g>
	<g>
		<path style="fill:#33363A;" d="M91.142,96.598c0,5.844-4.738,10.582-10.582,10.582H48.996c-5.844,0-10.582-4.738-10.582-10.582
			V78.08c0-5.844,4.738-10.582,10.582-10.582H80.56c5.844,0,10.582,4.738,10.582,10.582V96.598z"/>
	</g>
	<g>
		<path style="fill:#702252;" d="M48.996,86.164c-5.818,0-10.537,4.699-10.578,10.508c0.041,5.809,4.76,10.508,10.578,10.508H80.56
			c5.818,0,10.537-4.699,10.578-10.508c-0.041-5.809-4.76-10.508-10.578-10.508H48.996z"/>
	</g>
	<g>
		<polyline style="fill:#FFFFFF;" points="60.777,69.268 55.592,80.602 50.408,69.268 		"/>
	</g>
	<g>
		<polyline style="fill:#FFFFFF;" points="79.148,69.268 73.963,80.602 68.779,69.268 		"/>
	</g>
	<g>
		<polyline style="fill:#FFFFFF;" points="73.871,105.116 79.056,93.782 84.242,105.116 		"/>
	</g>
	<g>
		<polyline style="fill:#FFFFFF;" points="45.314,105.116 50.5,93.782 55.685,105.116 		"/>
	</g>
	<path style="fill:#33363A;" d="M80.56,65.998H48.996c-6.662,0-12.082,5.42-12.082,12.082v18.518c0,6.662,5.42,12.082,12.082,12.082
		H80.56c6.662,0,12.082-5.42,12.082-12.082V78.08C92.642,71.418,87.222,65.998,80.56,65.998z M77.622,68.998l-3.658,7.998
		l-3.658-7.998H77.622z M59.25,68.998l-3.658,7.998l-3.658-7.998H59.25z M48.996,105.68c-0.748,0-1.47-0.101-2.166-0.272l3.67-8.021
		l3.794,8.293H48.996z M80.56,105.68h-5.298l3.794-8.293l3.67,8.021C82.03,105.579,81.308,105.68,80.56,105.68z M89.642,96.598
		c0,3.194-1.661,6.002-4.161,7.622L80.42,93.158c-0.244-0.534-0.777-0.876-1.364-0.876s-1.12,0.342-1.364,0.876l-5.186,11.334
		c-0.179,0.391-0.172,0.819-0.021,1.188H57.071c0.151-0.37,0.158-0.797-0.021-1.188l-5.186-11.334
		c-0.244-0.534-0.777-0.876-1.364-0.876s-1.12,0.342-1.364,0.876l-5.061,11.062c-2.5-1.62-4.161-4.428-4.161-7.622V78.08
		c0-4.987,4.041-9.045,9.02-9.079c-0.053,0.291-0.022,0.601,0.11,0.89l5.185,11.334c0.244,0.533,0.777,0.876,1.364,0.876
		s1.12-0.343,1.364-0.876l5.185-11.334c0.133-0.291,0.163-0.601,0.109-0.894h5.055c-0.054,0.292-0.024,0.603,0.109,0.894
		l5.185,11.334c0.244,0.533,0.777,0.876,1.364,0.876s1.12-0.343,1.364-0.876l5.185-11.334c0.133-0.29,0.163-0.599,0.11-0.89
		c4.979,0.034,9.02,4.092,9.02,9.079V96.598z"/>
</g>
<g>
</g>
<g>
</g>
<g>
</g>
<g>
</g>
<g>
</g>
<g>
</g>
<g>
</g>
<g>
</g>
<g>
</g>
<g>
</g>
<g>
</g>
<g>
</g>
<g>
</g>
<g>
</g>
<g>
</g>
</svg>
