<?xml version="1.0" encoding="iso-8859-1"?>
<!-- Generator: Adobe Illustrator 19.0.0, SVG Export Plug-In . SVG Version: 6.00 Build 0)  -->
<svg version="1.1" id="Layer_1" xmlns="http://www.w3.org/2000/svg" xmlns:xlink="http://www.w3.org/1999/xlink" x="0px" y="0px"
	 viewBox="0 0 127.26 127.26" style="enable-background:new 0 0 127.26 127.26;" xml:space="preserve">
<g>
	<g>
		<path style="fill:#F4D647;" d="M115.338,65.263c0,20.676-24.531,33.486-51.709,33.486S11.92,85.939,11.92,65.263
			c0-20.68,24.531-45.459,51.709-45.459S115.338,44.584,115.338,65.263z"/>
	</g>
	<g>
		<path style="fill:#E2B90E;" d="M115.338,65.263c0,20.676-24.531,32.152-51.709,32.152S11.92,85.939,11.92,65.263
			c0-20.68,24.531-34.928,51.709-34.928S115.338,44.584,115.338,65.263z"/>
	</g>
	<g>
		<path style="fill:#E2B90E;" d="M74.109,93.757c0,1.393-4.691,1.643-10.478,1.643c-5.787,0-10.479-0.25-10.479-1.643
			c0-1.395,4.691-5.037,10.479-5.037C69.417,88.72,74.109,92.363,74.109,93.757z"/>
	</g>
	<g>
		<path style="fill:#E0A010;" d="M115.338,65.263c0-20.682-8.761,18.34-51.709,18.34c-42.947,0-51.709-39.021-51.709-18.34
			c0,11.986,9.773,20.486,20.332,29.422l21.76,19.484c5.31,4.574,13.924,4.574,19.234,0l21.758-19.482
			C105.567,84.584,115.338,77.203,115.338,65.263z"/>
	</g>
	<g>
		<path style="fill:#F4EC8E;" d="M83.098,105.347c-4.733-5.432-11.697-8.869-19.468-8.869c-7.771,0-14.735,3.438-19.47,8.871
			l9.851,8.82c5.31,4.574,13.924,4.574,19.234,0L83.098,105.347z"/>
	</g>
	<path style="fill:#33363A;" d="M116.838,65.263c0-21.139-24.553-46.959-53.209-46.959S10.42,44.125,10.42,65.263
		c0,7.743,3.11,13.418,8.656,18.164c0.012,0.012,0.016,0.029,0.028,0.042l33.856,33.34c0.023,0.023,0.048,0.047,0.073,0.068
		c2.921,2.516,6.758,3.773,10.596,3.773c3.837,0,7.675-1.259,10.596-3.773c0.026-0.022,0.051-0.045,0.075-0.068l33.684-33.207
		C113.656,78.821,116.838,73.1,116.838,65.263z M72.23,114.635c-4.754,4.06-12.449,4.061-17.203-0.001l-9.115-8.976
		c4.594-4.889,10.996-7.681,17.717-7.681c6.718,0,13.118,2.789,17.712,7.675L72.23,114.635z M83.479,103.546
		c-5.156-5.455-12.324-8.568-19.848-8.568c-7.528,0-14.699,3.115-19.855,8.575L30.934,90.908c1.836,0.915,3.777,1.815,5.816,2.714
		c0.757,0.334,1.644-0.009,1.978-0.767s-0.009-1.644-0.767-1.978c-15.15-6.683-24.54-13.299-24.54-25.614
		c0-19.377,23.64-43.959,50.209-43.959s50.209,24.582,50.209,43.959c0,5.472-1.862,9.815-5.251,13.543
		c-0.012,0.011-0.028,0.014-0.039,0.026l-1.983,1.955c-4.207,3.757-10.077,6.92-17.265,10.091c-0.758,0.334-1.101,1.22-0.767,1.978
		c0.248,0.561,0.797,0.895,1.374,0.895c0.202,0,0.408-0.041,0.604-0.128c2.018-0.89,3.94-1.781,5.76-2.687L83.479,103.546z"/>
	<g>
		<g>
			<g>
				<g>
					<g>
						<path style="fill:#E2B90E;" d="M10.041,8.109C2.417,15.812-0.654,26.986,3.133,37.193
							C6.918,47.406,16.53,53.875,27.336,54.748c7.625-7.707,14.881-14.199,11.094-24.412C34.645,20.127,20.848,8.98,10.041,8.109z"
							/>
					</g>
					<g>
						<path style="fill:#F4EC8E;" d="M10.041,8.109C2.417,15.812-0.654,26.986,3.133,37.193
							C6.918,47.406,16.53,53.875,27.336,54.748c7.625-7.707-6.504-5.998-10.291-16.211C13.258,28.328,20.848,8.98,10.041,8.109z"/>
					</g>
					<g>
						<path style="fill:#DBD279;" d="M17.045,38.537c-3.098-8.354,1.414-22.818-2.761-28.281C8.096,17.804,5.84,27.894,9.29,37.193
							c3.149,8.496,10.335,14.389,18.882,16.637C33.776,47.17,20.672,48.32,17.045,38.537z"/>
					</g>
					<g>
						<path style="fill:#33363A;" d="M27.336,56.248c-0.381,0-0.763-0.145-1.055-0.434c-0.589-0.583-0.594-1.532-0.011-2.121
							c1.716-1.735,1.819-2.531,1.784-2.793c-0.099-0.735-1.731-1.677-3.311-2.588c-3.045-1.757-7.217-4.162-9.104-9.254
							c-1.561-4.206-1.33-9.608-1.108-14.834c0.375-8.804,0.353-14.22-4.61-14.62C9.095,9.538,8.48,8.814,8.546,7.989
							c0.066-0.826,0.782-1.432,1.616-1.375c8.094,0.652,7.724,9.338,7.367,17.738c-0.21,4.928-0.427,10.023,0.923,13.663
							c1.512,4.076,4.994,6.085,7.791,7.698c2.409,1.39,4.489,2.589,4.785,4.786c0.214,1.592-0.62,3.276-2.625,5.303
							C28.109,56.099,27.723,56.248,27.336,56.248z"/>
					</g>
					<g>
						<path style="fill:#33363A;" d="M27.338,56.248c-0.041,0-0.081-0.002-0.122-0.005C15.375,55.286,5.608,48.186,1.726,37.714
							c-3.884-10.47-1.107-22.219,7.249-30.66c0.311-0.315,0.74-0.473,1.187-0.44C21.514,7.529,37.355,22.29,41.349,33.062
							c0.288,0.776-0.108,1.64-0.885,1.928c-0.777,0.285-1.64-0.108-1.928-0.885c-3.545-9.56-17.78-23.062-27.926-24.427
							c-7.138,7.561-9.467,17.839-6.071,26.993c3.472,9.366,12.253,15.72,22.917,16.581c0.826,0.066,1.441,0.79,1.375,1.616
							C28.768,55.653,28.112,56.248,27.338,56.248z"/>
					</g>
				</g>
			</g>
			<g>
				<path style="fill:#33363A;" d="M21.692,63.916c-0.341,0-0.683-0.115-0.964-0.352c-0.634-0.533-0.716-1.479-0.183-2.114
					c3.236-3.848,6.937-8.616,7.271-9.609c0.131-0.818,0.883-1.343,1.709-1.199c0.818,0.131,1.365,0.944,1.233,1.762
					c-0.256,1.597-4.447,6.852-7.918,10.979C22.544,63.734,22.12,63.916,21.692,63.916z"/>
			</g>
		</g>
		<g>
			<g>
				<g>
					<g>
						<path style="fill:#E2B90E;" d="M117.218,8.109c7.624,7.703,10.696,18.877,6.908,29.084
							c-3.785,10.213-13.398,16.682-24.203,17.555c-7.624-7.707-14.882-14.199-11.095-24.412
							C92.616,20.127,106.411,8.98,117.218,8.109z"/>
					</g>
					<g>
						<path style="fill:#F4EC8E;" d="M117.218,8.109c7.624,7.703,10.696,18.877,6.908,29.084
							c-3.785,10.213-13.398,16.682-24.203,17.555c-7.624-7.707,6.505-5.998,10.292-16.211C114,28.328,106.411,8.98,117.218,8.109z"
							/>
					</g>
					<g>
						<path style="fill:#DBD279;" d="M110.215,38.537c3.098-8.354-1.414-22.818,2.76-28.281c6.189,7.549,8.444,17.639,4.994,26.938
							c-3.148,8.496-10.335,14.389-18.882,16.637C93.483,47.17,106.586,48.32,110.215,38.537z"/>
					</g>
					<g>
						<path style="fill:#33363A;" d="M99.923,56.248c-0.387,0-0.773-0.148-1.066-0.445c-2.004-2.026-2.838-3.711-2.624-5.303
							c0.296-2.196,2.376-3.396,4.785-4.786c2.797-1.613,6.279-3.621,7.791-7.698c1.349-3.639,1.132-8.733,0.922-13.661
							c-0.358-8.4-0.729-17.088,7.367-17.74c0.837-0.054,1.55,0.549,1.616,1.375c0.066,0.825-0.549,1.549-1.375,1.615
							c-4.964,0.4-4.986,5.817-4.611,14.622c0.223,5.225,0.453,10.627-1.106,14.832c-1.888,5.092-6.059,7.497-9.105,9.254
							c-1.579,0.911-3.211,1.853-3.311,2.588c-0.035,0.262,0.068,1.059,1.784,2.793c0.583,0.589,0.578,1.538-0.012,2.121
							C100.686,56.103,100.305,56.248,99.923,56.248z"/>
					</g>
					<g>
						<path style="fill:#33363A;" d="M99.922,56.248c-0.774,0-1.43-0.595-1.494-1.379c-0.067-0.826,0.548-1.55,1.375-1.616
							c10.665-0.861,19.446-7.215,22.917-16.581c3.397-9.154,1.068-19.433-6.07-26.993c-10.146,1.365-24.381,14.867-27.926,24.427
							c-0.288,0.776-1.151,1.172-1.928,0.885c-0.777-0.288-1.173-1.151-0.885-1.928c3.994-10.772,19.835-25.533,31.187-26.448
							c0.444-0.03,0.875,0.125,1.187,0.44c8.356,8.442,11.134,20.191,7.249,30.66c-3.881,10.472-13.648,17.571-25.489,18.528
							C100.003,56.246,99.962,56.248,99.922,56.248z"/>
					</g>
				</g>
			</g>
			<g>
				<path style="fill:#33363A;" d="M105.568,63.916c-0.428,0-0.852-0.182-1.149-0.534c-3.471-4.127-7.663-9.382-7.918-10.979
					c-0.131-0.817,0.426-1.587,1.244-1.718c0.815-0.133,1.587,0.427,1.718,1.245c0.315,0.905,4.016,5.673,7.252,9.521
					c0.533,0.634,0.452,1.58-0.183,2.113C106.251,63.8,105.909,63.916,105.568,63.916z"/>
			</g>
		</g>
	</g>
	<g>
		<g>
			<path style="fill:#33363A;" d="M53.794,93.56c-0.598,0-1.163-0.359-1.396-0.949c-0.024-0.061-2.277-5.76-2.948-7.338
				c-1.661-1.355-13.445-7.672-21.52-11.848c-0.736-0.38-1.024-1.285-0.644-2.021c0.38-0.736,1.286-1.024,2.021-0.644
				C51.35,82.157,51.855,83.29,52.097,83.835c0.539,1.216,2.987,7.411,3.091,7.675c0.305,0.771-0.073,1.642-0.844,1.946
				C54.163,93.527,53.977,93.56,53.794,93.56z"/>
		</g>
		<g>
			<path style="fill:#33363A;" d="M73.467,93.56c-0.183,0-0.37-0.033-0.55-0.104c-0.771-0.305-1.148-1.176-0.844-1.946
				c0.104-0.264,2.551-6.46,3.091-7.674c0.241-0.544,0.745-1.678,22.787-13.074c0.735-0.381,1.641-0.092,2.021,0.644
				s0.092,1.641-0.644,2.021c-8.075,4.176-19.86,10.492-21.519,11.848c-0.672,1.576-2.923,7.277-2.947,7.338
				C74.63,93.201,74.064,93.56,73.467,93.56z"/>
		</g>
	</g>
	<g>
		<g>
			<path style="fill:#33363A;" d="M60.795,112.541c-0.618,0-1.197-0.385-1.415-1.001l-0.926-2.625
				c-0.275-0.781,0.134-1.638,0.916-1.914c0.782-0.271,1.638,0.135,1.914,0.916l0.926,2.625c0.275,0.781-0.134,1.638-0.916,1.914
				C61.129,112.513,60.961,112.541,60.795,112.541z"/>
		</g>
		<g>
			<path style="fill:#33363A;" d="M66.464,112.541c-0.166,0-0.334-0.027-0.499-0.085c-0.781-0.276-1.191-1.133-0.916-1.914
				l0.926-2.625c0.275-0.781,1.132-1.188,1.914-0.916c0.781,0.276,1.191,1.133,0.916,1.914l-0.926,2.625
				C67.662,112.156,67.082,112.541,66.464,112.541z"/>
		</g>
	</g>
</g>
<g>
</g>
<g>
</g>
<g>
</g>
<g>
</g>
<g>
</g>
<g>
</g>
<g>
</g>
<g>
</g>
<g>
</g>
<g>
</g>
<g>
</g>
<g>
</g>
<g>
</g>
<g>
</g>
<g>
</g>
</svg>
