<?xml version="1.0" encoding="iso-8859-1"?>
<!-- Generator: Adobe Illustrator 19.0.0, SVG Export Plug-In . SVG Version: 6.00 Build 0)  -->
<svg version="1.1" id="Layer_1" xmlns="http://www.w3.org/2000/svg" xmlns:xlink="http://www.w3.org/1999/xlink" x="0px" y="0px"
	 viewBox="0 0 128.169 128.169" style="enable-background:new 0 0 128.169 128.169;" xml:space="preserve">
<g>
	<g>
		<path style="fill:#1A93D6;" d="M84.808,126.005c1.508-21.699,5.67-31.811,11.326-37.834H32.035
			c5.658,6.023,9.818,16.135,11.32,37.834H84.808z"/>
	</g>
	<g>
		<path style="fill:#FFFFFF;" d="M74.867,126.005c0.784-21.699,2.95-31.811,5.894-37.834h-33.35
			c2.943,6.023,5.108,16.135,5.89,37.834H74.867z"/>
	</g>
	<g>
		<path style="fill:#D9E7E8;" d="M51.759,105.22c3.939,0.795,8.069,1.219,12.326,1.219s8.387-0.426,12.327-1.219
			c1.077-8.275,2.57-13.41,4.349-17.049h-33.35C49.189,91.81,50.683,96.944,51.759,105.22z"/>
	</g>
	<g>
		<path style="fill:#33363A;" d="M84.81,127.505c-0.035,0-0.07-0.001-0.105-0.004c-0.827-0.058-1.45-0.773-1.393-1.6
			c1.214-17.477,4.218-28.87,9.63-36.23H35.228c5.413,7.359,8.415,18.753,9.624,36.23c0.058,0.826-0.566,1.543-1.393,1.6
			c-0.813,0.082-1.543-0.565-1.6-1.393c-1.308-18.881-4.674-30.264-10.918-36.91c-0.409-0.437-0.521-1.074-0.283-1.623
			c0.238-0.549,0.778-0.904,1.377-0.904h64.099c0.598,0,1.139,0.355,1.377,0.904c0.237,0.549,0.126,1.187-0.283,1.622
			c-6.243,6.648-9.611,18.032-10.924,36.911C86.249,126.899,85.59,127.505,84.81,127.505z"/>
	</g>
	<g>
		<g>
			<path style="fill:#77D6FC;" d="M113.294,60.212c0,20.676-22.032,37.441-49.209,37.441c-27.178,0-49.209-16.766-49.209-37.441
				c0-20.68,22.031-45.459,49.209-45.459C91.262,14.753,113.294,39.532,113.294,60.212z"/>
		</g>
		<g>
			<path style="fill:#42B1E8;" d="M113.294,60.212c0,20.676-22.032,37.441-49.209,37.441c-27.178,0-49.209-16.766-49.209-37.441
				c0-20.68,22.031-34.928,49.209-34.928C91.262,25.284,113.294,39.532,113.294,60.212z"/>
		</g>
		<g>
			<path style="fill:#77D6FC;" d="M74.563,70.849c0,1.393-4.691,1.643-10.479,1.643s-10.479-0.25-10.479-1.643
				c0-1.395,4.691-5.037,10.479-5.037S74.563,69.454,74.563,70.849z"/>
		</g>
		<g>
			<path style="fill:#1A93D6;" d="M113.294,60.212c0,20.676-22.032,37.941-49.209,37.941c-27.178,0-49.209-17.266-49.209-37.941
				c0-20.682,6.261,18.34,49.209,18.34C107.032,78.552,113.294,39.53,113.294,60.212z"/>
		</g>
		<g>
			<path style="fill:#33363A;" d="M37.868,93.392c-0.218,0-0.438-0.047-0.648-0.147c-14.931-7.171-23.844-19.519-23.844-33.032
				c0-21.27,22.619-46.959,50.709-46.959s50.709,25.689,50.709,46.959c0,13.515-8.914,25.862-23.844,33.03
				c-0.749,0.358-1.643,0.044-2.002-0.703c-0.358-0.747-0.044-1.644,0.703-2.002c13.865-6.656,22.143-17.993,22.143-30.325
				c0-19.911-21.281-43.959-47.709-43.959S16.376,40.301,16.376,60.212c0,12.332,8.277,23.669,22.143,30.327
				c0.747,0.359,1.062,1.255,0.703,2.002C38.963,93.078,38.427,93.392,37.868,93.392z"/>
		</g>
	</g>
	<g>
		<path style="fill:#465652;" d="M47.923,65.028c0,4.449-3.605,8.051-8.053,8.051c-4.446,0-8.051-3.602-8.051-8.051
			c0-4.447,3.605-8.051,8.051-8.051C44.317,56.977,47.923,60.581,47.923,65.028z"/>
	</g>
	<g>
		<circle style="fill:#FFFFFF;" cx="35.867" cy="62.411" r="3.281"/>
	</g>
	<path style="fill:#33363A;" d="M39.87,55.477c-3.24,0-6.104,1.625-7.831,4.099c-0.111,0.149-0.207,0.305-0.3,0.466
		c-0.894,1.453-1.42,3.157-1.42,4.985c0,5.267,4.284,9.551,9.551,9.551c5.268,0,9.553-4.284,9.553-9.551S45.138,55.477,39.87,55.477
		z M39.87,71.579c-2.721,0-5.058-1.668-6.046-4.034c0.688-0.018,1.525-0.2,2.468-0.396c0.336-0.03,0.66-0.093,0.972-0.19
		c0.818-0.148,1.693-0.267,2.606-0.267c2.413,0,4.572,0.813,6.048,0.853C44.929,69.911,42.592,71.579,39.87,71.579z"/>
	<circle style="fill:#FFFFFF;" cx="35.866" cy="62.412" r="1.78"/>
	<g>
		<path style="fill:#465652;" d="M96.35,65.028c0,4.449-3.604,8.051-8.051,8.051c-4.447,0-8.052-3.602-8.052-8.051
			c0-4.447,3.604-8.051,8.052-8.051C92.745,56.977,96.35,60.581,96.35,65.028z"/>
	</g>
	<g>
		<circle style="fill:#FFFFFF;" cx="84.294" cy="62.411" r="3.28"/>
	</g>
	<path style="fill:#33363A;" d="M88.299,55.477c-3.238,0-6.101,1.623-7.829,4.095c-0.113,0.151-0.211,0.311-0.306,0.475
		c-0.893,1.452-1.417,3.155-1.417,4.981c0,5.267,4.285,9.551,9.552,9.551s9.551-4.284,9.551-9.551S93.565,55.477,88.299,55.477z
		 M88.299,71.579c-2.721,0-5.058-1.668-6.047-4.034c0.688-0.018,1.525-0.2,2.469-0.396c0.335-0.03,0.658-0.093,0.97-0.189
		c0.819-0.148,1.694-0.268,2.609-0.268c2.412,0,4.571,0.813,6.046,0.853C93.357,69.911,91.02,71.579,88.299,71.579z"/>
	<circle style="fill:#FFFFFF;" cx="84.294" cy="62.412" r="1.78"/>
	<g>
		<g>
			<path style="fill:#D9E7E8;" d="M82.419,80.395c0,6.256-8.209,11.33-18.334,11.33s-18.332-5.074-18.332-11.33
				c0-6.258,8.207-5.861,18.332-5.861S82.419,74.138,82.419,80.395z"/>
		</g>
		<g>
			<path style="fill:#FFFFFF;" d="M82.419,80.395c0,6.256-8.209,11.33-18.334,11.33s-18.332-5.074-18.332-11.33
				c0-6.258,8.207-1.5,18.332-1.5S82.419,74.138,82.419,80.395z"/>
		</g>
		<g>
			<path style="fill:#33363A;" d="M64.085,93.226c-11.121,0-19.832-5.636-19.832-12.83c0-1.823,0.581-3.327,1.727-4.471
				c2.93-2.924,8.866-2.907,16.398-2.894l1.707,0.003l1.707-0.003c7.526-0.016,13.47-0.03,16.4,2.894
				c1.146,1.144,1.727,2.647,1.727,4.471C83.919,87.59,75.207,93.226,64.085,93.226z M60.822,76.029
				c-5.692,0-10.844,0.144-12.724,2.02c-0.577,0.575-0.846,1.321-0.846,2.347c0,5.328,7.708,9.83,16.832,9.83
				c9.125,0,16.834-4.502,16.834-9.83c0-1.025-0.269-1.771-0.846-2.347c-2.049-2.045-7.984-2.029-14.274-2.018l-1.714,0.003
				l-1.714-0.003C61.853,76.03,61.334,76.029,60.822,76.029z"/>
		</g>
	</g>
	<g>
		<path style="fill:#FFFFFF;" d="M21.232,2.161c-4.703,0-8.517,12.098-8.517,27.021c0,1.697,0.053,3.357,0.146,4.969
			c-4.359-4.738-8.594-7.291-10.45-5.957c-2.407,1.731,0.094,9.324,5.583,16.959c4.764,6.627,10.208,11.1,13.141,11.041
			c0.032,0.002,0.064,0.008,0.097,0.008c4.704,0,8.517-12.098,8.517-27.019C29.749,14.259,25.937,2.161,21.232,2.161z"/>
	</g>
	<g>
		<path style="fill:#D9E7E8;" d="M2.932,36.284c1.115,2.693,2.839,5.773,5.064,8.869c4.764,6.627,10.208,11.1,13.141,11.041
			c0.032,0.002,0.064,0.008,0.097,0.008c4.257,0,7.784-9.91,8.415-22.853c-0.631-12.945-4.158-22.854-8.415-22.854
			c-4.246,0-7.766,9.861-8.409,22.76c0.014,0.297,0.021,0.601,0.039,0.896c-0.025-0.027-0.05-0.053-0.074-0.078
			c-0.046,1.127-0.072,2.275-0.072,3.441c0,1.699,0.053,3.359,0.146,4.971C8.868,38.142,4.983,35.645,2.932,36.284z"/>
	</g>
	<path style="fill:#33363A;" d="M21.232,0.661c-6.576,0-10.017,14.348-10.017,28.521c0,0.409,0.003,0.821,0.009,1.235
		c-2.968-2.665-7.01-5.363-9.688-3.441c-1.23,0.885-2.354,2.982-0.719,7.952c1.102,3.345,3.218,7.286,5.96,11.101
		c4.187,5.823,10.213,11.663,14.301,11.666c0.054,0.004,0.117,0.007,0.154,0.007c6.576,0,10.017-14.347,10.017-28.52
		C31.249,15.009,27.809,0.661,21.232,0.661z M21.279,54.701c-0.021-0.002-0.041-0.003-0.053-0.004
		c-0.03-0.002-0.061-0.003-0.091-0.003c-0.019,0-0.038,0.001-0.061,0.001c-1.827,0-6.684-3.213-11.862-10.418
		c-2.568-3.571-4.538-7.225-5.546-10.287c-1.054-3.202-0.616-4.408-0.38-4.578c0.632-0.449,3.757,0.734,8.185,5.452v2.184
		c0,3.032,2.468,5.5,5.5,5.5h0.744c3.032,0,5.5-2.468,5.5-5.5v-3.115c0-0.828-0.672-1.5-1.5-1.5s-1.5,0.672-1.5,1.5v3.115
		c0,1.379-1.121,2.5-2.5,2.5h-0.744c-1.379,0-2.5-1.121-2.5-2.5v-3.115c0-0.228-0.055-0.442-0.146-0.635
		c-0.068-1.385-0.11-2.767-0.11-4.115c0-15.579,4.155-25.521,7.017-25.521s7.017,9.942,7.017,25.521
		C28.249,44.676,24.139,54.594,21.279,54.701z"/>
	<g>
		<path style="fill:#FFFFFF;" d="M106.937,2.161c4.703,0,8.517,12.098,8.517,27.021c0,1.697-0.052,3.357-0.146,4.969
			c4.358-4.738,8.593-7.291,10.449-5.957c2.407,1.731-0.094,9.324-5.583,16.959c-4.763,6.627-10.208,11.1-13.14,11.041
			c-0.033,0.002-0.064,0.008-0.098,0.008c-4.703,0-8.516-12.098-8.516-27.019C98.421,14.259,102.233,2.161,106.937,2.161z"/>
	</g>
	<g>
		<path style="fill:#D9E7E8;" d="M125.237,36.284c-1.115,2.693-2.838,5.773-5.063,8.869c-4.763,6.627-10.208,11.1-13.14,11.041
			c-0.033,0.002-0.064,0.008-0.098,0.008c-4.256,0-7.783-9.91-8.415-22.853c0.632-12.945,4.159-22.854,8.415-22.854
			c4.246,0,7.766,9.861,8.41,22.76c-0.014,0.297-0.022,0.601-0.039,0.896c0.024-0.027,0.049-0.053,0.074-0.078
			c0.045,1.127,0.071,2.275,0.071,3.441c0,1.699-0.052,3.359-0.146,4.971C119.302,38.142,123.187,35.645,125.237,36.284z"/>
	</g>
	<path style="fill:#33363A;" d="M126.632,26.976c-2.675-1.926-6.72,0.776-9.688,3.441c0.006-0.413,0.009-0.825,0.009-1.235
		c0-14.174-3.44-28.521-10.017-28.521c-6.575,0-10.016,14.348-10.016,28.521c0,14.173,3.44,28.52,10.016,28.52
		c0.021,0,0.088-0.004,0.137-0.007c0.006,0,0.011,0,0.016,0c4.088-0.001,10.117-5.842,14.303-11.666
		c2.742-3.814,4.858-7.756,5.96-11.101C128.987,29.959,127.863,27.861,126.632,26.976z M124.502,33.99
		c-1.008,3.063-2.978,6.716-5.546,10.288c-5.179,7.205-10.034,10.417-11.861,10.417c-0.011,0-0.021,0-0.03-0.001
		c-0.042,0-0.079,0.001-0.118,0.003c-0.011,0-0.033,0.002-0.055,0.004c-2.859-0.104-6.971-10.022-6.971-25.519
		c0-15.579,4.155-25.521,7.016-25.521c2.861,0,7.017,9.942,7.017,25.521c0,1.356-0.042,2.736-0.109,4.113
		c-0.092,0.194-0.147,0.408-0.147,0.637v3.115c0,1.379-1.121,2.5-2.5,2.5h-0.744c-1.379,0-2.5-1.121-2.5-2.5v-3.115
		c0-0.828-0.672-1.5-1.5-1.5s-1.5,0.672-1.5,1.5v3.115c0,3.032,2.468,5.5,5.5,5.5h0.744c3.032,0,5.5-2.468,5.5-5.5v-2.183
		c4.428-4.718,7.562-5.901,8.184-5.453C125.118,29.582,125.556,30.788,124.502,33.99z"/>
	<g>
		<circle style="fill:#FFFFFF;" cx="64.085" cy="44.198" r="5.307"/>
	</g>
	<g>
		<path style="fill:#D9E7E8;" d="M58.778,44.198c0-2.93,2.375-5.307,5.307-5.307c2.932,0,5.307,2.377,5.307,5.307"/>
	</g>
	<g>
		<path style="fill:#33363A;" d="M64.085,51.005c-3.753,0-6.807-3.054-6.807-6.807s3.054-6.807,6.807-6.807s6.807,3.054,6.807,6.807
			S67.838,51.005,64.085,51.005z M64.085,40.392c-2.099,0-3.807,1.708-3.807,3.807s1.708,3.807,3.807,3.807s3.807-1.708,3.807-3.807
			S66.184,40.392,64.085,40.392z"/>
	</g>
	<g>
		<path style="fill:#33363A;" d="M69.392,45.698c-0.828,0-1.5-0.672-1.5-1.5c0-2.099-1.708-3.807-3.807-3.807
			s-3.807,1.708-3.807,3.807c0,0.828-0.672,1.5-1.5,1.5s-1.5-0.672-1.5-1.5c0-3.753,3.054-6.807,6.807-6.807
			s6.807,3.054,6.807,6.807C70.892,45.026,70.22,45.698,69.392,45.698z"/>
	</g>
</g>
<g>
</g>
<g>
</g>
<g>
</g>
<g>
</g>
<g>
</g>
<g>
</g>
<g>
</g>
<g>
</g>
<g>
</g>
<g>
</g>
<g>
</g>
<g>
</g>
<g>
</g>
<g>
</g>
<g>
</g>
</svg>
