<?xml version="1.0" encoding="iso-8859-1"?>
<!-- Generator: Adobe Illustrator 19.0.0, SVG Export Plug-In . SVG Version: 6.00 Build 0)  -->
<svg version="1.1" id="Layer_1" xmlns="http://www.w3.org/2000/svg" xmlns:xlink="http://www.w3.org/1999/xlink" x="0px" y="0px"
	 viewBox="0 0 126.443 126.443" style="enable-background:new 0 0 126.443 126.443;" xml:space="preserve">
<g>
	<g>
		<g>
			<path style="fill:#33363A;" d="M63.222,23.336c-1.657,0-3-1.343-3-3V3c0-1.657,1.343-3,3-3s3,1.343,3,3v17.336
				C66.222,21.993,64.879,23.336,63.222,23.336z"/>
		</g>
		<g>
			<g>
				<path style="fill:#33363A;" d="M60.044,26.301c-0.969,0-1.919-0.468-2.497-1.333l-9.636-14.416
					c-0.921-1.377-0.551-3.24,0.827-4.161c1.377-0.922,3.241-0.55,4.161,0.827l9.636,14.416c0.921,1.377,0.551,3.24-0.827,4.161
					C61.196,26.138,60.617,26.301,60.044,26.301z"/>
			</g>
			<g>
				<path style="fill:#33363A;" d="M66.399,26.301c-0.573,0-1.152-0.163-1.664-0.506c-1.378-0.921-1.748-2.784-0.827-4.161
					l9.636-14.416c0.92-1.377,2.784-1.749,4.161-0.827c1.378,0.921,1.748,2.784,0.827,4.161l-9.636,14.416
					C68.318,25.833,67.368,26.301,66.399,26.301z"/>
			</g>
		</g>
	</g>
	<g>
		<path style="fill:#FFF800;" d="M112.431,69.51c0,20.676-22.032,37.441-49.209,37.441c-27.178,0-49.209-16.766-49.209-37.441
			c0-20.68,22.031-45.459,49.209-45.459C90.398,24.051,112.431,48.83,112.431,69.51z"/>
	</g>
	<g>
		<path style="fill:#FFD400;" d="M112.431,69.51c0,20.676-22.032,37.441-49.209,37.441c-27.178,0-49.209-16.766-49.209-37.441
			c0-20.68,22.031-34.928,49.209-34.928C90.398,34.582,112.431,48.83,112.431,69.51z"/>
	</g>
	<g>
		<path style="fill:#FFF800;" d="M73.701,58.367c0,1.395-4.691,1.645-10.479,1.645s-10.479-0.25-10.479-1.645
			c0-1.393,4.691-5.035,10.479-5.035S73.701,56.975,73.701,58.367z"/>
	</g>
	<g>
		<path style="fill:#FFB000;" d="M112.431,69.51c0,20.676-22.032,37.441-49.209,37.441c-27.178,0-49.209-16.766-49.209-37.441
			c0-20.682,6.261,18.34,49.209,18.34S112.431,48.828,112.431,69.51z"/>
	</g>
	<g>
		<path style="fill:#33363A;" d="M63.222,108.451c-27.961,0-50.709-17.469-50.709-38.941c0-21.27,22.619-46.959,50.709-46.959
			s50.709,25.689,50.709,46.959C113.931,90.982,91.183,108.451,63.222,108.451z M63.222,25.551
			c-26.428,0-47.709,24.048-47.709,43.959c0,19.818,21.402,35.941,47.709,35.941s47.709-16.123,47.709-35.941
			C110.931,49.599,89.649,25.551,63.222,25.551z"/>
	</g>
	<g>
		<g>
			<g>
				<g>
					<g>
						<path style="fill:#33363A;" d="M47.06,60.822c-0.828,0-1.5-0.672-1.5-1.5c0-0.87-2.487-2.469-6.552-2.469
							c-4.063,0-6.551,1.599-6.551,2.469c0,0.828-0.672,1.5-1.5,1.5s-1.5-0.672-1.5-1.5c0-3.118,4.105-5.469,9.551-5.469
							s9.552,2.351,9.552,5.469C48.56,60.15,47.888,60.822,47.06,60.822z"/>
					</g>
				</g>
			</g>
			<g>
				<g>
					<g>
						<path style="fill:#33363A;" d="M95.486,60.822c-0.828,0-1.5-0.672-1.5-1.5c0-0.87-2.487-2.469-6.551-2.469
							c-4.064,0-6.552,1.599-6.552,2.469c0,0.828-0.672,1.5-1.5,1.5s-1.5-0.672-1.5-1.5c0-3.118,4.106-5.469,9.552-5.469
							s9.551,2.351,9.551,5.469C96.986,60.15,96.314,60.822,95.486,60.822z"/>
					</g>
				</g>
			</g>
		</g>
	</g>
	<g>
		<path style="fill:#FFF4C7;" d="M102.636,101.758c0-12.697-11.573-16.83-20.176-23.713c-14.393-12.383-9.663-20.273-18.641-20.889
			v-0.043c-0.209,0-0.401,0.008-0.598,0.014c-0.196-0.006-0.389-0.014-0.598-0.014v0.043c-8.978,0.615-4.248,8.506-18.641,20.889
			c-8.603,6.883-20.176,11.016-20.176,23.713c0,20.506,20.319,22.297,38.816,23.145v0.041c0.198,0,0.398-0.016,0.598-0.02
			c0.199,0.004,0.399,0.02,0.598,0.02v-0.041C82.316,124.055,102.636,122.264,102.636,101.758z"/>
	</g>
	<g>
		<path style="fill:#E0D5A4;" d="M102.051,101.914C99.604,90.207,89.918,89.412,82.46,83.445
			c-14.393-12.383-9.663-20.272-18.641-20.889v-0.043c-0.209,0-0.401,0.01-0.598,0.016c-0.196-0.006-0.389-0.016-0.598-0.016v0.043
			c-8.978,0.617-4.248,8.506-18.641,20.889c-7.458,5.967-17.144,6.762-19.591,18.469c3.435,15.287,21.568,16.822,38.231,17.588
			v0.041c0.198,0,0.398-0.016,0.598-0.021c0.199,0.006,0.399,0.021,0.598,0.021v-0.041
			C80.482,118.736,98.616,117.201,102.051,101.914z"/>
	</g>
	<g>
		<path style="fill:#33363A;" d="M63.819,126.443c-0.136,0-0.271-0.006-0.408-0.012l-0.219-0.008l-0.16,0.008
			c-0.282,0.013-0.568,0.027-0.824-0.047c-16.027-0.735-39.9-1.992-39.9-24.627c0-10.637,7.495-15.701,14.743-20.599
			c2.02-1.364,4.107-2.774,5.995-4.285c6.861-5.905,9.193-10.729,10.896-14.253c1.74-3.601,3.123-6.462,8.226-6.933
			c0.31-0.104,0.664-0.075,0.984-0.064l0.114,0.004l0.024-0.004c0.327-0.011,0.688-0.038,1.003,0.065
			c5.087,0.477,6.469,3.335,8.207,6.932c1.703,3.523,4.035,8.348,10.938,14.287c1.847,1.477,3.935,2.887,5.954,4.251
			c7.248,4.897,14.743,9.962,14.743,20.599c0,22.64-23.886,23.892-39.913,24.628C64.095,126.423,63.959,126.443,63.819,126.443z
			 M63.192,123.424l0.325,0.01c0.076-0.016,0.153-0.026,0.233-0.029c20.454-0.938,37.385-3.214,37.385-21.646
			c0-9.043-6.52-13.448-13.423-18.112c-2.068-1.397-4.207-2.843-6.19-4.43C74.106,72.837,71.515,67.475,69.8,63.927
			c-1.717-3.553-2.428-5.023-6.083-5.274c-0.078-0.005-0.154-0.017-0.229-0.033c-0.034,0.001-0.068,0.002-0.102,0.003l-0.12,0.004
			l-0.21-0.004c-0.035-0.001-0.07-0.002-0.105-0.003c-0.073,0.017-0.148,0.028-0.225,0.033c-3.655,0.251-4.366,1.722-6.083,5.274
			c-1.715,3.548-4.307,8.91-11.682,15.255c-2.024,1.621-4.163,3.066-6.231,4.464c-6.903,4.664-13.423,9.069-13.423,18.112
			c0,18.433,16.931,20.709,37.385,21.646c0.081,0.003,0.16,0.014,0.237,0.029L63.192,123.424z"/>
	</g>
	<g>
		<g>
			<path style="fill:#33363A;" d="M59.077,76.213c-0.573,0-1.12-0.33-1.37-0.887l-1.102-2.457c-0.339-0.756,0-1.644,0.756-1.982
				c0.755-0.338,1.643,0,1.982,0.756l1.102,2.457c0.339,0.756,0,1.644-0.756,1.982C59.49,76.171,59.282,76.213,59.077,76.213z"/>
		</g>
		<g>
			<path style="fill:#33363A;" d="M67.366,76.213c-0.205,0-0.413-0.042-0.612-0.131c-0.756-0.339-1.095-1.227-0.756-1.982
				l1.102-2.457c0.34-0.756,1.227-1.093,1.982-0.756c0.756,0.339,1.095,1.227,0.756,1.982l-1.102,2.457
				C68.486,75.883,67.939,76.213,67.366,76.213z"/>
		</g>
	</g>
</g>
<g>
</g>
<g>
</g>
<g>
</g>
<g>
</g>
<g>
</g>
<g>
</g>
<g>
</g>
<g>
</g>
<g>
</g>
<g>
</g>
<g>
</g>
<g>
</g>
<g>
</g>
<g>
</g>
<g>
</g>
</svg>
