<?xml version="1.0" encoding="iso-8859-1"?>
<!-- Generator: Adobe Illustrator 19.0.0, SVG Export Plug-In . SVG Version: 6.00 Build 0)  -->
<svg version="1.1" id="Layer_1" xmlns="http://www.w3.org/2000/svg" xmlns:xlink="http://www.w3.org/1999/xlink" x="0px" y="0px"
	 viewBox="0 0 127.543 127.543" style="enable-background:new 0 0 127.543 127.543;" xml:space="preserve">
<g>
	<g>
		<g>
			<g>
				<path style="fill:#0D5C9E;" d="M11.573,15.268c-7.047,9.68-8.523,22.881-2.655,34.246c5.867,11.371,17.481,17.81,29.458,17.678
					c7.047-9.684,8.522-22.881,2.654-34.25C35.162,21.574,23.551,15.133,11.573,15.268z"/>
			</g>
			<g>
				<path style="fill:#009BE8;" d="M38.376,67.191c7.047-9.684,8.522-22.881,2.654-34.25c-5.868-11.367-17.479-17.809-29.457-17.674
					"/>
			</g>
			<g>
				<path style="fill:#33363A;" d="M38.001,68.693c-12.888,0-24.517-7.058-30.416-18.492c-5.963-11.549-4.9-25.273,2.775-35.816
					c0.279-0.383,0.722-0.611,1.196-0.617c0.132-0.001,0.266-0.002,0.397-0.002c12.883,0,24.508,7.056,30.41,18.487
					c5.962,11.551,4.899,25.276-2.774,35.821c-0.279,0.383-0.722,0.612-1.196,0.617C38.262,68.692,38.131,68.693,38.001,68.693z
					 M12.348,16.768c-6.604,9.534-7.421,21.747-2.097,32.058c5.32,10.312,15.751,16.721,27.351,16.866
					c6.602-9.536,7.418-21.75,2.096-32.062C34.375,23.319,23.944,16.911,12.348,16.768z"/>
			</g>
		</g>
		<g>
			<g>
				<path style="fill:#0D5C9E;" d="M115.97,15.268c7.047,9.68,8.523,22.881,2.655,34.246c-5.867,11.371-17.48,17.81-29.458,17.678
					c-7.047-9.684-8.522-22.881-2.654-34.25C92.381,21.574,103.992,15.133,115.97,15.268z"/>
			</g>
			<g>
				<path style="fill:#009BE8;" d="M89.167,67.191c-7.047-9.684-8.522-22.881-2.654-34.25c5.868-11.367,17.479-17.809,29.457-17.674
					"/>
			</g>
			<g>
				<path style="fill:#33363A;" d="M89.542,68.693c-0.131,0-0.26-0.001-0.392-0.002c-0.474-0.005-0.917-0.234-1.196-0.617
					c-7.673-10.545-8.736-24.271-2.774-35.82c5.901-11.432,17.528-18.488,30.41-18.488c0.132,0,0.264,0.001,0.397,0.002
					c0.474,0.006,0.917,0.234,1.196,0.617c7.675,10.543,8.739,24.268,2.775,35.817C114.059,61.635,102.429,68.693,89.542,68.693z
					 M115.195,16.768c-11.597,0.143-22.027,6.551-27.35,16.862s-4.506,22.525,2.096,32.062c11.6-0.145,22.03-6.555,27.351-16.865
					C122.616,38.515,121.799,26.302,115.195,16.768z"/>
			</g>
		</g>
	</g>
	<g>
		<g>
			<g>
				<g>
					<g>
						<g>
							<path style="fill:#009BE8;" d="M126.043,68.844c0,26.166-27.88,47.381-62.271,47.381S1.5,95.01,1.5,68.844
								c0-26.168,27.88-57.525,62.271-57.525S126.043,42.676,126.043,68.844z"/>
						</g>
						<g>
							<path style="fill:#0D5C9E;" d="M126.043,68.844c0,26.166-27.88,47.381-62.271,47.381S1.5,95.01,1.5,68.844
								c0-26.168,27.88-44.199,62.271-44.199S126.043,42.676,126.043,68.844z"/>
						</g>
						<g>
							<path style="fill:#063B66;" d="M126.043,68.844c0,26.166-27.88,47.381-62.271,47.381S1.5,95.01,1.5,68.844
								c0-26.17,7.923,23.209,62.271,23.209S126.043,42.674,126.043,68.844z"/>
						</g>
						<g>
							<path style="fill:#F4D7B8;" d="M81.88,38.541L63.771,56.65L45.663,38.541c-22.968,3.551-39.547,14.4-39.547,33.814
								c0,24.227,25.812,43.869,57.655,43.869s57.655-19.643,57.655-43.869C121.427,52.943,104.848,42.092,81.88,38.541z"/>
						</g>
						<g>
							<path style="fill:#FCE6C8;" d="M104.186,45.525c-6.225-3.365-13.828-5.674-22.307-6.984L63.771,56.65L45.663,38.541
								c-8.479,1.311-16.082,3.619-22.307,6.984c10.404,7.783,24.669,12.592,40.415,12.592
								C79.517,58.117,93.782,53.309,104.186,45.525z"/>
						</g>
						<g>
							<path style="fill:#EAC79D;" d="M121.427,72.355c0-2.656-0.321-5.148-0.916-7.488c-7.173,8.18-23.018,27.186-56.739,27.186
								S14.205,73.047,7.032,64.867c-0.596,2.34-0.916,4.832-0.916,7.488c0,23.469,24.225,42.637,54.687,43.811
								c0.984,0.035,1.973,0.059,2.968,0.059c0.995,0,1.983-0.023,2.968-0.059C97.202,114.992,121.427,95.824,121.427,72.355z"/>
						</g>
						<g>
							<path style="fill:#33363A;" d="M63.771,117.725c-32.618,0-59.155-20.353-59.155-45.369c0-18.692,14.496-31.228,40.818-35.297
								c0.473-0.07,0.952,0.084,1.29,0.422l17.048,17.049L80.819,37.48c0.337-0.339,0.819-0.496,1.29-0.422
								c26.322,4.069,40.818,16.604,40.818,35.297C122.927,97.372,96.39,117.725,63.771,117.725z M45.143,40.143
								C30.776,42.484,7.616,49.77,7.616,72.355c0,23.362,25.191,42.369,56.155,42.369s56.155-19.007,56.155-42.369
								c0-22.586-23.16-29.871-37.527-32.213L64.832,57.711c-0.563,0.563-1.559,0.563-2.121,0L45.143,40.143z"/>
						</g>
						<g>
							<path style="fill:#33363A;" d="M63.771,117.725C28.608,117.725,0,95.797,0,68.844C0,42.108,28.446,9.818,63.771,9.818
								s63.771,32.29,63.771,59.025C127.543,95.797,98.935,117.725,63.771,117.725z M63.771,12.818C30.108,12.818,3,43.468,3,68.844
								c0,25.299,27.262,45.881,60.771,45.881s60.771-20.582,60.771-45.881C124.543,43.468,97.435,12.818,63.771,12.818z"/>
						</g>
					</g>
				</g>
			</g>
		</g>
		<g>
			<path style="fill:#FCE6C8;" d="M76.187,82.021c0,2.613-5.559,1.146-12.416,1.146s-12.416,1.467-12.416-1.146
				s5.559-4.734,12.416-4.734S76.187,79.408,76.187,82.021z"/>
		</g>
	</g>
	<g>
		<g>
			<g>
				<path style="fill:#33363A;" d="M53.608,73.309c-0.616,0-1.194-0.383-1.413-0.996c-1.032-2.896-3.071-4.771-6.059-5.57
					c-2.781-0.745-6.21-0.476-9.658,0.755c-0.783,0.278-1.639-0.129-1.917-0.909c-0.279-0.78,0.128-1.638,0.908-1.917
					c4.016-1.433,8.079-1.728,11.442-0.827c3.942,1.055,6.746,3.635,8.11,7.461c0.278,0.78-0.129,1.639-0.91,1.917
					C53.945,73.281,53.775,73.309,53.608,73.309z"/>
			</g>
			<g>
				<path style="fill:#33363A;" d="M73.934,73.309c-0.167,0-0.337-0.027-0.504-0.087c-0.78-0.278-1.187-1.137-0.909-1.917
					c1.364-3.826,4.169-6.406,8.111-7.461c3.362-0.9,7.426-0.605,11.442,0.827c0.78,0.279,1.187,1.137,0.908,1.917
					c-0.278,0.781-1.135,1.188-1.917,0.909c-3.448-1.231-6.878-1.501-9.658-0.755c-2.989,0.8-5.028,2.674-6.06,5.57
					C75.127,72.926,74.55,73.309,73.934,73.309z"/>
			</g>
		</g>
		<path style="fill:#33363A;" d="M84.627,81.144c-0.124-0.06-0.254-0.109-0.397-0.134l-3.514-0.602
			c-0.391-0.07-0.795,0.023-1.12,0.254s-0.545,0.58-0.612,0.973l-0.581,3.406c-3.229,0.945-8.142,1.754-14.633,1.754
			s-11.404-0.81-14.633-1.754l-0.581-3.406c-0.067-0.393-0.287-0.742-0.612-0.973s-0.73-0.323-1.12-0.254l-3.514,0.602
			c-0.143,0.024-0.273,0.074-0.397,0.134c-0.721,0.109-1.276,0.726-1.276,1.477c0,4.929,11.473,7.174,22.132,7.174
			s22.132-2.245,22.132-7.174C85.903,81.87,85.349,81.253,84.627,81.144z M45.881,83.784c-0.083-0.046-0.144-0.089-0.22-0.133
			l0.191-0.033L45.881,83.784z M81.69,83.618l0.191,0.033c-0.075,0.045-0.136,0.088-0.22,0.133L81.69,83.618z"/>
	</g>
</g>
<g>
</g>
<g>
</g>
<g>
</g>
<g>
</g>
<g>
</g>
<g>
</g>
<g>
</g>
<g>
</g>
<g>
</g>
<g>
</g>
<g>
</g>
<g>
</g>
<g>
</g>
<g>
</g>
<g>
</g>
</svg>
