<?xml version="1.0" encoding="iso-8859-1"?>
<!-- Generator: Adobe Illustrator 19.0.0, SVG Export Plug-In . SVG Version: 6.00 Build 0)  -->
<svg version="1.1" id="Layer_1" xmlns="http://www.w3.org/2000/svg" xmlns:xlink="http://www.w3.org/1999/xlink" x="0px" y="0px"
	 viewBox="0 0 127.789 127.789" style="enable-background:new 0 0 127.789 127.789;" xml:space="preserve">
<g>
	<g>
		<g>
			<path style="fill:#93F9EA;" d="M97.188,23.982c0.002,0.002,0.005,0.002,0.008,0.004C94.325,11.121,82.848,1.5,69.118,1.5
				c-15.893,0-28.777,12.885-28.777,28.777c0,11.66,6.939,21.693,16.91,26.215c-0.452-2.025-0.699-4.131-0.699-6.293
				c0-6.625,2.244-12.721,6.006-17.582c1.484,8.385,8.791,14.758,17.604,14.758c9.883,0,17.896-8.012,17.896-17.895
				C98.058,27.561,97.747,25.715,97.188,23.982z"/>
		</g>
		<g>
			<path style="fill:#70D3E0;" d="M56.552,50.199c0-6.625,2.244-12.721,6.006-17.582c1.484,8.385,8.791,14.758,17.604,14.758
				c8.581,0,15.745-6.043,17.484-14.107c-0.128-0.594-0.274-1.182-0.458-1.754c0.002,0.002,0.005,0.002,0.008,0.004
				C94.325,18.654,82.848,9.033,69.118,9.033c-14.607,0-26.664,10.887-28.522,24.986c1.275,9.789,7.467,18.02,16.021,22.156
				c0.039-0.73,0.106-1.453,0.199-2.17C56.65,52.76,56.552,51.492,56.552,50.199z"/>
		</g>
		<path style="fill:#33363A;" d="M98.661,23.664c0-0.002-0.001-0.003-0.001-0.005C95.601,9.95,83.177,0,69.118,0
			C52.423,0,38.841,13.582,38.841,30.277c0,11.854,6.983,22.68,17.791,27.581c0.198,0.09,0.409,0.134,0.619,0.134
			c0.338,0,0.674-0.114,0.946-0.336c0.441-0.358,0.642-0.936,0.518-1.491c-0.44-1.971-0.663-3.979-0.663-5.966
			c0-5.025,1.341-9.828,3.902-14.058c2.74,7.544,9.938,12.733,18.208,12.733c10.694,0,19.396-8.7,19.396-19.395
			C99.558,27.514,99.256,25.558,98.661,23.664z M80.162,45.875c-6.959,0-13.018-4.348-15.358-10.678
			c0.036-0.246,0.019-0.504-0.076-0.753c-2.496-6.524,0.781-13.863,7.306-16.359c2.452-0.939,5.125-0.866,7.524,0.205
			c2.399,1.072,4.237,3.014,5.176,5.47c0.723,1.886,0.667,3.941-0.157,5.786c-0.824,1.847-2.318,3.261-4.207,3.982
			c-2.963,1.138-6.297-0.353-7.432-3.315c-0.849-2.22,0.264-4.715,2.48-5.562c0.773-0.296,1.161-1.163,0.865-1.938
			s-1.165-1.16-1.938-0.865c-3.761,1.438-5.649,5.671-4.21,9.436c1.333,3.482,4.662,5.625,8.187,5.625
			c1.038,0,2.093-0.186,3.119-0.578c2.637-1.009,4.723-2.983,5.874-5.562s1.229-5.448,0.22-8.082
			c-1.225-3.203-3.623-5.737-6.754-7.136c-3.13-1.399-6.617-1.493-9.82-0.27c-6.956,2.662-10.914,9.774-9.901,16.855
			c-3.922,5.255-6.008,11.483-6.008,18.062c0,1.188,0.071,2.382,0.214,3.572c-8.24-4.868-13.425-13.8-13.425-23.494
			C41.841,15.236,54.077,3,69.118,3C81.734,3,92.891,11.896,95.7,24.172c0.012,0.091,0.032,0.182,0.061,0.271
			c0.529,1.64,0.797,3.335,0.797,5.038C96.558,38.521,89.202,45.875,80.162,45.875z"/>
	</g>
	<g>
		<g>
			<g>
				<g>
					<path style="fill:#93F9EA;" d="M113.104,88.848c0,20.676-22.032,37.441-49.209,37.441c-27.178,0-49.209-16.766-49.209-37.441
						c0-20.68,22.031-45.459,49.209-45.459C91.071,43.389,113.104,68.168,113.104,88.848z"/>
				</g>
				<g>
					<path style="fill:#7FE5D8;" d="M113.104,88.848c0,20.676-22.032,37.441-49.209,37.441c-27.178,0-49.209-16.766-49.209-37.441
						c0-20.68,22.031-34.928,49.209-34.928C91.071,53.92,113.104,68.168,113.104,88.848z"/>
				</g>
				<g>
					<path style="fill:#93F9EA;" d="M74.415,102.902c0,1.393-4.691,1.643-10.479,1.643s-10.479-0.25-10.479-1.643
						c0-1.395,4.691-5.037,10.479-5.037S74.415,101.508,74.415,102.902z"/>
				</g>
				<g>
					<path style="fill:#70D3E0;" d="M113.104,88.848c0,20.676-22.032,37.441-49.209,37.441c-27.178,0-49.209-16.766-49.209-37.441
						c0-20.682,6.261,18.34,49.209,18.34S113.104,68.166,113.104,88.848z"/>
				</g>
				<g>
					<path style="fill:#33363A;" d="M63.895,127.789c-27.961,0-50.709-17.469-50.709-38.941c0-21.27,22.619-46.959,50.709-46.959
						s50.709,25.689,50.709,46.959C114.604,110.32,91.855,127.789,63.895,127.789z M63.895,44.889
						c-26.428,0-47.709,24.048-47.709,43.959c0,19.818,21.402,35.941,47.709,35.941s47.709-16.123,47.709-35.941
						C111.604,68.937,90.322,44.889,63.895,44.889z"/>
				</g>
			</g>
			<g>
				<path style="fill:#893015;" d="M47.732,94.754c0,4.449-3.605,8.051-8.052,8.051c-4.447,0-8.051-3.602-8.051-8.051
					c0-4.447,3.604-8.051,8.051-8.051C44.127,86.703,47.732,90.307,47.732,94.754z"/>
			</g>
			<g>
				<circle style="fill:#FFFFFF;" cx="35.676" cy="92.137" r="3.281"/>
			</g>
			<path style="fill:#33363A;" d="M39.681,85.203c-3.234,0-6.093,1.62-7.822,4.086c-0.118,0.157-0.22,0.323-0.318,0.494
				c-0.889,1.45-1.411,3.148-1.411,4.97c0,5.267,4.284,9.551,9.551,9.551s9.552-4.284,9.552-9.551S44.947,85.203,39.681,85.203z
				 M39.681,101.305c-2.721,0-5.058-1.668-6.046-4.034c0.688-0.018,1.524-0.2,2.468-0.396c0.336-0.03,0.659-0.093,0.972-0.19
				c0.819-0.148,1.693-0.267,2.607-0.267c2.412,0,4.571,0.813,6.047,0.853C44.739,99.637,42.401,101.305,39.681,101.305z"/>
			<circle style="fill:#FFFFFF;" cx="35.676" cy="92.138" r="1.78"/>
			<g>
				<path style="fill:#893015;" d="M96.159,94.754c0,4.449-3.604,8.051-8.051,8.051c-4.447,0-8.052-3.602-8.052-8.051
					c0-4.447,3.604-8.051,8.052-8.051C92.555,86.703,96.159,90.307,96.159,94.754z"/>
			</g>
			<g>
				<circle style="fill:#FFFFFF;" cx="84.104" cy="92.137" r="3.28"/>
			</g>
			<path style="fill:#33363A;" d="M88.108,85.203c-3.238,0-6.101,1.623-7.829,4.095c-0.113,0.151-0.211,0.31-0.305,0.474
				c-0.893,1.452-1.417,3.155-1.417,4.981c0,5.267,4.285,9.551,9.552,9.551s9.551-4.284,9.551-9.551S93.375,85.203,88.108,85.203z
				 M88.108,101.305c-2.721,0-5.058-1.668-6.047-4.034c0.688-0.018,1.524-0.2,2.467-0.396c0.337-0.03,0.661-0.093,0.974-0.19
				c0.818-0.148,1.693-0.267,2.606-0.267c2.412,0,4.571,0.813,6.046,0.853C93.166,99.637,90.829,101.305,88.108,101.305z"/>
			<circle style="fill:#FFFFFF;" cx="84.104" cy="92.138" r="1.78"/>
		</g>
		<path style="fill:#33363A;" d="M94.787,105.697c-0.741-0.362-1.642-0.057-2.007,0.688c-0.034,0.07-3.554,6.973-15.432,6.78
			c-0.297-0.005-0.587-0.007-0.871-0.007c-7.436,0-10.932,1.583-12.579,3.104c-1.707-1.587-5.412-3.242-13.456-3.097
			c-0.162,0.003-0.321,0.004-0.479,0.004c-11.367,0-14.806-6.492-14.958-6.792c-0.367-0.739-1.265-1.043-2.003-0.681
			c-0.744,0.364-1.053,1.263-0.688,2.007c0.172,0.35,4.297,8.466,17.648,8.466c0.174,0,0.351-0.001,0.528-0.004
			c9.072-0.159,11.657,2.161,11.883,3.063c-0.017-0.065-0.015-0.103-0.015-0.103l1.536-0.14l1.536,0.14c0,0,0.002,0.037-0.015,0.103
			c0.226-0.901,2.763-3.214,11.885-3.063c13.733,0.228,18.002-8.107,18.175-8.462C95.84,106.96,95.531,106.062,94.787,105.697z"/>
		<g>
			<g>
				<path style="fill:#33363A;" d="M61.427,111.045c-0.398,0-0.795-0.157-1.091-0.47l-1.5-1.588
					c-0.568-0.603-0.541-1.552,0.061-2.121c0.602-0.567,1.551-0.542,2.121,0.061l1.5,1.588c0.568,0.603,0.541,1.552-0.061,2.121
					C62.167,110.909,61.797,111.045,61.427,111.045z"/>
			</g>
			<g>
				<path style="fill:#33363A;" d="M66.362,111.045c-0.37,0-0.74-0.136-1.03-0.409c-0.602-0.569-0.629-1.519-0.061-2.121l1.5-1.588
					c0.571-0.604,1.521-0.627,2.121-0.061c0.602,0.569,0.629,1.519,0.061,2.121l-1.5,1.588
					C67.157,110.888,66.76,111.045,66.362,111.045z"/>
			</g>
		</g>
		<g>
			<g>
				<path style="fill:#33363A;" d="M49.029,82.959c-0.266,0-0.533-0.07-0.776-0.218l-4.674-2.834
					c-0.709-0.429-0.935-1.352-0.505-2.06c0.428-0.71,1.352-0.935,2.06-0.505l4.674,2.834c0.709,0.429,0.935,1.352,0.505,2.06
					C50.031,82.702,49.536,82.959,49.029,82.959z"/>
			</g>
			<g>
				<path style="fill:#33363A;" d="M78.76,82.959c-0.507,0-1.002-0.257-1.283-0.723c-0.43-0.708-0.204-1.631,0.505-2.06l4.674-2.834
					c0.706-0.43,1.631-0.205,2.06,0.505c0.43,0.708,0.204,1.631-0.505,2.06l-4.674,2.834C79.293,82.889,79.025,82.959,78.76,82.959z
					"/>
			</g>
		</g>
	</g>
</g>
<g>
</g>
<g>
</g>
<g>
</g>
<g>
</g>
<g>
</g>
<g>
</g>
<g>
</g>
<g>
</g>
<g>
</g>
<g>
</g>
<g>
</g>
<g>
</g>
<g>
</g>
<g>
</g>
<g>
</g>
</svg>
